<svg width="46" height="59" viewBox="0 0 46 59" fill="none" xmlns="http://www.w3.org/2000/svg">
<g clip-path="url(#clip0_33_190)">
<path d="M12.3477 53.6481C12.3477 53.6481 20.7779 56.6074 33.3636 53.6481V52.7012H12.3477V53.6481Z" fill="#212121"/>
<path d="M10.8359 51.4834H15.9068V58.6703C15.9068 58.7164 15.8977 58.762 15.8799 58.8046C15.8622 58.8471 15.8361 58.8858 15.8033 58.9184C15.7705 58.951 15.7316 58.9768 15.6887 58.9944C15.6458 59.0121 15.5999 59.0212 15.5534 59.0212H11.1893C11.1429 59.0212 11.097 59.0121 11.0541 58.9944C11.0112 58.9768 10.9723 58.951 10.9394 58.9184C10.9066 58.8858 10.8806 58.8471 10.8628 58.8046C10.8451 58.762 10.8359 58.7164 10.8359 58.6703V51.4834Z" fill="#212121"/>
<path d="M29.805 51.4834H34.8759V58.6703C34.8759 58.7164 34.8668 58.762 34.849 58.8046C34.8313 58.8471 34.8053 58.8858 34.7724 58.9184C34.7396 58.951 34.7007 58.9768 34.6578 58.9944C34.6149 59.0121 34.569 59.0212 34.5226 59.0212H30.1542C30.1078 59.0212 30.0618 59.0121 30.0189 58.9944C29.9761 58.9768 29.9371 58.951 29.9043 58.9184C29.8715 58.8858 29.8454 58.8471 29.8277 58.8046C29.8099 58.762 29.8008 58.7164 29.8008 58.6703V51.4834H29.805Z" fill="#212121"/>
<path d="M7.27344 51.4834H12.3486V58.6703C12.3486 58.7164 12.3395 58.762 12.3217 58.8046C12.3039 58.8471 12.2779 58.8858 12.2451 58.9184C12.2123 58.951 12.1733 58.9768 12.1304 58.9944C12.0876 59.0121 12.0416 59.0212 11.9952 59.0212H7.62683C7.58042 59.0212 7.53446 59.0121 7.49159 58.9944C7.44871 58.9768 7.40976 58.951 7.37694 58.9184C7.34413 58.8858 7.3181 58.8471 7.30034 58.8046C7.28258 58.762 7.27344 58.7164 7.27344 58.6703V51.4834Z" fill="#424242"/>
<path d="M33.3633 51.4834H38.4342V58.6703C38.4342 58.7164 38.425 58.762 38.4073 58.8046C38.3895 58.8471 38.3635 58.8858 38.3307 58.9184C38.2979 58.951 38.2589 58.9768 38.216 58.9944C38.1732 59.0121 38.1272 59.0212 38.0808 59.0212H33.7167C33.6703 59.0212 33.6243 59.0121 33.5814 58.9944C33.5386 58.9768 33.4996 58.951 33.4668 58.9184C33.434 58.8858 33.4079 58.8471 33.3902 58.8046C33.3724 58.762 33.3633 58.7164 33.3633 58.6703V51.4834Z" fill="#424242"/>
<path d="M7.27344 51.4834H12.3486V58.6703C12.3486 58.7164 12.3395 58.762 12.3217 58.8046C12.3039 58.8471 12.2779 58.8858 12.2451 58.9184C12.2123 58.951 12.1733 58.9768 12.1304 58.9944C12.0876 59.0121 12.0416 59.0212 11.9952 59.0212H7.62683C7.58042 59.0212 7.53446 59.0121 7.49159 58.9944C7.44871 58.9768 7.40976 58.951 7.37694 58.9184C7.34413 58.8858 7.3181 58.8471 7.30034 58.8046C7.28258 58.762 7.27344 58.7164 7.27344 58.6703V51.4834Z" fill="#424242"/>
<path style="mix-blend-mode:multiply" opacity="0.5" d="M7.27344 51.4834H12.3486V58.6703C12.3486 58.7164 12.3395 58.762 12.3217 58.8046C12.3039 58.8471 12.2779 58.8858 12.2451 58.9184C12.2123 58.951 12.1733 58.9768 12.1304 58.9944C12.0876 59.0121 12.0416 59.0212 11.9952 59.0212H7.62683C7.58042 59.0212 7.53446 59.0121 7.49159 58.9944C7.44871 58.9768 7.40976 58.951 7.37694 58.9184C7.34413 58.8858 7.3181 58.8471 7.30034 58.8046C7.28258 58.762 7.27344 58.7164 7.27344 58.6703V51.4834Z" fill="url(#paint0_radial_33_190)"/>
<path style="mix-blend-mode:multiply" opacity="0.5" d="M33.3633 51.4834H38.4342V58.6703C38.4342 58.7164 38.425 58.762 38.4073 58.8046C38.3895 58.8471 38.3635 58.8858 38.3307 58.9184C38.2979 58.951 38.2589 58.9768 38.216 58.9944C38.1732 59.0121 38.1272 59.0212 38.0808 59.0212H33.7167C33.6703 59.0212 33.6243 59.0121 33.5814 58.9944C33.5386 58.9768 33.4996 58.951 33.4668 58.9184C33.434 58.8858 33.4079 58.8471 33.3902 58.8046C33.3724 58.762 33.3633 58.7164 33.3633 58.6703V51.4834Z" fill="url(#paint1_radial_33_190)"/>
<path d="M34.897 4.31213L33.0832 0.574957C32.9988 0.402908 32.8674 0.257821 32.7041 0.156186C32.5408 0.0545506 32.352 0.000435202 32.1593 0H13.7491C13.5564 0.000925418 13.3679 0.0552382 13.2046 0.156818C13.0414 0.258398 12.91 0.403217 12.8251 0.574957L11.0156 4.31213H34.9012H34.897Z" fill="#53D0FE"/>
<path style="mix-blend-mode:multiply" d="M34.897 4.31213L33.0832 0.574957C32.9988 0.402908 32.8674 0.257821 32.7041 0.156186C32.5408 0.0545506 32.352 0.000435202 32.1593 0H13.7491C13.5564 0.000925418 13.3679 0.0552382 13.2046 0.156818C13.0414 0.258398 12.91 0.403217 12.8251 0.574957L11.0156 4.31213H34.9012H34.897Z" fill="url(#paint2_linear_33_190)"/>
<path d="M24.6367 3.98256C23.5297 3.94592 22.4227 3.94592 21.3157 3.98256L7.98916 4.40531C6.84415 4.40531 5.74603 4.85696 4.93638 5.66088C4.12673 6.4648 3.67188 7.55515 3.67188 8.69207V35.7908C3.69657 41.0396 4.13789 46.2783 4.99176 51.4582C5.04865 51.8129 5.23143 52.1357 5.50706 52.3683C5.78269 52.6009 6.133 52.7279 6.49472 52.7265H39.462C39.8234 52.7271 40.1733 52.5997 40.4487 52.3673C40.7242 52.1348 40.9072 51.8125 40.9649 51.4582C41.8188 46.2783 42.2601 41.0396 42.2848 35.7908V8.6963C42.2842 8.13173 42.1715 7.57281 41.953 7.05159C41.7345 6.53036 41.4146 6.05708 41.0115 5.65885C40.6085 5.26062 40.1303 4.94528 39.6042 4.7309C39.0782 4.51652 38.5148 4.40731 37.9462 4.40953L24.6367 3.98256Z" fill="url(#paint3_linear_33_190)"/>
<path style="mix-blend-mode:multiply" opacity="0.7" d="M24.6367 3.98256C23.5297 3.94592 22.4227 3.94592 21.3157 3.98256L7.98916 4.40531C6.84415 4.40531 5.74603 4.85696 4.93638 5.66088C4.12673 6.4648 3.67188 7.55515 3.67188 8.69207V35.7908C3.69657 41.0396 4.13789 46.2783 4.99176 51.4582C5.04865 51.8129 5.23143 52.1357 5.50706 52.3683C5.78268 52.6009 6.133 52.7279 6.49472 52.7265H39.462C39.8234 52.727 40.1733 52.5997 40.4487 52.3673C40.7242 52.1348 40.9072 51.8125 40.9649 51.4582C41.8188 46.2783 42.2601 41.0396 42.2848 35.7908V8.6963C42.2842 8.13173 42.1715 7.57281 41.953 7.05159C41.7345 6.53036 41.4146 6.05708 41.0115 5.65885C40.6085 5.26062 40.1303 4.94528 39.6042 4.7309C39.0782 4.51652 38.5148 4.40731 37.9462 4.40953L24.6367 3.98256Z" fill="url(#paint4_linear_33_190)"/>
<g style="mix-blend-mode:screen">
<path d="M3.98957 43.3031C3.98957 43.3031 6.63784 47.983 22.8554 47.983C39.0729 47.983 41.9638 43.3031 41.9638 43.3031L42.1214 41.0752C42.1214 41.0752 36.3224 46.3174 22.9277 46.3174C9.53307 46.3174 3.83203 41.0752 3.83203 41.0752L3.98957 43.3031Z" fill="#F8C50F"/>
</g>
<path d="M6.46742 10.6243C10.9295 9.7788 24.4604 7.7707 39.4048 10.6243C39.8361 10.7089 40.2242 10.94 40.5024 11.2779C40.7806 11.6159 40.9315 12.0395 40.9291 12.476V36.2519H4.92188V12.4802C4.92109 12.0405 5.07514 11.6143 5.35737 11.2754C5.6396 10.9364 6.03226 10.7062 6.46742 10.6243Z" fill="#035E77"/>
<path d="M40.157 16.5928H5.69531V35.3167H40.157V16.5928Z" fill="#79E8F6"/>
<path style="mix-blend-mode:multiply" d="M40.157 16.5928H5.69531V35.3167H40.157V16.5928Z" fill="url(#paint5_linear_33_190)"/>
<g style="mix-blend-mode:screen" opacity="0.7">
<path d="M25.75 17.8019C26.3205 17.4087 26.9038 17.024 27.4531 16.5928H24.1065C22.9036 17.5833 21.7658 18.6494 20.7004 19.7846C19.8744 20.6682 19.0654 21.6405 18.8185 22.82C18.5715 23.9995 19.074 25.4157 20.215 25.8258C20.8153 26.0414 21.5647 25.9864 21.9947 26.4599C22.1491 26.6607 22.2423 26.9011 22.2634 27.1529C22.2845 27.4046 22.2327 27.657 22.1139 27.8804C21.8675 28.3231 21.5363 28.7138 21.1389 29.0303L14.25 35.3167H18.1585L26.0821 29.1148C26.8357 28.523 27.6149 27.8973 28.0066 27.0264C28.3983 26.1555 28.2535 24.9676 27.4318 24.4899C26.5462 23.9614 25.3753 24.4434 24.3875 24.1348C23.1102 23.712 22.6036 22.021 23.0719 20.7527C23.5403 19.4844 24.6345 18.5713 25.75 17.8019Z" fill="#B2EBF2"/>
</g>
<path d="M4.92188 36.2598C7.47471 38.405 10.7525 39.508 14.0929 39.3459L15.9961 37.4773H22.9276V36.2598H4.92188Z" fill="#035E77"/>
<path d="M40.923 36.2598C38.3717 38.4076 35.0928 39.511 31.752 39.3459L29.853 37.4815H22.9258V36.264L40.923 36.2598Z" fill="#035E77"/>
<path d="M3.73828 39.1729C3.73828 39.1729 12.8114 41.9335 13.1052 45.1718C13.1052 45.1718 4.51318 45.8271 3.83621 41.0795L3.79363 40.4073L3.73828 39.1729Z" fill="white"/>
<path style="mix-blend-mode:multiply" d="M3.73828 39.1729C3.73828 39.1729 12.8114 41.9335 13.1052 45.1718C13.1052 45.1718 4.51318 45.8271 3.83621 41.0795L3.79363 40.4073L3.73828 39.1729Z" fill="url(#paint6_linear_33_190)"/>
<path style="mix-blend-mode:multiply" d="M3.73828 39.1729C3.73828 39.1729 12.8114 41.9335 13.1052 45.1718C13.1052 45.1718 4.51318 45.8271 3.83621 41.0795L3.79363 40.4073L3.73828 39.1729Z" fill="url(#paint7_linear_33_190)"/>
<path d="M8.38282 42.297C8.38282 42.5386 8.31065 42.7748 8.17545 42.9757C8.04024 43.1767 7.84807 43.3333 7.62323 43.4257C7.39839 43.5182 7.15098 43.5424 6.91229 43.4953C6.67361 43.4481 6.45436 43.3317 6.28227 43.1609C6.11019 42.99 5.993 42.7723 5.94552 42.5353C5.89804 42.2983 5.92241 42.0527 6.01554 41.8294C6.10867 41.6062 6.26638 41.4154 6.46873 41.2811C6.67108 41.1469 6.90898 41.0752 7.15235 41.0752C7.47869 41.0752 7.79166 41.2039 8.02242 41.433C8.25318 41.6622 8.38282 41.9729 8.38282 42.297Z" fill="#424242"/>
<path d="M10.9267 43.5233C10.9259 43.738 10.861 43.9477 10.7402 44.1258C10.6195 44.3039 10.4483 44.4425 10.2483 44.5241C10.0483 44.6057 9.8284 44.6266 9.61642 44.5842C9.40445 44.5418 9.20988 44.438 9.05727 44.2859C8.90467 44.1338 8.80087 43.9402 8.759 43.7295C8.71712 43.5189 8.73904 43.3006 8.82198 43.1024C8.90492 42.9041 9.04517 42.7346 9.22502 42.6154C9.40487 42.4962 9.61626 42.4326 9.8325 42.4326C9.97655 42.4326 10.1192 42.4609 10.2522 42.5157C10.3853 42.5706 10.5061 42.651 10.6077 42.7523C10.7094 42.8537 10.7899 42.974 10.8447 43.1063C10.8994 43.2386 10.9273 43.3803 10.9267 43.5233Z" fill="#424242"/>
<path d="M5.8891 40.8636C5.8891 40.9967 5.84928 41.1269 5.77471 41.2375C5.70013 41.3481 5.59415 41.4343 5.4702 41.485C5.34625 41.5358 5.20992 41.5488 5.07848 41.5225C4.94705 41.4963 4.82643 41.4318 4.73193 41.3374C4.63742 41.243 4.57329 41.1228 4.54765 40.9921C4.52201 40.8615 4.53603 40.7262 4.58792 40.6034C4.63981 40.4807 4.72724 40.376 4.83913 40.3026C4.95101 40.2293 5.08231 40.1906 5.21638 40.1914C5.30509 40.1914 5.39291 40.2088 5.47481 40.2427C5.55671 40.2765 5.63105 40.3261 5.69358 40.3886C5.7561 40.451 5.80556 40.5252 5.83912 40.6067C5.87268 40.6882 5.88966 40.7755 5.8891 40.8636Z" fill="#424242"/>
<path d="M8.08037 41.8913C8.08036 41.9592 8.06003 42.0256 8.02194 42.082C7.98385 42.1384 7.92974 42.1823 7.86647 42.208C7.80321 42.2338 7.73365 42.2404 7.66663 42.2268C7.59962 42.2132 7.53818 42.1802 7.49012 42.1319C7.44207 42.0836 7.40956 42.0222 7.39674 41.9555C7.38392 41.8888 7.39136 41.8198 7.41812 41.7573C7.44487 41.6948 7.48974 41.6416 7.54701 41.6045C7.60428 41.5674 7.67137 41.548 7.73975 41.5489C7.78484 41.5489 7.82949 41.5577 7.87109 41.575C7.9127 41.5923 7.95044 41.6176 7.98212 41.6494C8.01381 41.6813 8.03881 41.719 8.05567 41.7606C8.07254 41.8021 8.08093 41.8465 8.08037 41.8913Z" fill="url(#paint8_radial_33_190)"/>
<path d="M10.5179 42.9772C10.5179 43.0451 10.4975 43.1115 10.4594 43.1679C10.4214 43.2243 10.3672 43.2682 10.304 43.294C10.2407 43.3198 10.1711 43.3263 10.1041 43.3127C10.0371 43.2992 9.97568 43.2661 9.92762 43.2178C9.87957 43.1695 9.84706 43.1081 9.83424 43.0414C9.82142 42.9747 9.82886 42.9057 9.85562 42.8432C9.88237 42.7807 9.92724 42.7275 9.98451 42.6904C10.0418 42.6533 10.1089 42.634 10.1773 42.6348C10.2223 42.6348 10.267 42.6437 10.3086 42.6609C10.3502 42.6782 10.3879 42.7035 10.4196 42.7353C10.4513 42.7672 10.4763 42.805 10.4932 42.8465C10.51 42.888 10.5184 42.9325 10.5179 42.9772Z" fill="url(#paint9_radial_33_190)"/>
<path d="M42.2028 39.1729C42.2028 39.1729 33.134 41.9335 32.8359 45.1718C32.8359 45.1718 41.4279 45.8271 42.1007 41.0795L42.1475 40.4073L42.2028 39.1729Z" fill="white"/>
<path style="mix-blend-mode:multiply" d="M42.2028 39.1729C42.2028 39.1729 33.134 41.9335 32.8359 45.1718C32.8359 45.1718 41.4279 45.8271 42.1007 41.0795L42.1475 40.4073L42.2028 39.1729Z" fill="url(#paint10_linear_33_190)"/>
<path style="mix-blend-mode:multiply" d="M42.2028 39.1729C42.2028 39.1729 33.134 41.9335 32.8359 45.1718C32.8359 45.1718 41.4279 45.8271 42.1007 41.0795L42.1475 40.4073L42.2028 39.1729Z" fill="url(#paint11_linear_33_190)"/>
<path d="M37.5703 42.297C37.5703 42.5388 37.6426 42.7752 37.778 42.9762C37.9134 43.1772 38.1058 43.3338 38.3309 43.4261C38.556 43.5185 38.8036 43.5424 39.0424 43.4949C39.2812 43.4475 39.5005 43.3307 39.6724 43.1594C39.8443 42.9881 39.9611 42.77 40.0081 42.5327C40.0551 42.2954 40.0301 42.0497 39.9364 41.8265C39.8426 41.6033 39.6842 41.4128 39.4813 41.279C39.2784 41.1453 39.0401 41.0744 38.7965 41.0752C38.4713 41.0774 38.16 41.207 37.9304 41.4358C37.7008 41.6645 37.5714 41.974 37.5703 42.297Z" fill="#424242"/>
<path d="M36.1216 44.6095C36.7259 44.6095 37.2158 44.1231 37.2158 43.523C37.2158 42.923 36.7259 42.4365 36.1216 42.4365C35.5172 42.4365 35.0273 42.923 35.0273 43.523C35.0273 44.1231 35.5172 44.6095 36.1216 44.6095Z" fill="#424242"/>
<path d="M40.0742 40.8636C40.0742 40.9965 40.1139 41.1265 40.1883 41.237C40.2627 41.3476 40.3684 41.4337 40.4921 41.4846C40.6158 41.5355 40.7519 41.5488 40.8833 41.5229C41.0146 41.4969 41.1352 41.4329 41.2299 41.3389C41.3246 41.2449 41.389 41.1251 41.4152 40.9947C41.4413 40.8643 41.4279 40.7292 41.3766 40.6064C41.3254 40.4835 41.2386 40.3786 41.1273 40.3047C41.016 40.2308 40.8851 40.1914 40.7512 40.1914C40.5716 40.1914 40.3995 40.2622 40.2725 40.3883C40.1455 40.5143 40.0742 40.6853 40.0742 40.8636Z" fill="#424242"/>
<path d="M37.8711 41.8913C37.8711 41.9592 37.8915 42.0256 37.9296 42.082C37.9676 42.1384 38.0218 42.1823 38.085 42.208C38.1483 42.2338 38.2178 42.2404 38.2849 42.2268C38.3519 42.2132 38.4133 42.1802 38.4614 42.1319C38.5094 42.0836 38.5419 42.0222 38.5547 41.9555C38.5676 41.8888 38.5601 41.8198 38.5334 41.7573C38.5066 41.6948 38.4618 41.6416 38.4045 41.6045C38.3472 41.5674 38.2801 41.548 38.2117 41.5489C38.1666 41.5489 38.122 41.5577 38.0804 41.575C38.0388 41.5923 38.001 41.6176 37.9694 41.6494C37.9377 41.6813 37.9127 41.719 37.8958 41.7606C37.8789 41.8021 37.8706 41.8465 37.8711 41.8913Z" fill="url(#paint12_radial_33_190)"/>
<path d="M35.4375 42.9772C35.4375 43.045 35.4578 43.1112 35.4956 43.1675C35.5335 43.2238 35.5874 43.2677 35.6504 43.2936C35.7134 43.3195 35.7828 43.3263 35.8497 43.3131C35.9166 43.2999 35.978 43.2673 36.0263 43.2194C36.0745 43.1715 36.1073 43.1105 36.1206 43.044C36.1339 42.9776 36.1271 42.9088 36.101 42.8462C36.0749 42.7836 36.0307 42.7301 35.974 42.6925C35.9173 42.6549 35.8506 42.6348 35.7824 42.6348C35.737 42.6342 35.6918 42.6427 35.6497 42.6597C35.6076 42.6767 35.5694 42.7019 35.5373 42.7338C35.5051 42.7657 35.4797 42.8037 35.4626 42.8455C35.4455 42.8873 35.437 42.9321 35.4375 42.9772Z" fill="url(#paint13_radial_33_190)"/>
<path d="M10.089 50.1646C10.2813 50.0503 10.4401 49.8878 10.5492 49.6934C10.6583 49.499 10.714 49.2795 10.7106 49.0569C10.7106 48.3974 10.1613 47.8605 9.59507 47.5139C8.56045 46.884 7.34275 46.6388 6.18892 46.2456C5.43461 46.0017 4.73691 45.6108 4.13672 45.0957C4.34535 47.2095 4.58378 48.9766 4.78389 50.2914H8.72224C9.28 50.2914 9.70151 50.3802 10.089 50.1646Z" fill="#F8C50F"/>
<path d="M9.10575 49.7798C9.60426 49.7798 10.0084 49.3785 10.0084 48.8835C10.0084 48.3886 9.60426 47.9873 9.10575 47.9873C8.60725 47.9873 8.20312 48.3886 8.20312 48.8835C8.20312 49.3785 8.60725 49.7798 9.10575 49.7798Z" fill="#FFD740"/>
<path style="mix-blend-mode:multiply" d="M9.10575 49.7798C9.60426 49.7798 10.0084 49.3785 10.0084 48.8835C10.0084 48.3886 9.60426 47.9873 9.10575 47.9873C8.60725 47.9873 8.20312 48.3886 8.20312 48.8835C8.20312 49.3785 8.60725 49.7798 9.10575 49.7798Z" fill="url(#paint14_radial_33_190)"/>
<path style="mix-blend-mode:screen" d="M9.10575 49.7798C9.60426 49.7798 10.0084 49.3785 10.0084 48.8835C10.0084 48.3886 9.60426 47.9873 9.10575 47.9873C8.60725 47.9873 8.20312 48.3886 8.20312 48.8835C8.20312 49.3785 8.60725 49.7798 9.10575 49.7798Z" fill="url(#paint15_radial_33_190)"/>
<path style="mix-blend-mode:multiply" opacity="0.7" d="M10.089 50.1646C10.2813 50.0503 10.4401 49.8878 10.5492 49.6934C10.6583 49.499 10.714 49.2795 10.7106 49.0569C10.7106 48.3974 10.1613 47.8605 9.59507 47.5139C8.56045 46.884 7.34275 46.6388 6.18892 46.2456C5.43461 46.0017 4.73691 45.6108 4.13672 45.0957C4.34535 47.2095 4.58378 48.9766 4.78389 50.2914H8.72224C9.17986 50.3936 9.65835 50.3492 10.089 50.1646Z" fill="url(#paint16_radial_33_190)"/>
<path opacity="0.7" d="M10.089 50.1646C10.2813 50.0503 10.4401 49.8878 10.5492 49.6934C10.6583 49.499 10.714 49.2795 10.7106 49.0569C10.7106 48.3974 10.1613 47.8605 9.59507 47.5139C8.56045 46.884 7.34275 46.6388 6.18892 46.2456C5.43461 46.0017 4.73691 45.6108 4.13672 45.0957C4.34535 47.2095 4.58378 48.9766 4.78389 50.2914H8.72224C9.1799 50.3931 9.65821 50.3487 10.089 50.1646Z" fill="url(#paint17_radial_33_190)"/>
<path opacity="0.7" d="M10.089 50.1646C10.2813 50.0503 10.4401 49.8878 10.5492 49.6934C10.6583 49.499 10.714 49.2795 10.7106 49.0569C10.7106 48.3974 10.1613 47.8605 9.59507 47.5139C8.56045 46.884 7.34275 46.6388 6.18892 46.2456C5.43461 46.0017 4.73691 45.6108 4.13672 45.0957C4.34535 47.2095 4.58378 48.9766 4.78389 50.2914H8.72224C9.29703 50.3167 9.70151 50.3802 10.089 50.1646Z" fill="url(#paint18_radial_33_190)"/>
<path opacity="0.7" d="M10.089 50.1646C10.2813 50.0503 10.4401 49.8878 10.5492 49.6934C10.6583 49.499 10.714 49.2795 10.7106 49.0569C10.7106 48.3974 10.1613 47.8605 9.59507 47.5139C8.56045 46.884 7.34275 46.6388 6.18892 46.2456C5.43461 46.0017 4.73691 45.6108 4.13672 45.0957C4.34535 47.2095 4.58378 48.9766 4.78389 50.2914H8.72224C9.17975 50.3954 9.6588 50.351 10.089 50.1646Z" fill="url(#paint19_radial_33_190)"/>
<path d="M35.8601 50.1646C35.6677 50.0503 35.5089 49.8878 35.3998 49.6934C35.2907 49.499 35.235 49.2795 35.2384 49.0569C35.2384 48.3974 35.7877 47.8605 36.3539 47.5139C37.3886 46.884 38.6063 46.6388 39.7601 46.2456C40.5144 46.0017 41.2121 45.6108 41.8123 45.0957C41.6037 47.2095 41.3652 48.9766 41.1651 50.2914H37.2268C36.669 50.2914 36.2432 50.3802 35.8601 50.1646Z" fill="#F8C50F"/>
<path d="M36.8401 49.7798C37.3386 49.7798 37.7428 49.3785 37.7428 48.8835C37.7428 48.3886 37.3386 47.9873 36.8401 47.9873C36.3416 47.9873 35.9375 48.3886 35.9375 48.8835C35.9375 49.3785 36.3416 49.7798 36.8401 49.7798Z" fill="#FFD740"/>
<path style="mix-blend-mode:multiply" d="M36.8401 49.7798C37.3386 49.7798 37.7428 49.3785 37.7428 48.8835C37.7428 48.3886 37.3386 47.9873 36.8401 47.9873C36.3416 47.9873 35.9375 48.3886 35.9375 48.8835C35.9375 49.3785 36.3416 49.7798 36.8401 49.7798Z" fill="url(#paint20_radial_33_190)"/>
<path style="mix-blend-mode:screen" d="M36.8401 49.7798C37.3386 49.7798 37.7428 49.3785 37.7428 48.8835C37.7428 48.3886 37.3386 47.9873 36.8401 47.9873C36.3416 47.9873 35.9375 48.3886 35.9375 48.8835C35.9375 49.3785 36.3416 49.7798 36.8401 49.7798Z" fill="url(#paint21_radial_33_190)"/>
<path style="mix-blend-mode:multiply" opacity="0.7" d="M35.8601 50.1646C35.6677 50.0503 35.5089 49.8878 35.3998 49.6934C35.2907 49.499 35.235 49.2795 35.2384 49.0569C35.2384 48.3974 35.7877 47.8605 36.3539 47.5139C37.3886 46.884 38.6063 46.6388 39.7601 46.2456C40.5144 46.0017 41.2121 45.6108 41.8123 45.0957C41.6037 47.2095 41.3652 48.9766 41.1651 50.2914H37.2268C36.7691 50.3936 36.2907 50.3492 35.8601 50.1646Z" fill="url(#paint22_radial_33_190)"/>
<path opacity="0.7" d="M35.8601 50.1646C35.6677 50.0503 35.5089 49.8878 35.3998 49.6934C35.2907 49.499 35.235 49.2795 35.2384 49.0569C35.2384 48.3974 35.7877 47.8605 36.3539 47.5139C37.3886 46.884 38.6063 46.6388 39.7601 46.2456C40.5144 46.0017 41.2121 45.6108 41.8123 45.0957C41.6037 47.2095 41.3652 48.9766 41.1651 50.2914H37.2268C36.7691 50.3931 36.2908 50.3487 35.8601 50.1646Z" fill="url(#paint23_radial_33_190)"/>
<path opacity="0.7" d="M35.8601 50.1646C35.6677 50.0503 35.5089 49.8878 35.3998 49.6934C35.2907 49.499 35.235 49.2795 35.2384 49.0569C35.2384 48.3974 35.7877 47.8605 36.3539 47.5139C37.3886 46.884 38.6063 46.6388 39.7601 46.2456C40.5144 46.0017 41.2121 45.6108 41.8123 45.0957C41.6037 47.2095 41.3652 48.9766 41.1651 50.2914H37.2268C36.669 50.3167 36.2432 50.3802 35.8601 50.1646Z" fill="url(#paint24_radial_33_190)"/>
<path opacity="0.7" d="M35.8601 50.1646C35.6677 50.0503 35.5089 49.8878 35.3998 49.6934C35.2907 49.499 35.235 49.2795 35.2384 49.0569C35.2384 48.3974 35.7877 47.8605 36.3539 47.5139C37.3886 46.884 38.6063 46.6388 39.7601 46.2456C40.5144 46.0017 41.2121 45.6108 41.8123 45.0957C41.6037 47.2095 41.3652 48.9766 41.1651 50.2914H37.2268C36.7693 50.3954 36.2902 50.351 35.8601 50.1646Z" fill="url(#paint25_radial_33_190)"/>
<path d="M26.833 50.4854H18.8711V53.6476H26.833V50.4854Z" fill="#BDBDBD"/>
<path d="M10.7388 37.6214C10.6777 37.6215 10.6181 37.6023 10.5686 37.5666C10.5191 37.5309 10.4823 37.4806 10.4634 37.4229C10.4445 37.3651 10.4445 37.303 10.4634 37.2452C10.4822 37.1875 10.519 37.1372 10.5685 37.1015L15.0901 33.7617C15.1519 33.7211 15.227 33.7055 15.3 33.7182C15.3729 33.7309 15.4382 33.7708 15.4824 33.8299C15.5266 33.8889 15.5463 33.9625 15.5375 34.0356C15.5287 34.1086 15.492 34.1755 15.435 34.2225L10.9134 37.5623C10.8629 37.5998 10.8018 37.6205 10.7388 37.6214Z" fill="#262626"/>
<path d="M27.3888 34.3743H15.0415C14.9924 34.3644 14.9481 34.338 14.9163 34.2995C14.8846 34.261 14.8672 34.2127 14.8672 34.1629C14.8672 34.1131 14.8846 34.0648 14.9163 34.0263C14.9481 33.9877 14.9924 33.9613 15.0415 33.9515H27.3888C27.4203 33.9452 27.4529 33.9459 27.4841 33.9536C27.5152 33.9614 27.5443 33.9758 27.5692 33.9961C27.5941 34.0163 27.6141 34.0417 27.6279 34.0706C27.6416 34.0994 27.6488 34.131 27.6488 34.1629C27.6488 34.1948 27.6416 34.2263 27.6279 34.2552C27.6141 34.284 27.5941 34.3095 27.5692 34.3297C27.5443 34.3499 27.5152 34.3644 27.4841 34.3721C27.4529 34.3798 27.4203 34.3805 27.3888 34.3743Z" fill="#262626"/>
<path d="M35.2121 37.6216C35.1504 37.6207 35.0906 37.5999 35.0418 37.5624L31.2823 34.7849C31.2514 34.7627 31.2253 34.7346 31.2055 34.7023C31.1857 34.6699 31.1727 34.634 31.1671 34.5966C31.1616 34.5591 31.1636 34.5209 31.1732 34.4843C31.1827 34.4477 31.1995 34.4133 31.2227 34.3833C31.2685 34.3222 31.3368 34.2817 31.4126 34.2707C31.4884 34.2596 31.5656 34.2788 31.6272 34.3241L35.391 37.1016C35.4524 37.1471 35.4932 37.2149 35.5044 37.2902C35.5155 37.3654 35.4962 37.442 35.4506 37.5032C35.4228 37.5399 35.3868 37.5698 35.3454 37.5903C35.304 37.6109 35.2584 37.6216 35.2121 37.6216Z" fill="#262626"/>
<path d="M31.6596 34.9455H20.3384C20.2892 34.9357 20.245 34.9093 20.2132 34.8708C20.1814 34.8322 20.1641 34.784 20.1641 34.7342C20.1641 34.6844 20.1814 34.6361 20.2132 34.5975C20.245 34.559 20.2892 34.5326 20.3384 34.5228H31.6596C31.6911 34.5165 31.7236 34.5172 31.7548 34.5249C31.786 34.5326 31.8151 34.5471 31.84 34.5674C31.8648 34.5876 31.8849 34.613 31.8986 34.6419C31.9124 34.6707 31.9195 34.7022 31.9195 34.7342C31.9195 34.7661 31.9124 34.7976 31.8986 34.8264C31.8849 34.8553 31.8648 34.8807 31.84 34.901C31.8151 34.9212 31.786 34.9357 31.7548 34.9434C31.7236 34.9511 31.6911 34.9518 31.6596 34.9455Z" fill="#262626"/>
<path d="M2.36767 14.1201H3.67053V16.5932H2.36767C2.30405 16.5921 2.24341 16.5663 2.19881 16.5212C2.15422 16.4761 2.12923 16.4155 2.12924 16.3523V14.3738C2.12752 14.3414 2.13239 14.3091 2.14354 14.2786C2.1547 14.2482 2.17192 14.2203 2.19418 14.1966C2.21643 14.173 2.24327 14.154 2.27308 14.1408C2.30289 14.1277 2.33506 14.1206 2.36767 14.1201Z" fill="#2A2E42"/>
<path d="M1.32646 18.6687C1.30253 18.6731 1.27801 18.6731 1.25408 18.6687C1.21683 18.6598 1.18176 18.6436 1.15095 18.6211C1.12015 18.5985 1.09424 18.5699 1.07477 18.5372C1.0553 18.5045 1.04267 18.4682 1.03763 18.4305C1.0326 18.3928 1.03526 18.3545 1.04545 18.3178L1.84164 15.2909C1.8614 15.2169 1.90996 15.1537 1.97663 15.1152C2.0433 15.0768 2.12263 15.0662 2.19715 15.0858C2.27168 15.1054 2.33531 15.1536 2.37403 15.2198C2.41276 15.286 2.42341 15.3648 2.40365 15.4388L1.60747 18.4573C1.5906 18.5183 1.55391 18.5721 1.5031 18.6104C1.45229 18.6486 1.3902 18.6691 1.32646 18.6687Z" fill="#2A2E42"/>
<path d="M0.314373 24.875H2.57946C2.75347 24.875 2.89453 24.7349 2.89453 24.5622L2.89453 18.2377C2.89453 18.0649 2.75347 17.9249 2.57946 17.9249H0.314373C0.140366 17.9249 -0.000694036 18.0649 -0.000694036 18.2377L-0.000694036 24.5622C-0.000694036 24.7349 0.140366 24.875 0.314373 24.875Z" fill="#2A2E42"/>
<path style="mix-blend-mode:screen" d="M0.314373 24.875H2.57946C2.75347 24.875 2.89453 24.7349 2.89453 24.5622L2.89453 18.2377C2.89453 18.0649 2.75347 17.9249 2.57946 17.9249H0.314373C0.140366 17.9249 -0.000694036 18.0649 -0.000694036 18.2377L-0.000694036 24.5622C-0.000694036 24.7349 0.140366 24.875 0.314373 24.875Z" fill="url(#paint26_radial_33_190)"/>
<g style="mix-blend-mode:multiply">
<path d="M2.60394 24.6847V18.5885C2.60394 18.4764 2.55909 18.3689 2.47924 18.2896C2.39939 18.2103 2.2911 18.1658 2.17818 18.1658H0.138746C0.0978792 18.1677 0.0576083 18.1763 0.0195312 18.1911C0.051082 18.1125 0.105695 18.045 0.176294 17.9976C0.246892 17.9501 0.330224 17.9247 0.415496 17.9248H2.45493C2.56785 17.9248 2.67614 17.9694 2.75599 18.0486C2.83584 18.1279 2.88069 18.2354 2.88069 18.3476V24.448C2.87978 24.5387 2.84948 24.6267 2.79427 24.6991C2.73907 24.7714 2.66188 24.8242 2.57414 24.8496C2.59298 24.7966 2.60305 24.7409 2.60394 24.6847Z" fill="#2A2E42"/>
</g>
<path d="M43.5815 16.5928H42.2829V14.1196H43.5815C43.6459 14.1196 43.7076 14.145 43.7531 14.1902C43.7986 14.2354 43.8242 14.2967 43.8242 14.3606V16.3476C43.8247 16.3796 43.8189 16.4114 43.8069 16.4411C43.795 16.4708 43.7772 16.4979 43.7546 16.5207C43.732 16.5435 43.7051 16.5617 43.6754 16.574C43.6456 16.5864 43.6137 16.5928 43.5815 16.5928Z" fill="#2A2E42"/>
<path d="M44.625 18.6685C44.649 18.6725 44.6735 18.6725 44.6974 18.6685C44.7344 18.6592 44.7691 18.6427 44.7996 18.6199C44.8301 18.5972 44.8558 18.5687 44.8752 18.5361C44.8945 18.5035 44.9073 18.4674 44.9126 18.43C44.9179 18.3925 44.9156 18.3543 44.9061 18.3177L44.1056 15.2907C44.0814 15.2224 44.0321 15.1657 43.9677 15.1319C43.9032 15.0981 43.8282 15.0897 43.7578 15.1084C43.6873 15.1271 43.6266 15.1715 43.5876 15.2327C43.5487 15.2939 43.5345 15.3675 43.5479 15.4387L44.3313 18.4572C44.3486 18.5204 44.3872 18.5758 44.4407 18.6142C44.4941 18.6527 44.5591 18.6718 44.625 18.6685Z" fill="#2A2E42"/>
<path d="M43.4198 24.875H45.6849C45.8589 24.875 46 24.7349 46 24.5622V18.2377C46 18.0649 45.8589 17.9249 45.6849 17.9249H43.4198C43.2458 17.9249 43.1048 18.0649 43.1048 18.2377V24.5622C43.1048 24.7349 43.2458 24.875 43.4198 24.875Z" fill="#2A2E42"/>
<path style="mix-blend-mode:screen" d="M43.4198 24.875H45.6849C45.8589 24.875 46 24.7349 46 24.5622V18.2377C46 18.0649 45.8589 17.9249 45.6849 17.9249H43.4198C43.2458 17.9249 43.1048 18.0649 43.1048 18.2377V24.5622C43.1048 24.7349 43.2458 24.875 43.4198 24.875Z" fill="url(#paint27_radial_33_190)"/>
<g style="mix-blend-mode:multiply">
<path d="M45.7247 24.6847V18.5885C45.7247 18.4764 45.6798 18.3689 45.6 18.2896C45.5201 18.2103 45.4118 18.1658 45.2989 18.1658H43.2595C43.2201 18.1682 43.1813 18.1767 43.1445 18.1911C43.1758 18.1131 43.2298 18.0462 43.2995 17.9987C43.3693 17.9513 43.4517 17.9256 43.5362 17.9248H45.5757C45.6886 17.9248 45.7969 17.9694 45.8767 18.0486C45.9566 18.1279 46.0014 18.2354 46.0014 18.3476V24.448C46.0002 24.5392 45.9693 24.6277 45.9133 24.7001C45.8573 24.7725 45.7792 24.8249 45.6906 24.8496C45.713 24.7974 45.7246 24.7414 45.7247 24.6847Z" fill="#2A2E42"/>
</g>
</g>
<defs>
<radialGradient id="paint0_radial_33_190" cx="0" cy="0" r="1" gradientUnits="userSpaceOnUse" gradientTransform="translate(9.8834 52.1994) scale(6.25028 2.35831)">
<stop stop-color="#242424"/>
<stop offset="0.36" stop-color="#272727" stop-opacity="0.91"/>
<stop offset="0.65" stop-color="#2F2F2F" stop-opacity="0.63"/>
<stop offset="0.91" stop-color="#3D3D3D" stop-opacity="0.17"/>
<stop offset="0.98" stop-color="#424242" stop-opacity="0"/>
</radialGradient>
<radialGradient id="paint1_radial_33_190" cx="0" cy="0" r="1" gradientUnits="userSpaceOnUse" gradientTransform="translate(35.854 52.8417) scale(6.33543 2.13881)">
<stop stop-color="#242424"/>
<stop offset="0.36" stop-color="#272727" stop-opacity="0.91"/>
<stop offset="0.65" stop-color="#2F2F2F" stop-opacity="0.63"/>
<stop offset="0.91" stop-color="#3D3D3D" stop-opacity="0.17"/>
<stop offset="0.98" stop-color="#424242" stop-opacity="0"/>
</radialGradient>
<linearGradient id="paint2_linear_33_190" x1="22.9542" y1="4.98431" x2="22.9542" y2="2.10533" gradientUnits="userSpaceOnUse">
<stop stop-color="#46AFD6"/>
<stop offset="0.1" stop-color="#46B0D7" stop-opacity="0.97"/>
<stop offset="0.24" stop-color="#48B3DB" stop-opacity="0.87"/>
<stop offset="0.41" stop-color="#4AB8E1" stop-opacity="0.72"/>
<stop offset="0.61" stop-color="#4CBFEA" stop-opacity="0.5"/>
<stop offset="0.82" stop-color="#50C8F5" stop-opacity="0.23"/>
<stop offset="0.98" stop-color="#53D0FE" stop-opacity="0"/>
</linearGradient>
<linearGradient id="paint3_linear_33_190" x1="67.5018" y1="127" x2="22.9762" y2="9.94766" gradientUnits="userSpaceOnUse">
<stop stop-color="#536DFE"/>
<stop offset="0.2" stop-color="#5371FE"/>
<stop offset="0.4" stop-color="#537DFE"/>
<stop offset="0.6" stop-color="#5391FE"/>
<stop offset="0.8" stop-color="#53ADFE"/>
<stop offset="1" stop-color="#53D0FE"/>
</linearGradient>
<linearGradient id="paint4_linear_33_190" x1="23.0018" y1="73.0001" x2="25.2581" y2="30.8732" gradientUnits="userSpaceOnUse">
<stop stop-color="#035E77"/>
<stop offset="0.14" stop-color="#3093AF"/>
<stop offset="0.777274" stop-color="#3093AF"/>
<stop offset="1" stop-color="#3093AF"/>
</linearGradient>
<linearGradient id="paint5_linear_33_190" x1="39.9782" y1="35.1899" x2="20.9279" y2="24.7271" gradientUnits="userSpaceOnUse">
<stop stop-color="#399AA8"/>
<stop offset="0.12" stop-color="#3C9DAB" stop-opacity="0.96"/>
<stop offset="0.29" stop-color="#44A7B5" stop-opacity="0.84"/>
<stop offset="0.5" stop-color="#50B6C4" stop-opacity="0.64"/>
<stop offset="0.73" stop-color="#62CCDA" stop-opacity="0.36"/>
<stop offset="0.99" stop-color="#78E7F5" stop-opacity="0.02"/>
<stop offset="1" stop-color="#79E8F6" stop-opacity="0"/>
</linearGradient>
<linearGradient id="paint6_linear_33_190" x1="3.45727" y1="40.141" x2="8.04184" y2="42.9813" gradientUnits="userSpaceOnUse">
<stop stop-color="#7A7A7A"/>
<stop offset="0.14" stop-color="#828282" stop-opacity="0.94"/>
<stop offset="0.36" stop-color="#989898" stop-opacity="0.77"/>
<stop offset="0.62" stop-color="#BCBCBC" stop-opacity="0.5"/>
<stop offset="0.91" stop-color="#EEEEEE" stop-opacity="0.13"/>
<stop offset="0.99" stop-color="white" stop-opacity="0"/>
</linearGradient>
<linearGradient id="paint7_linear_33_190" x1="13.2031" y1="45.1464" x2="9.75827" y2="43.6021" gradientUnits="userSpaceOnUse">
<stop stop-color="#7A7A7A"/>
<stop offset="0.14" stop-color="#828282" stop-opacity="0.94"/>
<stop offset="0.36" stop-color="#989898" stop-opacity="0.77"/>
<stop offset="0.62" stop-color="#BCBCBC" stop-opacity="0.5"/>
<stop offset="0.91" stop-color="#EEEEEE" stop-opacity="0.13"/>
<stop offset="0.99" stop-color="white" stop-opacity="0"/>
</linearGradient>
<radialGradient id="paint8_radial_33_190" cx="0" cy="0" r="1" gradientUnits="userSpaceOnUse" gradientTransform="translate(7.73976 41.8913) scale(0.298038 0.295932)">
<stop stop-color="#BDBDBD"/>
<stop offset="0.99" stop-color="white" stop-opacity="0"/>
</radialGradient>
<radialGradient id="paint9_radial_33_190" cx="0" cy="0" r="1" gradientUnits="userSpaceOnUse" gradientTransform="translate(10.1773 42.9645) scale(0.281007 0.27902)">
<stop stop-color="#BDBDBD"/>
<stop offset="0.99" stop-color="white" stop-opacity="0"/>
</radialGradient>
<linearGradient id="paint10_linear_33_190" x1="42.5009" y1="40.141" x2="37.912" y2="42.9814" gradientUnits="userSpaceOnUse">
<stop stop-color="#7A7A7A"/>
<stop offset="0.14" stop-color="#828282" stop-opacity="0.94"/>
<stop offset="0.36" stop-color="#989898" stop-opacity="0.77"/>
<stop offset="0.62" stop-color="#BCBCBC" stop-opacity="0.5"/>
<stop offset="0.91" stop-color="#EEEEEE" stop-opacity="0.13"/>
<stop offset="0.99" stop-color="white" stop-opacity="0"/>
</linearGradient>
<linearGradient id="paint11_linear_33_190" x1="32.755" y1="45.1464" x2="36.1999" y2="43.6021" gradientUnits="userSpaceOnUse">
<stop stop-color="#7A7A7A"/>
<stop offset="0.14" stop-color="#828282" stop-opacity="0.94"/>
<stop offset="0.36" stop-color="#989898" stop-opacity="0.77"/>
<stop offset="0.62" stop-color="#BCBCBC" stop-opacity="0.5"/>
<stop offset="0.91" stop-color="#EEEEEE" stop-opacity="0.13"/>
<stop offset="0.99" stop-color="white" stop-opacity="0"/>
</linearGradient>
<radialGradient id="paint12_radial_33_190" cx="0" cy="0" r="1" gradientUnits="userSpaceOnUse" gradientTransform="translate(38.216 41.8913) rotate(180) scale(0.298038 0.295932)">
<stop stop-color="#BDBDBD"/>
<stop offset="0.99" stop-color="white" stop-opacity="0"/>
</radialGradient>
<radialGradient id="paint13_radial_33_190" cx="0" cy="0" r="1" gradientUnits="userSpaceOnUse" gradientTransform="translate(35.7824 42.9645) rotate(180) scale(0.281006 0.279019)">
<stop stop-color="#BDBDBD"/>
<stop offset="0.99" stop-color="white" stop-opacity="0"/>
</radialGradient>
<radialGradient id="paint14_radial_33_190" cx="0" cy="0" r="1" gradientTransform="matrix(1.69532 0.998256 -0.729384 1.21357 9.40779 48.9672)" gradientUnits="userSpaceOnUse">
<stop stop-color="#CCAC33"/>
<stop offset="0.11" stop-color="#CDAD33" stop-opacity="0.97"/>
<stop offset="0.24" stop-color="#D1B034" stop-opacity="0.9"/>
<stop offset="0.39" stop-color="#D8B636" stop-opacity="0.77"/>
<stop offset="0.56" stop-color="#E1BD38" stop-opacity="0.6"/>
<stop offset="0.72" stop-color="#ECC73B" stop-opacity="0.37"/>
<stop offset="0.9" stop-color="#FAD33F" stop-opacity="0.1"/>
<stop offset="0.96" stop-color="#FFD740" stop-opacity="0"/>
</radialGradient>
<radialGradient id="paint15_radial_33_190" cx="0" cy="0" r="1" gradientTransform="matrix(1.40061 1.1509 -0.486822 0.584098 10.3675 47.8195)" gradientUnits="userSpaceOnUse">
<stop stop-color="#FFE996"/>
<stop offset="0.09" stop-color="#FFE994" stop-opacity="0.98"/>
<stop offset="0.21" stop-color="#FFE88F" stop-opacity="0.92"/>
<stop offset="0.34" stop-color="#FFE686" stop-opacity="0.82"/>
<stop offset="0.49" stop-color="#FFE37A" stop-opacity="0.68"/>
<stop offset="0.63" stop-color="#FFE06B" stop-opacity="0.5"/>
<stop offset="0.79" stop-color="#FFDC58" stop-opacity="0.27"/>
<stop offset="0.95" stop-color="#FFD742" stop-opacity="0.02"/>
<stop offset="0.96" stop-color="#FFD740" stop-opacity="0"/>
</radialGradient>
<radialGradient id="paint16_radial_33_190" cx="0" cy="0" r="1" gradientTransform="matrix(6.34669 2.13672 -0.430388 1.26036 7.79422 45.8961)" gradientUnits="userSpaceOnUse">
<stop stop-color="#465CD6"/>
<stop offset="0.14" stop-color="#465ED7" stop-opacity="0.98"/>
<stop offset="0.27" stop-color="#4765D9" stop-opacity="0.93"/>
<stop offset="0.41" stop-color="#4870DD" stop-opacity="0.83"/>
<stop offset="0.55" stop-color="#4A7FE2" stop-opacity="0.7"/>
<stop offset="0.69" stop-color="#4C92E9" stop-opacity="0.53"/>
<stop offset="0.82" stop-color="#4FABF1" stop-opacity="0.32"/>
<stop offset="0.96" stop-color="#52C7FB" stop-opacity="0.08"/>
<stop offset="1" stop-color="#53D0FE" stop-opacity="0"/>
</radialGradient>
<radialGradient id="paint17_radial_33_190" cx="0" cy="0" r="1" gradientTransform="matrix(1.60109 -2.11046 1.33906 1.00155 10.625 50.2017)" gradientUnits="userSpaceOnUse">
<stop stop-color="#F2F2F2"/>
<stop offset="0.13" stop-color="#EFF1F2" stop-opacity="0.98"/>
<stop offset="0.26" stop-color="#E7F0F3" stop-opacity="0.93"/>
<stop offset="0.39" stop-color="#DAEDF4" stop-opacity="0.85"/>
<stop offset="0.52" stop-color="#C8E9F5" stop-opacity="0.73"/>
<stop offset="0.65" stop-color="#B0E4F7" stop-opacity="0.58"/>
<stop offset="0.77" stop-color="#93DEF9" stop-opacity="0.4"/>
<stop offset="0.9" stop-color="#71D6FC" stop-opacity="0.19"/>
<stop offset="1" stop-color="#53D0FE" stop-opacity="0"/>
</radialGradient>
<radialGradient id="paint18_radial_33_190" cx="0" cy="0" r="1" gradientUnits="userSpaceOnUse" gradientTransform="translate(9.31406 49.9532) scale(5.09644 1.51812)">
<stop stop-color="#F2F2F2"/>
<stop offset="0.13" stop-color="#EFF1F2" stop-opacity="0.98"/>
<stop offset="0.26" stop-color="#E7F0F3" stop-opacity="0.93"/>
<stop offset="0.39" stop-color="#DAEDF4" stop-opacity="0.85"/>
<stop offset="0.52" stop-color="#C8E9F5" stop-opacity="0.73"/>
<stop offset="0.65" stop-color="#B0E4F7" stop-opacity="0.58"/>
<stop offset="0.77" stop-color="#93DEF9" stop-opacity="0.4"/>
<stop offset="0.9" stop-color="#71D6FC" stop-opacity="0.19"/>
<stop offset="1" stop-color="#53D0FE" stop-opacity="0"/>
</radialGradient>
<radialGradient id="paint19_radial_33_190" cx="0" cy="0" r="1" gradientUnits="userSpaceOnUse" gradientTransform="translate(5.15005 49.9219) scale(5.10496 1.52066)">
<stop stop-color="#F2F2F2"/>
<stop offset="0.13" stop-color="#EFF1F2" stop-opacity="0.98"/>
<stop offset="0.26" stop-color="#E7F0F3" stop-opacity="0.93"/>
<stop offset="0.39" stop-color="#DAEDF4" stop-opacity="0.85"/>
<stop offset="0.52" stop-color="#C8E9F5" stop-opacity="0.73"/>
<stop offset="0.65" stop-color="#B0E4F7" stop-opacity="0.58"/>
<stop offset="0.77" stop-color="#93DEF9" stop-opacity="0.4"/>
<stop offset="0.9" stop-color="#71D6FC" stop-opacity="0.19"/>
<stop offset="1" stop-color="#53D0FE" stop-opacity="0"/>
</radialGradient>
<radialGradient id="paint20_radial_33_190" cx="0" cy="0" r="1" gradientTransform="matrix(-1.69532 0.998256 0.729383 1.21357 36.6763 49.2204)" gradientUnits="userSpaceOnUse">
<stop stop-color="#CCAC33"/>
<stop offset="0.11" stop-color="#CDAD33" stop-opacity="0.97"/>
<stop offset="0.24" stop-color="#D1B034" stop-opacity="0.9"/>
<stop offset="0.39" stop-color="#D8B636" stop-opacity="0.77"/>
<stop offset="0.56" stop-color="#E1BD38" stop-opacity="0.6"/>
<stop offset="0.72" stop-color="#ECC73B" stop-opacity="0.37"/>
<stop offset="0.9" stop-color="#FAD33F" stop-opacity="0.1"/>
<stop offset="0.96" stop-color="#FFD740" stop-opacity="0"/>
</radialGradient>
<radialGradient id="paint21_radial_33_190" cx="0" cy="0" r="1" gradientTransform="matrix(-1.39988 1.15531 0.490868 0.595707 35.9559 48.8988)" gradientUnits="userSpaceOnUse">
<stop stop-color="#FFE996"/>
<stop offset="0.09" stop-color="#FFE994" stop-opacity="0.98"/>
<stop offset="0.21" stop-color="#FFE88F" stop-opacity="0.92"/>
<stop offset="0.34" stop-color="#FFE686" stop-opacity="0.82"/>
<stop offset="0.49" stop-color="#FFE37A" stop-opacity="0.68"/>
<stop offset="0.63" stop-color="#FFE06B" stop-opacity="0.5"/>
<stop offset="0.79" stop-color="#FFDC58" stop-opacity="0.27"/>
<stop offset="0.95" stop-color="#FFD742" stop-opacity="0.02"/>
<stop offset="0.96" stop-color="#FFD740" stop-opacity="0"/>
</radialGradient>
<radialGradient id="paint22_radial_33_190" cx="0" cy="0" r="1" gradientTransform="matrix(-6.36651 2.12934 0.469112 1.2643 39.1303 45.9937)" gradientUnits="userSpaceOnUse">
<stop stop-color="#465CD6"/>
<stop offset="0.14" stop-color="#465ED7" stop-opacity="0.98"/>
<stop offset="0.27" stop-color="#4765D9" stop-opacity="0.93"/>
<stop offset="0.41" stop-color="#4870DD" stop-opacity="0.83"/>
<stop offset="0.55" stop-color="#4A7FE2" stop-opacity="0.7"/>
<stop offset="0.69" stop-color="#4C92E9" stop-opacity="0.53"/>
<stop offset="0.82" stop-color="#4FABF1" stop-opacity="0.32"/>
<stop offset="0.96" stop-color="#52C7FB" stop-opacity="0.08"/>
<stop offset="1" stop-color="#53D0FE" stop-opacity="0"/>
</radialGradient>
<radialGradient id="paint23_radial_33_190" cx="0" cy="0" r="1" gradientTransform="matrix(-1.59663 -2.11378 -1.33053 1.00405 35.8728 50.3639)" gradientUnits="userSpaceOnUse">
<stop stop-color="#F2F2F2"/>
<stop offset="0.13" stop-color="#EFF1F2" stop-opacity="0.98"/>
<stop offset="0.26" stop-color="#E7F0F3" stop-opacity="0.93"/>
<stop offset="0.39" stop-color="#DAEDF4" stop-opacity="0.85"/>
<stop offset="0.52" stop-color="#C8E9F5" stop-opacity="0.73"/>
<stop offset="0.65" stop-color="#B0E4F7" stop-opacity="0.58"/>
<stop offset="0.77" stop-color="#93DEF9" stop-opacity="0.4"/>
<stop offset="0.9" stop-color="#71D6FC" stop-opacity="0.19"/>
<stop offset="1" stop-color="#53D0FE" stop-opacity="0"/>
</radialGradient>
<radialGradient id="paint24_radial_33_190" cx="0" cy="0" r="1" gradientUnits="userSpaceOnUse" gradientTransform="translate(36.6349 49.9532) rotate(180) scale(5.09645 1.51812)">
<stop stop-color="#F2F2F2"/>
<stop offset="0.13" stop-color="#EFF1F2" stop-opacity="0.98"/>
<stop offset="0.26" stop-color="#E7F0F3" stop-opacity="0.93"/>
<stop offset="0.39" stop-color="#DAEDF4" stop-opacity="0.85"/>
<stop offset="0.52" stop-color="#C8E9F5" stop-opacity="0.73"/>
<stop offset="0.65" stop-color="#B0E4F7" stop-opacity="0.58"/>
<stop offset="0.77" stop-color="#93DEF9" stop-opacity="0.4"/>
<stop offset="0.9" stop-color="#71D6FC" stop-opacity="0.19"/>
<stop offset="1" stop-color="#53D0FE" stop-opacity="0"/>
</radialGradient>
<radialGradient id="paint25_radial_33_190" cx="0" cy="0" r="1" gradientUnits="userSpaceOnUse" gradientTransform="translate(40.799 49.9219) rotate(180) scale(5.10496 1.52066)">
<stop stop-color="#F2F2F2"/>
<stop offset="0.13" stop-color="#EFF1F2" stop-opacity="0.98"/>
<stop offset="0.26" stop-color="#E7F0F3" stop-opacity="0.93"/>
<stop offset="0.39" stop-color="#DAEDF4" stop-opacity="0.85"/>
<stop offset="0.52" stop-color="#C8E9F5" stop-opacity="0.73"/>
<stop offset="0.65" stop-color="#B0E4F7" stop-opacity="0.58"/>
<stop offset="0.77" stop-color="#93DEF9" stop-opacity="0.4"/>
<stop offset="0.9" stop-color="#71D6FC" stop-opacity="0.19"/>
<stop offset="1" stop-color="#53D0FE" stop-opacity="0"/>
</radialGradient>
<radialGradient id="paint26_radial_33_190" cx="0" cy="0" r="1" gradientUnits="userSpaceOnUse" gradientTransform="translate(-0.0771623 20.9434) rotate(90) scale(6.57388 2.18483)">
<stop stop-color="#B4BAD6"/>
<stop offset="0.14" stop-color="#B1B7D3" stop-opacity="0.98"/>
<stop offset="0.27" stop-color="#AAB0CB" stop-opacity="0.93"/>
<stop offset="0.41" stop-color="#9DA2BD" stop-opacity="0.83"/>
<stop offset="0.55" stop-color="#8B90AA" stop-opacity="0.7"/>
<stop offset="0.69" stop-color="#737890" stop-opacity="0.53"/>
<stop offset="0.82" stop-color="#575B72" stop-opacity="0.32"/>
<stop offset="0.96" stop-color="#35394E" stop-opacity="0.08"/>
<stop offset="1" stop-color="#2A2E42" stop-opacity="0"/>
</radialGradient>
<radialGradient id="paint27_radial_33_190" cx="0" cy="0" r="1" gradientUnits="userSpaceOnUse" gradientTransform="translate(43.0283 20.9434) rotate(90) scale(6.57388 2.18483)">
<stop stop-color="#B4BAD6"/>
<stop offset="0.14" stop-color="#B1B7D3" stop-opacity="0.98"/>
<stop offset="0.27" stop-color="#AAB0CB" stop-opacity="0.93"/>
<stop offset="0.41" stop-color="#9DA2BD" stop-opacity="0.83"/>
<stop offset="0.55" stop-color="#8B90AA" stop-opacity="0.7"/>
<stop offset="0.69" stop-color="#737890" stop-opacity="0.53"/>
<stop offset="0.82" stop-color="#575B72" stop-opacity="0.32"/>
<stop offset="0.96" stop-color="#35394E" stop-opacity="0.08"/>
<stop offset="1" stop-color="#2A2E42" stop-opacity="0"/>
</radialGradient>
<clipPath id="clip0_33_190">
<rect width="46" height="59" fill="white"/>
</clipPath>
</defs>
</svg>
