<svg width="15" height="15" viewBox="0 0 15 15" fill="none" xmlns="http://www.w3.org/2000/svg">
<path d="M13.4951 12.6736C13.9376 12.6738 14.2979 13.0388 14.2979 13.4871C14.2976 13.936 13.9374 14.2994 13.4951 14.2996H8.95801C8.51578 14.2993 8.15647 13.9359 8.15625 13.4871C8.15625 13.0389 8.51564 12.6738 8.95801 12.6736H13.4951ZM7.3418 0.760498C8.0668 -0.170363 9.3315 -0.25588 10.3516 0.55542L11.5234 1.48608C12.004 1.86184 12.324 2.35772 12.4336 2.87866C12.5599 3.45157 12.4252 4.01406 12.0459 4.50073L5.06543 13.5271C4.74508 13.937 4.27339 14.168 3.76758 14.1765L0.985352 14.2107C0.833735 14.2106 0.707528 14.1077 0.673828 13.9626L0.0410156 11.2214C-0.0684016 10.7178 0.0412298 10.1969 0.361328 9.79565L5.31055 3.39038C5.3948 3.2882 5.54637 3.27172 5.64746 3.34741L7.72949 5.00464C7.86438 5.11566 8.05024 5.17577 8.24414 5.15015C8.65722 5.0989 8.93571 4.72242 8.89355 4.32104C8.86819 4.11624 8.76664 3.94516 8.63184 3.81714C8.58275 3.77742 6.6084 2.19507 6.6084 2.19507C6.48204 2.09258 6.45651 1.90431 6.55762 1.7771L7.3418 0.760498Z" fill="white"/>
</svg>
