<svg width="19" height="19" viewBox="0 0 19 19" fill="none" xmlns="http://www.w3.org/2000/svg">
<g clip-path="url(#clip0_723_455)">
<path d="M9.5 0C4.2534 0 0 4.2534 0 9.5C0 14.7466 4.2534 19 9.5 19C14.7466 19 19 14.7466 19 9.5C19 4.2534 14.7466 0 9.5 0ZM9.5 17.4167C5.12785 17.4167 1.58335 13.8722 1.58335 9.5C1.58335 5.12785 5.12785 1.58335 9.5 1.58335C13.8722 1.58335 17.4167 5.12785 17.4167 9.5C17.4167 13.8722 13.8722 17.4167 9.5 17.4167Z" fill="white"/>
<path d="M7.12515 5.54156H11.8752C12.3124 5.54156 12.6668 5.18713 12.6668 4.74991C12.6668 4.31268 12.3124 3.95825 11.8752 3.95825H7.12515C6.68793 3.95825 6.3335 4.31268 6.3335 4.74991C6.3335 5.18713 6.68793 5.54156 7.12515 5.54156Z" fill="white"/>
<path d="M14.2501 7.125H4.75015C4.31293 7.125 3.9585 7.47943 3.9585 7.91665C3.9585 8.35388 4.31293 8.70831 4.75015 8.70831H14.2501C14.6874 8.70831 15.0418 8.35388 15.0418 7.91665C15.0418 7.47943 14.6874 7.125 14.2501 7.125Z" fill="white"/>
<path d="M14.2501 10.2917H4.75015C4.31293 10.2917 3.9585 10.6462 3.9585 11.0834C3.9585 11.5206 4.31293 11.8751 4.75015 11.8751H14.2501C14.6874 11.8751 15.0418 11.5206 15.0418 11.0834C15.0418 10.6462 14.6874 10.2917 14.2501 10.2917Z" fill="white"/>
<path d="M11.8752 13.4583H7.12515C6.68793 13.4583 6.3335 13.8127 6.3335 14.2499C6.3335 14.6871 6.68793 15.0416 7.12515 15.0416H11.8752C12.3124 15.0416 12.6668 14.6871 12.6668 14.2499C12.6668 13.8127 12.3124 13.4583 11.8752 13.4583Z" fill="white"/>
</g>
<defs>
<clipPath id="clip0_723_455">
<rect width="19" height="19" fill="white"/>
</clipPath>
</defs>
</svg>
