<svg width="29" height="24" viewBox="0 0 29 24" fill="none" xmlns="http://www.w3.org/2000/svg">
<path d="M14.5 18.0749H14.515M14.5 11.8659H14.515M14.5 5.65679H14.515M28 14.9704V19.6272C28 21.3418 26.6569 22.7317 25 22.7317H4C2.34314 22.7317 1 21.3418 1 19.6272V14.9704C2.65686 14.9704 4 13.5805 4 11.8659C4 10.1512 2.65686 8.76132 1 8.76132V4.10453C1 2.38994 2.34314 1 4 1H25C26.6569 1 28 2.38994 28 4.10453V8.76132C26.3431 8.76132 25 10.1512 25 11.8659C25 13.5805 26.3431 14.9704 28 14.9704Z" stroke="white" stroke-width="2" stroke-linecap="round" stroke-linejoin="round"/>
</svg>
