<svg width="35" height="29" viewBox="0 0 35 29" fill="none" xmlns="http://www.w3.org/2000/svg">
<path d="M1 14.2C1 7.97745 1 4.8662 2.93309 2.93309C4.8662 1 7.97745 1 14.2 1H20.8C27.0225 1 30.1339 1 32.0669 2.93309C34 4.8662 34 7.97745 34 14.2C34 20.4225 34 23.5339 32.0669 25.4669C30.1339 27.4 27.0225 27.4 20.8 27.4H14.2C7.97745 27.4 4.8662 27.4 2.93309 25.4669C1 23.5339 1 20.4225 1 14.2Z" fill="url(#paint0_linear_257_2336)" stroke="white" stroke-width="2"/>
<path d="M14.2 20.8H7.60001H14.2Z" fill="url(#paint1_linear_257_2336)"/>
<path d="M14.2 20.8H7.60001" stroke="white" stroke-width="2" stroke-linecap="round"/>
<path d="M20.8 20.8H18.325H20.8Z" fill="url(#paint2_linear_257_2336)"/>
<path d="M20.8 20.8H18.325" stroke="white" stroke-width="2" stroke-linecap="round"/>
<path d="M1 10.8999H34H1Z" fill="url(#paint3_linear_257_2336)"/>
<path d="M1 10.8999H34" stroke="white" stroke-width="2" stroke-linecap="round"/>
<defs>
<linearGradient id="paint0_linear_257_2336" x1="17.5" y1="1" x2="17.5" y2="27.4" gradientUnits="userSpaceOnUse">
<stop stop-color="#0198FE"/>
<stop offset="1" stop-color="#2574DA"/>
</linearGradient>
<linearGradient id="paint1_linear_257_2336" x1="10.9" y1="20.8" x2="10.9" y2="21.8" gradientUnits="userSpaceOnUse">
<stop stop-color="#0198FE"/>
<stop offset="1" stop-color="#2574DA"/>
</linearGradient>
<linearGradient id="paint2_linear_257_2336" x1="19.5625" y1="20.8" x2="19.5625" y2="21.8" gradientUnits="userSpaceOnUse">
<stop stop-color="#0198FE"/>
<stop offset="1" stop-color="#2574DA"/>
</linearGradient>
<linearGradient id="paint3_linear_257_2336" x1="17.5" y1="10.8999" x2="17.5" y2="11.8999" gradientUnits="userSpaceOnUse">
<stop stop-color="#0198FE"/>
<stop offset="1" stop-color="#2574DA"/>
</linearGradient>
</defs>
</svg>
