<svg width="29" height="29" viewBox="0 0 29 29" fill="none" xmlns="http://www.w3.org/2000/svg">
<g clip-path="url(#clip0_257_2341)">
<path d="M26.5833 4.28953V8.45828C26.5833 8.77875 26.456 9.08609 26.2294 9.3127C26.0028 9.53931 25.6955 9.66661 25.375 9.66661H21.1458C20.9707 9.6686 20.7972 9.63248 20.6374 9.56075C20.4776 9.48903 20.3353 9.38342 20.2203 9.25124C20.1054 9.11906 20.0206 8.96347 19.9717 8.79525C19.9229 8.62704 19.9112 8.45021 19.9375 8.27703C19.9943 7.98391 20.1527 7.72022 20.3848 7.53236C20.6168 7.34449 20.9077 7.24449 21.2063 7.24995H22.5958C21.1884 5.6826 19.3561 4.55774 17.3215 4.01205C15.2869 3.46635 13.1376 3.5233 11.1348 4.17598C9.13193 4.82867 7.36176 6.04899 6.03933 7.68867C4.7169 9.32835 3.89914 11.3168 3.68542 13.4124C3.65536 13.7115 3.51491 13.9887 3.29147 14.1898C3.06804 14.3909 2.77768 14.5015 2.47709 14.4999C2.30771 14.5008 2.14004 14.466 1.98496 14.3979C1.82989 14.3298 1.69087 14.2298 1.57693 14.1044C1.463 13.9791 1.37668 13.8312 1.32359 13.6704C1.2705 13.5095 1.25181 13.3393 1.26875 13.1708C1.52253 10.634 2.50053 8.22364 4.08615 6.22722C5.67177 4.23081 7.79811 2.73253 10.2116 1.91105C12.6251 1.08956 15.224 0.979527 17.6983 1.59407C20.1726 2.20861 22.418 3.52179 24.1667 5.37703V4.22911C24.1647 4.05396 24.2008 3.88047 24.2725 3.72066C24.3443 3.56086 24.4499 3.41856 24.582 3.30362C24.7142 3.18868 24.8698 3.10385 25.038 3.05501C25.2062 3.00618 25.3831 2.99449 25.5563 3.02078C25.8494 3.0776 26.1131 3.23598 26.3009 3.46805C26.4888 3.70012 26.5888 3.991 26.5833 4.28953Z" fill="white"/>
<path d="M2.41665 24.7104V20.5417C2.41665 20.2212 2.54396 19.9139 2.77057 19.6873C2.99717 19.4607 3.30452 19.3333 3.62499 19.3333H7.85415C8.02931 19.3314 8.2028 19.3675 8.3626 19.4392C8.52241 19.5109 8.66471 19.6165 8.77965 19.7487C8.89459 19.8809 8.97942 20.0365 9.02825 20.2047C9.07709 20.3729 9.08877 20.5498 9.06249 20.7229C9.00567 21.0161 8.84729 21.2797 8.61522 21.4676C8.38315 21.6555 8.09226 21.7555 7.79374 21.75H6.40415C7.81156 23.3174 9.64388 24.4422 11.6785 24.9879C13.7131 25.5336 15.8624 25.4767 17.8652 24.824C19.8681 24.1713 21.6382 22.951 22.9607 21.3113C24.2831 19.6716 25.1008 17.6832 25.3146 15.5875C25.3446 15.2884 25.4851 15.0113 25.7085 14.8102C25.9319 14.6091 26.2223 14.4985 26.5229 14.5C26.6923 14.4992 26.8599 14.5339 27.015 14.6021C27.1701 14.6702 27.3091 14.7702 27.4231 14.8955C27.537 15.0209 27.6233 15.1687 27.6764 15.3296C27.7295 15.4904 27.7482 15.6606 27.7312 15.8292C27.4775 18.366 26.4995 20.7763 24.9138 22.7727C23.3282 24.7692 21.2019 26.2674 18.7884 27.0889C16.3749 27.9104 13.776 28.0204 11.3017 27.4059C8.82739 26.7914 6.58202 25.4782 4.83332 23.6229V24.7708C4.8353 24.946 4.79918 25.1195 4.72746 25.2793C4.65574 25.4391 4.55013 25.5814 4.41795 25.6963C4.28577 25.8113 4.13018 25.8961 3.96196 25.945C3.79374 25.9938 3.61692 26.0055 3.44374 25.9792C3.15062 25.9224 2.88693 25.764 2.69906 25.5319C2.5112 25.2998 2.4112 25.009 2.41665 24.7104Z" fill="white"/>
<path d="M14.9229 13.2916C12.8083 12.8687 12.8083 12.5062 12.8083 12.2041C12.8083 11.902 12.9291 11.8416 13.1104 11.6603C13.4437 11.4811 13.8201 11.3975 14.1979 11.4187C14.8999 11.4126 15.5899 11.6008 16.1916 11.9624C16.314 12.0622 16.4565 12.1342 16.6095 12.1734C16.7624 12.2125 16.922 12.2179 17.0772 12.1892C17.2325 12.1604 17.3796 12.0982 17.5083 12.0069C17.6371 11.9156 17.7444 11.7973 17.8229 11.6603C17.9265 11.5368 18.0028 11.3928 18.0471 11.2378C18.0913 11.0828 18.1023 10.9202 18.0795 10.7606C18.0567 10.601 18.0006 10.448 17.9147 10.3115C17.8289 10.1751 17.7152 10.0583 17.5812 9.96867C17.0067 9.61406 16.3718 9.36829 15.7083 9.24367V7.85409C15.7083 7.53362 15.581 7.22627 15.3544 6.99966C15.1278 6.77306 14.8204 6.64575 14.5 6.64575C14.1795 6.64575 13.8722 6.77306 13.6456 6.99966C13.419 7.22627 13.2916 7.53362 13.2916 7.85409V9.18325C11.4791 9.48534 10.2708 10.6937 10.2708 12.3249C10.2708 13.9562 12.2646 15.2853 14.1979 15.6478C16.1312 16.0103 16.1916 16.4333 16.1916 16.7353C16.1916 17.0374 15.5271 17.5812 14.6812 17.5812C13.7917 17.5987 12.9211 17.3227 12.2041 16.7958C12.0699 16.7065 11.9191 16.645 11.7607 16.6149C11.6024 16.5848 11.4395 16.5867 11.2819 16.6204C11.1243 16.6542 10.975 16.7192 10.8428 16.8116C10.7107 16.9039 10.5984 17.0218 10.5125 17.1583C10.4172 17.2716 10.3461 17.4031 10.3035 17.5449C10.2608 17.6867 10.2476 17.8357 10.2646 17.9827C10.2815 18.1298 10.3283 18.2719 10.4021 18.4002C10.4759 18.5285 10.5752 18.6404 10.6937 18.7291C11.4711 19.2747 12.3574 19.6457 13.2916 19.8166V21.1458C13.2916 21.4662 13.419 21.7736 13.6456 22.0002C13.8722 22.2268 14.1795 22.3541 14.5 22.3541C14.8204 22.3541 15.1278 22.2268 15.3544 22.0002C15.581 21.7736 15.7083 21.4662 15.7083 21.1458V19.8166C16.3711 19.7188 16.9963 19.4479 17.5208 19.0312C17.8995 18.7531 18.2066 18.389 18.4168 17.9687C18.6269 17.5485 18.734 17.0843 18.7291 16.6145C18.7291 14.3791 16.675 13.6541 14.9229 13.2916Z" fill="white"/>
</g>
<defs>
<clipPath id="clip0_257_2341">
<rect width="29" height="29" fill="white"/>
</clipPath>
</defs>
</svg>
