<svg width="37" height="25" viewBox="0 0 37 25" fill="none" xmlns="http://www.w3.org/2000/svg">
<path d="M35.2273 0H1.13636C0.454545 0 0 0.454545 0 1.13636V23.8636C0 24.5455 0.454545 25 1.13636 25H35.2273C35.9091 25 36.3636 24.5455 36.3636 23.8636V1.13636C36.3636 0.454545 35.9091 0 35.2273 0ZM32.9545 17.0455C32.9545 17.7273 32.5 18.1818 31.8182 18.1818C30.5682 18.1818 29.5455 19.2045 29.5455 20.4545C29.5455 21.1364 29.0909 21.5909 28.4091 21.5909H7.95455C7.27273 21.5909 6.81818 21.1364 6.81818 20.4545C6.81818 19.2045 5.79545 18.1818 4.54545 18.1818C3.86364 18.1818 3.40909 17.7273 3.40909 17.0455V7.95455C3.40909 7.27273 3.86364 6.81818 4.54545 6.81818C5.79545 6.81818 6.81818 5.79545 6.81818 4.54545C6.81818 3.86364 7.27273 3.40909 7.95455 3.40909H28.4091C29.0909 3.40909 29.5455 3.86364 29.5455 4.54545C29.5455 5.79545 30.5682 6.81818 31.8182 6.81818C32.5 6.81818 32.9545 7.27273 32.9545 7.95455V17.0455Z" fill="url(#paint0_linear_257_2331)"/>
<path d="M18.1818 18.1818C20.6922 18.1818 22.7273 15.6379 22.7273 12.4999C22.7273 9.36195 20.6922 6.81812 18.1818 6.81812C15.6714 6.81812 13.6364 9.36195 13.6364 12.4999C13.6364 15.6379 15.6714 18.1818 18.1818 18.1818Z" fill="url(#paint1_linear_257_2331)"/>
<defs>
<linearGradient id="paint0_linear_257_2331" x1="18.1818" y1="0" x2="18.1818" y2="25" gradientUnits="userSpaceOnUse">
<stop stop-color="#0198FE"/>
<stop offset="1" stop-color="#2574DA"/>
</linearGradient>
<linearGradient id="paint1_linear_257_2331" x1="18.1818" y1="6.81812" x2="18.1818" y2="18.1818" gradientUnits="userSpaceOnUse">
<stop stop-color="#0198FE"/>
<stop offset="1" stop-color="#2574DA"/>
</linearGradient>
</defs>
</svg>
