<svg width="52" height="6" viewBox="0 0 52 6" fill="none" xmlns="http://www.w3.org/2000/svg">
<path d="M-1.0252e-05 2.66675C-1.0252e-05 4.13951 1.1939 5.33341 2.66666 5.33341C4.13942 5.33341 5.33332 4.13951 5.33332 2.66675C5.33332 1.19399 4.13942 8.13007e-05 2.66666 8.13007e-05C1.1939 8.13007e-05 -1.0252e-05 1.19399 -1.0252e-05 2.66675ZM46 2.66675C46 4.13951 47.1939 5.33341 48.6667 5.33341C50.1394 5.33341 51.3333 4.13951 51.3333 2.66675C51.3333 1.19399 50.1394 8.13007e-05 48.6667 8.13007e-05C47.1939 8.13007e-05 46 1.19399 46 2.66675ZM2.66666 2.66675V3.16675H48.6667V2.66675V2.16675H2.66666V2.66675Z" fill="#2D2D2D"/>
</svg>
