<svg width="18" height="18" viewBox="0 0 18 18" fill="none" xmlns="http://www.w3.org/2000/svg">
<g clip-path="url(#clip0_503_4110)">
<path d="M4.19027 0C1.89872 0 1.04757 0.757031 1.04757 2.79351V14.3168C1.04757 14.7914 1.1867 15.1338 1.39676 15.3861V16.4119C1.39676 16.9889 1.86734 17.4595 2.44432 17.4595H3.84108C4.41806 17.4595 4.88865 16.9889 4.88865 16.4119V16.0627H12.5708V16.4119C12.5708 16.9889 13.0414 17.4595 13.6184 17.4595H15.0151C15.5921 17.4595 16.0627 16.9889 16.0627 16.4119V15.3861C16.2728 15.1338 16.4119 14.7914 16.4119 14.3168V3.1427C16.4119 1.62182 16.2237 0 13.9676 0H4.19027ZM5.23784 1.39676H12.5708C12.7645 1.39676 12.92 1.55362 12.92 1.74595V2.44432C12.92 2.63665 12.7645 2.79351 12.5708 2.79351H5.23784C5.04551 2.79351 4.88865 2.63665 4.88865 2.44432V1.74595C4.88865 1.55362 5.04551 1.39676 5.23784 1.39676ZM3.84108 3.84108H13.6184C14.3168 3.84108 14.6659 4.19027 14.6659 4.88865V9.07892C14.6659 9.7773 13.9839 10.1047 13.6184 10.1047L3.84108 10.1265C3.1427 10.1265 2.79351 9.7773 2.79351 9.07892V4.88865C2.79351 4.19027 3.1427 3.84108 3.84108 3.84108ZM0.698378 4.19027C0.313725 4.19027 0 4.50399 0 4.88865V7.68216C0 8.06682 0.313725 8.38054 0.698378 8.38054V4.19027ZM16.7611 4.19027V8.38054C17.1471 8.38054 17.4595 8.06682 17.4595 7.68216V4.88865C17.4595 4.50399 17.1471 4.19027 16.7611 4.19027ZM4.01568 11.8724C4.69087 11.8724 5.23784 12.4194 5.23784 13.0946C5.23784 13.7698 4.69087 14.3168 4.01568 14.3168C3.34049 14.3168 2.79351 13.7698 2.79351 13.0946C2.79351 12.4194 3.34049 11.8724 4.01568 11.8724ZM13.4438 11.8724C14.119 11.8724 14.6659 12.4194 14.6659 13.0946C14.6659 13.7698 14.119 14.3168 13.4438 14.3168C12.7686 14.3168 12.2216 13.7698 12.2216 13.0946C12.2216 12.4194 12.7686 11.8724 13.4438 11.8724Z" fill="white"/>
</g>
<defs>
<clipPath id="clip0_503_4110">
<rect width="17.4595" height="17.4595" fill="white"/>
</clipPath>
</defs>
</svg>
