<svg width="54" height="38" viewBox="0 0 54 38" fill="none" xmlns="http://www.w3.org/2000/svg">
<g clip-path="url(#clip0_471_925)">
<path style="mix-blend-mode:multiply" d="M56.8115 37.9999C85.636 37.9999 109.003 36.8476 109.003 35.4262C109.003 34.0048 85.636 32.8525 56.8115 32.8525C27.9871 32.8525 4.62024 34.0048 4.62024 35.4262C4.62024 36.8476 27.9871 37.9999 56.8115 37.9999Z" fill="url(#paint0_radial_471_925)"/>
<path style="mix-blend-mode:multiply" d="M20.123 36.3077C20.123 37.2144 22.9718 37.9493 26.486 37.9493C30.0002 37.9493 32.8519 37.2144 32.8519 36.3077C32.8519 35.401 30.0002 34.666 26.486 34.666C22.9718 34.666 20.123 35.401 20.123 36.3077Z" fill="url(#paint1_radial_471_925)"/>
<path style="mix-blend-mode:multiply" d="M23.3981 34.5083C23.3981 35.3305 25.9905 35.9979 29.1792 35.9979C32.3679 35.9979 34.9661 35.3305 34.9661 34.5083C34.9661 33.686 32.3736 33.0159 29.1849 33.0159C25.9963 33.0159 23.3981 33.6832 23.3981 34.5083Z" fill="url(#paint2_radial_471_925)"/>
<path d="M31.6959 33.193C33.768 31.1674 33.768 27.8833 31.6959 25.8578C29.6239 23.8322 26.2644 23.8322 24.1923 25.8578C22.1203 27.8833 22.1203 31.1674 24.1923 33.193C26.2644 35.2186 29.6239 35.2186 31.6959 33.193Z" fill="url(#paint3_radial_471_925)"/>
<path d="M23.2569 29.0288L22.5541 28.9499L22.6779 28.2713L23.3692 28.429C23.3837 28.3671 23.4009 28.3023 23.4182 28.2403L22.7384 28.0432L22.9804 27.3956L23.6314 27.6772C23.6573 27.618 23.689 27.5589 23.7178 27.5026L23.0812 27.1928L23.4355 26.5931L24.0116 26.9732C24.049 26.9197 24.0894 26.869 24.1297 26.8155L23.5536 26.4016L24.0087 25.8722L24.5243 26.3509L24.6655 26.2101L24.1787 25.7089L24.7202 25.264L25.1436 25.8272L25.3049 25.7117L24.9132 25.1485L25.5267 24.8022L25.8465 25.4217C25.9041 25.3935 25.9646 25.3625 26.025 25.3372L25.737 24.7036L26.4024 24.4671L26.604 25.1316C26.6674 25.1119 26.7336 25.0978 26.7999 25.081L26.6328 24.4051L27.327 24.2869L27.4106 24.9739C27.4739 24.9739 27.5402 24.9739 27.6064 24.9739L27.5661 24.2812H28.2718L28.2286 24.9739C28.2949 24.9739 28.3611 24.9739 28.4274 24.9739L28.5109 24.2869L29.2051 24.4051L29.0409 25.081C29.1043 25.0978 29.1705 25.1119 29.2339 25.1316L29.4384 24.4671L30.1009 24.7036L29.8129 25.3372C29.8734 25.3625 29.9339 25.3935 29.9943 25.4217L30.3112 24.8022L30.9247 25.1485L30.533 25.7117L30.6943 25.8272L31.1206 25.264L31.6621 25.7089L31.1725 26.2101L31.3136 26.3509L31.8292 25.8722L32.2843 26.4016L31.7082 26.8155C31.7485 26.869 31.7918 26.9197 31.8292 26.9732L32.4053 26.5931L32.7596 27.1928L32.123 27.5026C32.1547 27.5589 32.1835 27.618 32.2094 27.6772L32.8604 27.3956L33.1024 28.0432L32.4226 28.2403C32.4427 28.3023 32.4571 28.3671 32.4715 28.429L33.1657 28.2713L33.2867 28.9499L32.5839 29.0288C32.5839 29.0936 32.5839 29.1583 32.5983 29.2231L33.3069 29.1837V29.8735L32.5983 29.8313C32.5983 29.8961 32.5983 29.9608 32.5839 30.0256L33.2867 30.1073L33.2089 30.7859L32.5176 30.6226C32.5004 30.6873 32.486 30.7521 32.4658 30.814L33.1456 31.0111L32.9036 31.6616L32.2555 31.38L32.1691 31.5546L32.8028 31.8672L32.4485 32.4754L31.8724 32.0953C31.835 32.1488 31.7946 32.1994 31.7543 32.2529L32.3304 32.6669L31.8753 33.1963L31.3626 32.7176C31.3136 32.7654 31.2675 32.8133 31.2185 32.8584L31.7082 33.3624L31.1667 33.8073L30.7433 33.2441L30.582 33.3596L30.9708 33.9368L30.3573 34.2832L30.0404 33.6609C29.9828 33.689 29.9223 33.72 29.8618 33.7454L30.1499 34.3817L29.4874 34.6183L29.2857 33.9537L29.0899 34.0016L29.2541 34.6774L28.5599 34.7985L28.4792 34.1114L28.2776 34.1255L28.3208 34.8182H27.6151L27.6554 34.1255L27.4566 34.1114L27.376 34.7985L26.6818 34.6774L26.846 34.0016L26.6501 33.9537L26.4514 34.6183L25.786 34.3817L26.074 33.7454C26.0106 33.72 25.953 33.689 25.8925 33.6609L25.5757 34.2832L24.9622 33.9368L25.351 33.3596L25.1897 33.2441L24.7692 33.8073L24.2276 33.3624L24.7144 32.8584C24.6655 32.8133 24.6194 32.7654 24.5733 32.7176L24.0577 33.1963L23.6026 32.6669L24.1787 32.2529C24.1412 32.1994 24.098 32.1488 24.0606 32.0953L23.4441 32.4754L23.0898 31.8784L23.7264 31.5659C23.6947 31.5096 23.6659 31.4504 23.6371 31.3913L22.989 31.6729L22.7471 31.0224L23.4269 30.8253C23.4067 30.7634 23.3923 30.6986 23.375 30.6338L22.6866 30.7971L22.5627 30.1185L23.2656 30.0369C23.2656 29.9721 23.2656 29.9073 23.2656 29.8426L22.557 29.8848V29.1949L23.2656 29.2343C23.2483 29.1583 23.2512 29.0964 23.2569 29.0288Z" fill="url(#paint4_radial_471_925)"/>
<path d="M27.9435 25.8553C28.6835 25.858 29.406 26.0751 30.0199 26.479C30.6338 26.8829 31.1115 27.4556 31.3928 28.1247C31.674 28.7939 31.7461 29.5294 31.6 30.2386C31.4539 30.9478 31.0961 31.5987 30.5718 32.1093C30.0476 32.6198 29.3803 32.967 28.6543 33.1071C27.9283 33.2473 27.1762 33.1739 26.4928 32.8965C25.8094 32.619 25.2254 32.1498 24.8145 31.5481C24.4037 30.9464 24.1845 30.2393 24.1844 29.5159C24.1844 29.034 24.2818 28.5568 24.4709 28.1118C24.6599 27.6667 24.9371 27.2625 25.2863 26.9224C25.6356 26.5823 26.0501 26.313 26.506 26.1299C26.962 25.9467 27.4505 25.8534 27.9435 25.8553Z" fill="url(#paint5_radial_471_925)"/>
<path d="M38.3391 33.5311H45.4682L53.9397 32.8187V32.5681H37.1149L37.9185 33.3678C38.0311 33.4744 38.1823 33.5331 38.3391 33.5311Z" fill="#09090D"/>
<path d="M26.4197 1.60229L46.6262 1.60229C46.728 1.60229 46.8105 1.52161 46.8105 1.42208V1.27566C46.8105 1.17613 46.728 1.09544 46.6262 1.09544L26.4197 1.09544C26.3179 1.09544 26.2353 1.17613 26.2353 1.27566V1.42208C26.2353 1.52161 26.3179 1.60229 26.4197 1.60229Z" fill="url(#paint6_linear_471_925)"/>
<path d="M19.1378 32.9315L31.6938 32.3515V31.3068C31.6938 29.6787 31.0322 28.1174 29.8546 26.9662C28.677 25.815 27.0798 25.1682 25.4144 25.1682C23.7495 25.169 22.153 25.816 20.976 26.9672C19.799 28.1183 19.1378 29.6792 19.1378 31.3068V32.9315Z" fill="#09090D"/>
<path d="M32.3449 32.2191C32.2608 32.6843 32.2117 33.1549 32.198 33.6271C32.198 34.2381 32.3449 35.2237 32.3449 35.3307C32.3449 35.3842 32.0136 35.0491 31.9704 34.8886C31.8294 34.4452 31.7376 33.9883 31.6968 33.5257C31.5902 32.1516 32.1 31.7151 32.1 31.7151L32.3449 32.2191Z" fill="url(#paint7_linear_471_925)"/>
<path d="M7.99912 4.55319C8.4412 3.59938 9.15494 2.79022 10.055 2.22245C10.955 1.65468 12.0033 1.35234 13.0745 1.35156H102.836C103.721 1.35297 104.584 1.62833 105.299 2.13821C106.015 2.64808 106.547 3.36629 106.82 4.18995C107.609 6.54682 108.412 11.7928 108.412 19.0774V29.6594C108.413 30.0344 108.287 30.3991 108.054 30.6973C107.821 30.9955 107.495 31.2106 107.125 31.3095L100.171 33.1708H87.5664V31.301C87.5664 29.673 86.9049 28.1116 85.7272 26.9604C84.5496 25.8092 82.9524 25.1625 81.287 25.1625C79.6216 25.1625 78.0244 25.8092 76.8468 26.9604C75.6692 28.1116 75.0076 29.673 75.0076 31.301V33.1708H31.6939V31.301C31.6939 29.673 31.0323 28.1116 29.8547 26.9604C28.6771 25.8092 27.0799 25.1625 25.4145 25.1625C23.7495 25.1632 22.1531 25.8103 20.9761 26.9614C19.7991 28.1125 19.1379 29.6735 19.1379 31.301V33.1708H5.87333C5.62962 33.1713 5.39296 33.0909 5.20218 32.9427C4.51086 32.3936 3.23193 30.5379 3.23193 24.3487C3.23193 17.1035 6.10953 8.64182 7.99912 4.55319Z" fill="url(#paint8_linear_471_925)"/>
<path style="mix-blend-mode:multiply" d="M10.4187 2.01343V33.1765H5.87333C5.6308 33.1782 5.395 33.0987 5.20506 32.9513C4.51374 32.405 3.23193 30.555 3.23193 24.3544C3.23193 17.1036 6.11241 8.64195 7.99912 4.55333C8.49873 3.4701 9.34896 2.57761 10.4187 2.01343Z" fill="url(#paint9_linear_471_925)"/>
<path style="mix-blend-mode:hard-light" d="M3.81091 25.1681H7.58721L9.94344 4.86011H7.737L4.83924 13.9553L3.81091 25.1681Z" fill="url(#paint10_linear_471_925)"/>
<path d="M8.52048 3.66333C8.60661 4.09449 8.52439 4.54155 8.29004 4.91639C7.64482 5.95544 6.29964 9.34855 5.32892 15.3351C4.86431 18.1302 4.5872 20.9521 4.49934 23.7826C4.49811 23.8636 4.46902 23.9418 4.41676 24.0046C4.36451 24.0675 4.29213 24.1113 4.21129 24.129L3.23193 24.3571C3.23193 17.1034 5.62561 7.13247 8.52048 3.66333Z" fill="url(#paint11_linear_471_925)"/>
<path d="M18.6309 2.50323H101.747C102.77 2.50355 103.758 2.87151 104.521 3.53711C105.285 4.20272 105.772 5.11954 105.889 6.11317L106.482 11.7899C106.546 12.3189 106.578 12.8511 106.578 13.3837V13.7385C106.578 13.8214 106.561 13.9036 106.529 13.9803C106.497 14.057 106.449 14.1267 106.389 14.1853C106.329 14.244 106.258 14.2904 106.18 14.322C106.101 14.3536 106.017 14.3696 105.932 14.3693H22.7068L18.3861 2.84396C18.3709 2.80555 18.3657 2.7641 18.3708 2.72324C18.3759 2.68239 18.3913 2.64341 18.4155 2.60973C18.4397 2.57605 18.472 2.54872 18.5096 2.53014C18.5471 2.51157 18.5888 2.50233 18.6309 2.50323Z" fill="url(#paint12_linear_471_925)"/>
<path style="mix-blend-mode:soft-light" d="M18.6309 2.50335H101.741C102.902 2.50559 104.014 2.95781 104.834 3.76077C105.653 4.56374 106.114 5.65184 106.114 6.78627L106.566 12.0632C106.566 12.2969 103.838 11.8379 103.452 11.8971C102.571 12.035 97.36 12.1786 96.2251 12.2237C95.0902 12.2687 87.7825 12.4208 85.9044 12.1589C83.8276 11.8773 80.3883 12.2237 79.5299 12.2237C78.6715 12.2237 66.0551 12.0435 65.2572 12.035C64.4593 12.0266 58.3988 12.142 57.7823 12.035C57.1659 11.928 53.8764 12.2716 51.8255 12.2237C49.7746 12.1758 36.6886 12.1139 35.3867 12.1702C34.0847 12.2265 30.1154 11.8464 28.7039 11.8886C27.5374 11.9308 23.931 12.035 21.8628 11.8576L18.3832 2.84689C18.3673 2.80812 18.3616 2.76608 18.3666 2.72461C18.3716 2.68313 18.3871 2.64353 18.4117 2.6094C18.4363 2.57526 18.4693 2.54768 18.5075 2.52916C18.5458 2.51064 18.5882 2.50177 18.6309 2.50335Z" fill="url(#paint13_linear_471_925)"/>
<path style="mix-blend-mode:hard-light" d="M47.7871 2.50336V14.3694H48.006V2.50336H47.7871Z" fill="url(#paint14_linear_471_925)"/>
<path style="mix-blend-mode:soft-light" d="M48.0031 2.50605V14.3721H48.222V2.50605H48.0031Z" fill="url(#paint15_linear_471_925)"/>
<path style="mix-blend-mode:hard-light" d="M33.6583 2.50605V14.3721H33.8772V2.50605H33.6583Z" fill="url(#paint16_linear_471_925)"/>
<path style="mix-blend-mode:soft-light" d="M33.8772 2.50336V14.3694H34.0961V2.50336H33.8772Z" fill="url(#paint17_linear_471_925)"/>
<path style="mix-blend-mode:hard-light" d="M3.31543 26.9589L6.33129 25.9734L6.36009 26.0579L3.32695 27.0603L3.31543 26.9589Z" fill="url(#paint18_linear_471_925)"/>
<path style="mix-blend-mode:multiply" d="M3.3125 26.866L6.30243 25.8889L6.33124 25.9734L3.31538 26.9589L3.3125 26.866Z" fill="url(#paint19_linear_471_925)"/>
<g style="mix-blend-mode:multiply">
<path d="M17.954 26.6099H18.9276C18.9976 26.6099 19.0543 26.5544 19.0543 26.486V26.1058C19.0543 26.0374 18.9976 25.9819 18.9276 25.9819H17.954C17.884 25.9819 17.8272 26.0374 17.8272 26.1058V26.486C17.8272 26.5544 17.884 26.6099 17.954 26.6099Z" fill="white"/>
</g>
<g style="mix-blend-mode:multiply">
<path d="M18.9247 25.9846H17.9626C17.8942 25.9846 17.8387 26.0388 17.8387 26.1057V26.4802C17.8387 26.5471 17.8942 26.6013 17.9626 26.6013H18.9247C18.9931 26.6013 19.0485 26.5471 19.0485 26.4802V26.1057C19.0485 26.0388 18.9931 25.9846 18.9247 25.9846Z" fill="#F8F8F8"/>
</g>
<g style="mix-blend-mode:multiply">
<path d="M18.916 25.9875H17.9655C17.8986 25.9875 17.8445 26.0405 17.8445 26.1058V26.4747C17.8445 26.54 17.8986 26.593 17.9655 26.593H18.916C18.9828 26.593 19.037 26.54 19.037 26.4747V26.1058C19.037 26.0405 18.9828 25.9875 18.916 25.9875Z" fill="#F1F1F1"/>
</g>
<g style="mix-blend-mode:multiply">
<path d="M18.9074 25.9905H17.9741C17.9073 25.9905 17.8531 26.0434 17.8531 26.1087V26.4664C17.8531 26.5317 17.9073 26.5846 17.9741 26.5846H18.9074C18.9742 26.5846 19.0284 26.5317 19.0284 26.4664V26.1087C19.0284 26.0434 18.9742 25.9905 18.9074 25.9905Z" fill="#EAEAEA"/>
</g>
<g style="mix-blend-mode:multiply">
<path d="M18.8987 25.9961H17.977C17.9118 25.9961 17.8589 26.0478 17.8589 26.1115V26.4635C17.8589 26.5273 17.9118 26.579 17.977 26.579H18.8987C18.964 26.579 19.0168 26.5273 19.0168 26.4635V26.1115C19.0168 26.0478 18.964 25.9961 18.8987 25.9961Z" fill="#E2E2E2"/>
</g>
<g style="mix-blend-mode:multiply">
<path d="M18.893 25.9988H17.9828C17.9191 25.9988 17.8676 26.0492 17.8676 26.1114V26.4578C17.8676 26.52 17.9191 26.5704 17.9828 26.5704H18.893C18.9566 26.5704 19.0082 26.52 19.0082 26.4578V26.1114C19.0082 26.0492 18.9566 25.9988 18.893 25.9988Z" fill="#DBDBDB"/>
</g>
<g style="mix-blend-mode:multiply">
<path d="M18.8873 26.0017H17.9886C17.9265 26.0017 17.8762 26.0509 17.8762 26.1115V26.4522C17.8762 26.5129 17.9265 26.5621 17.9886 26.5621H18.8873C18.9493 26.5621 18.9996 26.5129 18.9996 26.4522V26.1115C18.9996 26.0509 18.9493 26.0017 18.8873 26.0017Z" fill="#D4D4D4"/>
</g>
<g style="mix-blend-mode:multiply">
<path d="M18.8757 26.0073H17.9943C17.9323 26.0073 17.882 26.0565 17.882 26.1171V26.4466C17.882 26.5072 17.9323 26.5564 17.9943 26.5564H18.8757C18.9378 26.5564 18.9881 26.5072 18.9881 26.4466V26.1171C18.9881 26.0565 18.9378 26.0073 18.8757 26.0073Z" fill="#CDCDCD"/>
</g>
<g style="mix-blend-mode:multiply">
<path d="M18.87 26.01H18.0001C17.9396 26.01 17.8906 26.0579 17.8906 26.117V26.4437C17.8906 26.5027 17.9396 26.5507 18.0001 26.5507H18.87C18.9304 26.5507 18.9794 26.5027 18.9794 26.4437V26.117C18.9794 26.0579 18.9304 26.01 18.87 26.01Z" fill="#C6C6C6"/>
</g>
<g style="mix-blend-mode:multiply">
<path d="M18.8643 26.0129H18.0059C17.947 26.0129 17.8993 26.0596 17.8993 26.1171V26.4381C17.8993 26.4957 17.947 26.5423 18.0059 26.5423H18.8643C18.9231 26.5423 18.9708 26.4957 18.9708 26.4381V26.1171C18.9708 26.0596 18.9231 26.0129 18.8643 26.0129Z" fill="#BFBFBF"/>
</g>
<g style="mix-blend-mode:multiply">
<path d="M18.8527 26.0156H18.0116C17.9527 26.0156 17.905 26.0623 17.905 26.1198V26.4296C17.905 26.4871 17.9527 26.5337 18.0116 26.5337H18.8527C18.9116 26.5337 18.9593 26.4871 18.9593 26.4296V26.1198C18.9593 26.0623 18.9116 26.0156 18.8527 26.0156Z" fill="#B8B8B8"/>
</g>
<g style="mix-blend-mode:multiply">
<path d="M18.847 26.0212H18.0174C17.9601 26.0212 17.9137 26.0666 17.9137 26.1226V26.4267C17.9137 26.4827 17.9601 26.5281 18.0174 26.5281H18.847C18.9042 26.5281 18.9507 26.4827 18.9507 26.4267V26.1226C18.9507 26.0666 18.9042 26.0212 18.847 26.0212Z" fill="#B0B0B0"/>
</g>
<g style="mix-blend-mode:multiply">
<path d="M18.8383 26.0242H18.0203C17.9646 26.0242 17.9194 26.0683 17.9194 26.1227V26.4212C17.9194 26.4756 17.9646 26.5198 18.0203 26.5198H18.8383C18.894 26.5198 18.9391 26.4756 18.9391 26.4212V26.1227C18.9391 26.0683 18.894 26.0242 18.8383 26.0242Z" fill="#A9A9A9"/>
</g>
<g style="mix-blend-mode:multiply">
<path d="M18.8297 26.0269H18.0289C17.9732 26.0269 17.9281 26.071 17.9281 26.1254V26.4126C17.9281 26.4671 17.9732 26.5112 18.0289 26.5112H18.8297C18.8854 26.5112 18.9305 26.4671 18.9305 26.4126V26.1254C18.9305 26.071 18.8854 26.0269 18.8297 26.0269Z" fill="#A2A2A2"/>
</g>
<g style="mix-blend-mode:multiply">
<path d="M18.824 26.0298H18.0347C17.9806 26.0298 17.9368 26.0726 17.9368 26.1255V26.4071C17.9368 26.46 17.9806 26.5028 18.0347 26.5028H18.824C18.878 26.5028 18.9219 26.46 18.9219 26.4071V26.1255C18.9219 26.0726 18.878 26.0298 18.824 26.0298Z" fill="#9B9B9B"/>
</g>
<g style="mix-blend-mode:multiply">
<path d="M18.8153 26.0354H18.0376C17.9851 26.0354 17.9425 26.077 17.9425 26.1283V26.4043C17.9425 26.4556 17.9851 26.4972 18.0376 26.4972H18.8153C18.8678 26.4972 18.9103 26.4556 18.9103 26.4043V26.1283C18.9103 26.077 18.8678 26.0354 18.8153 26.0354Z" fill="#949494"/>
</g>
<g style="mix-blend-mode:multiply">
<path d="M18.0433 26.0381H18.8095C18.834 26.0381 18.8574 26.0476 18.8747 26.0645C18.892 26.0814 18.9017 26.1043 18.9017 26.1282V26.3957C18.9017 26.4196 18.892 26.4426 18.8747 26.4595C18.8574 26.4764 18.834 26.4859 18.8095 26.4859H18.0433C18.0181 26.4859 17.9939 26.4761 17.9761 26.4586C17.9583 26.4412 17.9482 26.4176 17.9482 26.3929V26.1254C17.9486 26.1136 17.9514 26.1019 17.9563 26.0911C17.9613 26.0804 17.9684 26.0706 17.9773 26.0625C17.9861 26.0544 17.9965 26.0481 18.0078 26.0439C18.0191 26.0397 18.0312 26.0378 18.0433 26.0381Z" fill="#8D8D8D"/>
</g>
<g style="mix-blend-mode:multiply">
<path d="M18.8008 26.041H18.0519C18.001 26.041 17.9597 26.0814 17.9597 26.1311V26.3902C17.9597 26.4399 18.001 26.4803 18.0519 26.4803H18.8008C18.8517 26.4803 18.893 26.4399 18.893 26.3902V26.1311C18.893 26.0814 18.8517 26.041 18.8008 26.041Z" fill="#868686"/>
</g>
<g style="mix-blend-mode:multiply">
<path d="M18.7921 26.0466H18.0547C18.0054 26.0466 17.9655 26.0857 17.9655 26.1339V26.3873C17.9655 26.4356 18.0054 26.4746 18.0547 26.4746H18.7921C18.8415 26.4746 18.8814 26.4356 18.8814 26.3873V26.1339C18.8814 26.0857 18.8415 26.0466 18.7921 26.0466Z" fill="#7E7E7E"/>
</g>
<g style="mix-blend-mode:multiply">
<path d="M18.7893 26.0496H18.0605C18.0128 26.0496 17.9741 26.0874 17.9741 26.134V26.3818C17.9741 26.4285 18.0128 26.4663 18.0605 26.4663H18.7893C18.837 26.4663 18.8757 26.4285 18.8757 26.3818V26.134C18.8757 26.0874 18.837 26.0496 18.7893 26.0496Z" fill="#777777"/>
</g>
<g style="mix-blend-mode:multiply">
<path d="M18.7778 26.0522H18.0663C18.0185 26.0522 17.9799 26.0901 17.9799 26.1367V26.3733C17.9799 26.4199 18.0185 26.4577 18.0663 26.4577H18.7778C18.8255 26.4577 18.8642 26.4199 18.8642 26.3733V26.1367C18.8642 26.0901 18.8255 26.0522 18.7778 26.0522Z" fill="#707070"/>
</g>
<g style="mix-blend-mode:multiply">
<path d="M18.0692 26.4521H18.7691C18.8153 26.4521 18.8527 26.4156 18.8527 26.3705V26.1396C18.8527 26.0945 18.8153 26.0579 18.7691 26.0579H18.0692C18.023 26.0579 17.9856 26.0945 17.9856 26.1396V26.3705C17.9856 26.4156 18.023 26.4521 18.0692 26.4521Z" fill="#696969"/>
</g>
<path d="M18.0058 26.5254H18.9074C18.9678 26.5254 19.0168 26.4775 19.0168 26.4184V26.1058C19.0168 26.0467 18.9678 25.9988 18.9074 25.9988H18.0058C17.9453 25.9988 17.8963 26.0467 17.8963 26.1058V26.4184C17.8963 26.4775 17.9453 26.5254 18.0058 26.5254Z" fill="#B74700"/>
<path d="M18.9046 25.9988H18.0059C17.947 25.9988 17.8993 26.0454 17.8993 26.103V26.4043C17.8993 26.4618 17.947 26.5084 18.0059 26.5084H18.9046C18.9634 26.5084 19.0112 26.4618 19.0112 26.4043V26.103C19.0112 26.0454 18.9634 25.9988 18.9046 25.9988Z" fill="#B94A00"/>
<path d="M18.9016 26.0017H18.0087C17.9498 26.0017 17.9021 26.0484 17.9021 26.1059V26.3903C17.9021 26.4478 17.9498 26.4945 18.0087 26.4945H18.9016C18.9605 26.4945 19.0082 26.4478 19.0082 26.3903V26.1059C19.0082 26.0484 18.9605 26.0017 18.9016 26.0017Z" fill="#BB4D00"/>
<path d="M18.9017 26.0017H18.0087C17.9515 26.0017 17.905 26.0471 17.905 26.1031V26.379C17.905 26.435 17.9515 26.4804 18.0087 26.4804H18.9017C18.9589 26.4804 19.0054 26.435 19.0054 26.379V26.1031C19.0054 26.0471 18.9589 26.0017 18.9017 26.0017Z" fill="#BC5000"/>
<path d="M18.9017 26.0044H18.0116C17.9559 26.0044 17.9108 26.0485 17.9108 26.1029V26.3676C17.9108 26.4221 17.9559 26.4662 18.0116 26.4662H18.9017C18.9573 26.4662 19.0025 26.4221 19.0025 26.3676V26.1029C19.0025 26.0485 18.9573 26.0044 18.9017 26.0044Z" fill="#BE5300"/>
<path d="M18.9017 26.0044H18.0116C17.9575 26.0044 17.9137 26.0473 17.9137 26.1001V26.3536C17.9137 26.4064 17.9575 26.4493 18.0116 26.4493H18.9017C18.9558 26.4493 18.9996 26.4064 18.9996 26.3536V26.1001C18.9996 26.0473 18.9558 26.0044 18.9017 26.0044Z" fill="#C05600"/>
<path d="M18.8987 26.0073H18.0116C17.9591 26.0073 17.9165 26.0489 17.9165 26.1002V26.3452C17.9165 26.3965 17.9591 26.4382 18.0116 26.4382H18.8987C18.9512 26.4382 18.9938 26.3965 18.9938 26.3452V26.1002C18.9938 26.0489 18.9512 26.0073 18.8987 26.0073Z" fill="#C25900"/>
<path d="M18.8959 26.0073H18.0145C17.962 26.0073 17.9194 26.0489 17.9194 26.1002V26.3283C17.9194 26.3797 17.962 26.4213 18.0145 26.4213H18.8959C18.9484 26.4213 18.991 26.3797 18.991 26.3283V26.1002C18.991 26.0489 18.9484 26.0073 18.8959 26.0073Z" fill="#C45C00"/>
<path d="M18.896 26.01H18.0145C17.9636 26.01 17.9224 26.0504 17.9224 26.1001V26.3198C17.9224 26.3695 17.9636 26.4099 18.0145 26.4099H18.896C18.9469 26.4099 18.9881 26.3695 18.9881 26.3198V26.1001C18.9881 26.0504 18.9469 26.01 18.896 26.01Z" fill="#C55F00"/>
<path d="M18.8959 26.01H18.0174C17.9681 26.01 17.9281 26.0491 17.9281 26.0973V26.3057C17.9281 26.3539 17.9681 26.393 18.0174 26.393H18.8959C18.9453 26.393 18.9852 26.3539 18.9852 26.3057V26.0973C18.9852 26.0491 18.9453 26.01 18.8959 26.01Z" fill="#C76200"/>
<path d="M18.8959 26.0129H18.0173C17.9696 26.0129 17.9309 26.0508 17.9309 26.0974V26.2945C17.9309 26.3412 17.9696 26.379 18.0173 26.379H18.8959C18.9436 26.379 18.9823 26.3412 18.9823 26.2945V26.0974C18.9823 26.0508 18.9436 26.0129 18.8959 26.0129Z" fill="#C96500"/>
<path d="M18.8959 26.0129H18.0174C17.9712 26.0129 17.9338 26.0495 17.9338 26.0946V26.2833C17.9338 26.3284 17.9712 26.3649 18.0174 26.3649H18.8959C18.9421 26.3649 18.9795 26.3284 18.9795 26.2833V26.0946C18.9795 26.0495 18.9421 26.0129 18.8959 26.0129Z" fill="#CB6800"/>
<path d="M18.8902 26.0156H18.0203C17.9742 26.0156 17.9368 26.0522 17.9368 26.0973V26.2691C17.9368 26.3142 17.9742 26.3507 18.0203 26.3507H18.8902C18.9363 26.3507 18.9737 26.3142 18.9737 26.2691V26.0973C18.9737 26.0522 18.9363 26.0156 18.8902 26.0156Z" fill="#CD6B00"/>
<path d="M18.8901 26.0156H18.0202C17.9757 26.0156 17.9396 26.0509 17.9396 26.0945V26.255C17.9396 26.2985 17.9757 26.3338 18.0202 26.3338H18.8901C18.9347 26.3338 18.9708 26.2985 18.9708 26.255V26.0945C18.9708 26.0509 18.9347 26.0156 18.8901 26.0156Z" fill="#CF6E00"/>
<path d="M18.8902 26.0186H18.0203C17.9773 26.0186 17.9425 26.0526 17.9425 26.0946V26.2466C17.9425 26.2886 17.9773 26.3227 18.0203 26.3227H18.8902C18.9331 26.3227 18.968 26.2886 18.968 26.2466V26.0946C18.968 26.0526 18.9331 26.0186 18.8902 26.0186Z" fill="#D07100"/>
<path d="M18.8902 26.0186H18.0231C17.9818 26.0186 17.9482 26.0513 17.9482 26.0918V26.2326C17.9482 26.273 17.9818 26.3058 18.0231 26.3058H18.8902C18.9315 26.3058 18.965 26.273 18.965 26.2326V26.0918C18.965 26.0513 18.9315 26.0186 18.8902 26.0186Z" fill="#D27400"/>
<path d="M18.8902 26.0212H18.0232C17.9834 26.0212 17.9512 26.0528 17.9512 26.0916V26.2212C17.9512 26.26 17.9834 26.2916 18.0232 26.2916H18.8902C18.93 26.2916 18.9622 26.26 18.9622 26.2212V26.0916C18.9622 26.0528 18.93 26.0212 18.8902 26.0212Z" fill="#D47700"/>
<path d="M18.8844 26.0212H18.026C17.9862 26.0212 17.954 26.0528 17.954 26.0916V26.2071C17.954 26.246 17.9862 26.2775 18.026 26.2775H18.8844C18.9241 26.2775 18.9564 26.246 18.9564 26.2071V26.0916C18.9564 26.0528 18.9241 26.0212 18.8844 26.0212Z" fill="#D67A00"/>
<path d="M18.8844 26.0212H18.026C17.9879 26.0212 17.9569 26.0515 17.9569 26.0888V26.193C17.9569 26.2303 17.9879 26.2606 18.026 26.2606H18.8844C18.9226 26.2606 18.9536 26.2303 18.9536 26.193V26.0888C18.9536 26.0515 18.9226 26.0212 18.8844 26.0212Z" fill="#D87D00"/>
<path d="M18.8843 26.0242H18.026C17.9894 26.0242 17.9597 26.0532 17.9597 26.0889V26.1819C17.9597 26.2176 17.9894 26.2466 18.026 26.2466H18.8843C18.9209 26.2466 18.9506 26.2176 18.9506 26.1819V26.0889C18.9506 26.0532 18.9209 26.0242 18.8843 26.0242Z" fill="#D98000"/>
<path d="M18.8843 26.0242H18.0288C17.9938 26.0242 17.9655 26.0519 17.9655 26.0861V26.1706C17.9655 26.2048 17.9938 26.2325 18.0288 26.2325H18.8843C18.9193 26.2325 18.9477 26.2048 18.9477 26.1706V26.0861C18.9477 26.0519 18.9193 26.0242 18.8843 26.0242Z" fill="#DB8300"/>
<path d="M18.0317 26.2185H18.8815C18.9165 26.2185 18.9448 26.1908 18.9448 26.1566V26.089C18.9448 26.0548 18.9165 26.027 18.8815 26.027H18.0317C17.9967 26.027 17.9683 26.0548 17.9683 26.089V26.1566C17.9683 26.1908 17.9967 26.2185 18.0317 26.2185Z" fill="#DD8600"/>
<path opacity="0.5" d="M18.9275 26.089C18.615 26.1361 18.2979 26.1474 17.9827 26.1228C17.9453 26.0806 17.9539 26.0327 18.0691 26.0271C18.1844 26.0215 18.9333 26.0243 18.9275 26.089Z" fill="white"/>
<path d="M9.26934 4.92482C9.58619 4.55031 11.2655 2.50318 14.8373 2.50318H16.3841C16.4989 2.50273 16.6107 2.53913 16.7022 2.60679C16.7938 2.67444 16.8602 2.76961 16.8911 2.87769L19.9876 14.2763L12.7144 24.0023L6.27941 25.9734C6.27941 25.9734 5.49304 9.40766 9.26934 4.92482Z" fill="url(#paint20_linear_471_925)"/>
<path d="M6.28236 25.9987C6.21611 24.8133 6.17578 23.487 6.17578 22.0115C6.17578 16.5684 7.20411 9.99341 7.20411 9.99341H16.7817V18.5536L12.7145 24.0023L6.28236 25.9987Z" fill="url(#paint21_linear_471_925)"/>
<path style="mix-blend-mode:soft-light" d="M14.8201 12.8092C13.6679 12.8684 9.22909 12.6149 6.75476 13.1049C7.18971 10.0075 7.95016 6.47919 9.25789 4.92484C9.95499 4.15559 10.8127 3.54139 11.7732 3.12365C12.7337 2.70591 13.7746 2.49434 14.8258 2.5032H16.3727C16.4875 2.50275 16.5992 2.53915 16.6908 2.60681C16.7824 2.67446 16.8487 2.76963 16.8796 2.87771L19.4116 12.263C17.8619 12.4995 16.0356 12.7445 14.8201 12.8092Z" fill="url(#paint22_linear_471_925)"/>
<path d="M15.5372 24.1433V23.4252C15.5372 23.2977 15.4315 23.1943 15.301 23.1943H15.2578C15.1274 23.1943 15.0216 23.2977 15.0216 23.4252V24.1433C15.0216 24.2708 15.1274 24.3742 15.2578 24.3742H15.301C15.4315 24.3742 15.5372 24.2708 15.5372 24.1433Z" fill="url(#paint23_linear_471_925)"/>
<path style="mix-blend-mode:multiply" d="M15.5372 24.1433V23.4252C15.5372 23.2977 15.4315 23.1943 15.301 23.1943H15.2578C15.1274 23.1943 15.0216 23.2977 15.0216 23.4252V24.1433C15.0216 24.2708 15.1274 24.3742 15.2578 24.3742H15.301C15.4315 24.3742 15.5372 24.2708 15.5372 24.1433Z" fill="url(#paint24_linear_471_925)"/>
<path d="M15.2982 23.1406H15.2579C15.1815 23.1406 15.1082 23.1703 15.0542 23.2231C15.0002 23.2759 14.9698 23.3475 14.9698 23.4222V24.1403C14.9698 24.2149 15.0002 24.2866 15.0542 24.3394C15.1082 24.3922 15.1815 24.4218 15.2579 24.4218H15.2982C15.3746 24.4218 15.4479 24.3922 15.5019 24.3394C15.5559 24.2866 15.5863 24.2149 15.5863 24.1403V23.4222C15.5863 23.3475 15.5559 23.2759 15.5019 23.2231C15.4479 23.1703 15.3746 23.1406 15.2982 23.1406ZM15.0102 24.1459V23.4278C15.0097 23.3981 15.0153 23.3686 15.0267 23.341C15.0381 23.3135 15.055 23.2884 15.0764 23.2673V24.3092C15.0561 24.2873 15.0407 24.2614 15.0313 24.2332C15.0219 24.2051 15.0186 24.1753 15.0217 24.1459H15.0102ZM15.5229 24.1459C15.5229 24.2071 15.498 24.2659 15.4537 24.3092C15.4094 24.3525 15.3493 24.3768 15.2867 24.3768H15.2694C15.2711 24.3684 15.2711 24.3598 15.2694 24.3514V23.2251C15.2728 23.217 15.2728 23.2079 15.2694 23.1998H15.2896C15.3522 23.1998 15.4123 23.2241 15.4566 23.2674C15.5009 23.3107 15.5258 23.3694 15.5258 23.4307L15.5229 24.1459Z" fill="url(#paint25_linear_471_925)"/>
<path style="mix-blend-mode:overlay" d="M15.281 23.197C15.2641 23.405 15.2584 23.6136 15.2637 23.8221C15.251 24.0097 15.251 24.1978 15.2637 24.3853C15.2829 24.1982 15.2896 24.0101 15.2838 23.8221C15.2947 23.6139 15.2937 23.4052 15.281 23.197Z" fill="url(#paint26_radial_471_925)"/>
<path style="mix-blend-mode:overlay" d="M15.5402 23.3801C15.5233 23.525 15.5165 23.6708 15.52 23.8166C15.508 23.943 15.508 24.0703 15.52 24.1967C15.5385 24.0709 15.5453 23.9436 15.5402 23.8166C15.5509 23.6713 15.5509 23.5254 15.5402 23.3801Z" fill="url(#paint27_radial_471_925)"/>
<path style="mix-blend-mode:overlay" d="M15.0908 23.2449C15.074 23.4321 15.0673 23.6201 15.0707 23.808C15.065 23.9754 15.0717 24.1429 15.0908 24.3093C15.1095 24.1447 15.1163 23.9791 15.111 23.8137C15.1152 23.6239 15.1084 23.434 15.0908 23.2449Z" fill="url(#paint28_radial_471_925)"/>
<path style="mix-blend-mode:overlay" d="M15.0073 23.3801C14.9903 23.524 14.9836 23.6689 14.9871 23.8138C14.9769 23.9403 14.9769 24.0674 14.9871 24.1939C15.0075 24.0682 15.0142 23.9408 15.0073 23.8138C15.0181 23.6694 15.0181 23.5245 15.0073 23.3801Z" fill="url(#paint29_radial_471_925)"/>
<path style="mix-blend-mode:soft-light" d="M15.2809 23.2729H15.0879V24.2895H15.2809V23.2729Z" fill="url(#paint30_linear_471_925)"/>
<path d="M6.96788 33.6665H16.9718C17.0259 33.6665 17.0697 33.6236 17.0697 33.5708V33.2103C17.0697 33.1575 17.0259 33.1146 16.9718 33.1146H6.96788C6.91379 33.1146 6.86994 33.1575 6.86994 33.2103V33.5708C6.86994 33.6236 6.91379 33.6665 6.96788 33.6665Z" fill="url(#paint31_linear_471_925)"/>
<path d="M52.7386 31.9402H53.9311C54.1427 31.9402 54.3142 31.7725 54.3142 31.5657V31.4981C54.3142 31.2913 54.1427 31.1236 53.9311 31.1236H52.7386C52.527 31.1236 52.3555 31.2913 52.3555 31.4981V31.5657C52.3555 31.7725 52.527 31.9402 52.7386 31.9402Z" fill="url(#paint32_linear_471_925)"/>
<path style="mix-blend-mode:multiply" d="M52.7386 31.9402H53.9311C54.1427 31.9402 54.3142 31.7725 54.3142 31.5657V31.4981C54.3142 31.2913 54.1427 31.1236 53.9311 31.1236H52.7386C52.527 31.1236 52.3555 31.2913 52.3555 31.4981V31.5657C52.3555 31.7725 52.527 31.9402 52.7386 31.9402Z" fill="url(#paint33_linear_471_925)"/>
<path d="M54.4063 31.8389V31.2222C54.4056 31.1717 54.3847 31.1234 54.3481 31.0876C54.3116 31.0519 54.2622 31.0315 54.2105 31.0308H52.4591C52.4069 31.0308 52.3568 31.0508 52.3196 31.0867C52.2824 31.1225 52.2611 31.1712 52.2604 31.2222V31.8389C52.2611 31.89 52.2824 31.9387 52.3196 31.9745C52.3568 32.0103 52.4069 32.0304 52.4591 32.0304H54.2105C54.2622 32.0297 54.3116 32.0093 54.3481 31.9735C54.3847 31.9378 54.4056 31.8895 54.4063 31.8389ZM52.7385 31.1209H53.9282C54.0268 31.1218 54.1214 31.159 54.1932 31.2251H52.4649C52.5392 31.1575 52.6371 31.1202 52.7385 31.1209ZM52.7385 31.9375C52.6372 31.9367 52.5402 31.897 52.4685 31.827C52.3968 31.7569 52.3562 31.6621 52.3554 31.563V31.532C52.3685 31.5361 52.3826 31.5361 52.3958 31.532H54.2652C54.2793 31.5361 54.2943 31.5361 54.3084 31.532V31.563C54.3076 31.6625 54.2666 31.7578 54.1943 31.828C54.122 31.8981 54.0243 31.9375 53.9224 31.9375H52.7385Z" fill="url(#paint34_linear_471_925)"/>
<path style="mix-blend-mode:overlay" d="M54.3142 31.5376C54.3142 31.5235 53.8476 31.5094 53.2744 31.5038C52.9708 31.4915 52.6668 31.4981 52.3641 31.5235C52.6665 31.5536 52.9706 31.5639 53.2744 31.5545C53.621 31.5663 53.9681 31.5607 54.3142 31.5376Z" fill="url(#paint35_radial_471_925)"/>
<path style="mix-blend-mode:overlay" d="M54.006 31.946C53.767 31.9184 53.5264 31.9071 53.2859 31.9122C53.0754 31.9 52.8642 31.9066 52.655 31.9319C52.8638 31.9621 53.075 31.9725 53.2859 31.9629C53.526 31.9748 53.7667 31.9691 54.006 31.946Z" fill="url(#paint36_radial_471_925)"/>
<path style="mix-blend-mode:overlay" d="M54.2306 31.2448C53.9184 31.2174 53.6049 31.2071 53.2916 31.2139C53.0169 31.2019 52.7417 31.2075 52.4678 31.2308C52.7411 31.2629 53.0165 31.2742 53.2916 31.2646C53.6047 31.2747 53.9182 31.2682 54.2306 31.2448Z" fill="url(#paint37_radial_471_925)"/>
<path style="mix-blend-mode:overlay" d="M54.0089 31.1012C53.7699 31.0738 53.5293 31.0634 53.2888 31.0702C53.0783 31.0579 52.8672 31.0645 52.658 31.0899C52.8667 31.1199 53.078 31.1303 53.2888 31.1209C53.529 31.131 53.7696 31.1244 54.0089 31.1012Z" fill="url(#paint38_radial_471_925)"/>
<path style="mix-blend-mode:soft-light" d="M54.1875 31.5292V31.2251H52.5053V31.5292H54.1875Z" fill="url(#paint39_linear_471_925)"/>
<path d="M46.0156 22.0649H45.8687V33.0158H46.0156V22.0649Z" fill="url(#paint40_linear_471_925)"/>
<path d="M38.7597 31.9402H39.9522C40.1638 31.9402 40.3353 31.7725 40.3353 31.5657V31.4981C40.3353 31.2913 40.1638 31.1236 39.9522 31.1236H38.7597C38.5481 31.1236 38.3766 31.2913 38.3766 31.4981V31.5657C38.3766 31.7725 38.5481 31.9402 38.7597 31.9402Z" fill="url(#paint41_linear_471_925)"/>
<path style="mix-blend-mode:multiply" d="M38.7597 31.9402H39.9522C40.1638 31.9402 40.3353 31.7725 40.3353 31.5657V31.4981C40.3353 31.2913 40.1638 31.1236 39.9522 31.1236H38.7597C38.5481 31.1236 38.3766 31.2913 38.3766 31.4981V31.5657C38.3766 31.7725 38.5481 31.9402 38.7597 31.9402Z" fill="url(#paint42_linear_471_925)"/>
<path d="M40.439 31.8389V31.2222C40.4382 31.1717 40.4174 31.1234 40.3808 31.0876C40.3442 31.0519 40.2948 31.0315 40.2431 31.0308H38.4802C38.428 31.0308 38.3779 31.0508 38.3407 31.0867C38.3035 31.1225 38.2823 31.1712 38.2815 31.2222V31.8389C38.2823 31.89 38.3035 31.9387 38.3407 31.9745C38.3779 32.0103 38.428 32.0304 38.4802 32.0304H40.2316C40.2582 32.0315 40.2847 32.0274 40.3096 32.0183C40.3346 32.0093 40.3574 31.9954 40.3767 31.9775C40.396 31.9597 40.4115 31.9382 40.4222 31.9144C40.4329 31.8906 40.4386 31.8649 40.439 31.8389ZM38.7712 31.1209H39.9608C40.0594 31.1218 40.154 31.159 40.2258 31.2251H38.4975C38.5689 31.1601 38.6622 31.123 38.7597 31.1209H38.7712ZM38.7712 31.9375C38.6698 31.9367 38.5728 31.897 38.5011 31.827C38.4294 31.7569 38.3888 31.6621 38.3881 31.563V31.532C38.4012 31.5361 38.4153 31.5361 38.4284 31.532H40.3036C40.3177 31.5361 40.3327 31.5361 40.3468 31.532V31.563C40.346 31.6625 40.305 31.7578 40.2327 31.828C40.1604 31.8981 40.0627 31.9375 39.9608 31.9375H38.7712Z" fill="url(#paint43_linear_471_925)"/>
<path style="mix-blend-mode:overlay" d="M40.3352 31.5376C40.3352 31.5235 39.8686 31.5094 39.2954 31.5038C38.9918 31.4915 38.6878 31.4981 38.3851 31.5235C38.6875 31.5536 38.9916 31.5639 39.2954 31.5545C39.642 31.5663 39.9891 31.5607 40.3352 31.5376Z" fill="url(#paint44_radial_471_925)"/>
<path style="mix-blend-mode:overlay" d="M40.0271 31.946C39.7881 31.9184 39.5475 31.9071 39.307 31.9122C39.0965 31.9 38.8854 31.9066 38.6761 31.9319C38.8849 31.9621 39.0962 31.9725 39.307 31.9629C39.5471 31.9748 39.7878 31.9691 40.0271 31.946Z" fill="url(#paint45_radial_471_925)"/>
<path style="mix-blend-mode:overlay" d="M40.2517 31.2448C39.9396 31.2174 39.6261 31.2071 39.3127 31.2139C39.038 31.2019 38.7628 31.2075 38.4889 31.2308C38.7622 31.2629 39.0376 31.2742 39.3127 31.2646C39.6259 31.2747 39.9393 31.2682 40.2517 31.2448Z" fill="url(#paint46_radial_471_925)"/>
<path style="mix-blend-mode:overlay" d="M40.0299 31.1012C39.7909 31.0738 39.5503 31.0634 39.3098 31.0702C39.0993 31.0579 38.8882 31.0645 38.679 31.0899C38.8877 31.1199 39.099 31.1303 39.3098 31.1209C39.55 31.131 39.7906 31.1244 40.0299 31.1012Z" fill="url(#paint47_radial_471_925)"/>
<path style="mix-blend-mode:soft-light" d="M40.2085 31.5292V31.2251H38.5263V31.5292H40.2085Z" fill="url(#paint48_linear_471_925)"/>
<path d="M3.58331 29.0005C3.58331 29.0005 4.81615 28.3698 4.93425 28.2036C5.05235 28.0375 5.2223 26.4832 5.05523 26.5141C4.88816 26.5451 3.34423 26.9562 3.24341 27.2491C3.11379 27.6405 3.36727 28.9386 3.58331 29.0005Z" fill="url(#paint49_linear_471_925)"/>
<path d="M3.58331 29.0005C3.58331 29.0005 4.81615 28.3698 4.93425 28.2036C5.05235 28.0375 5.2223 26.4832 5.05523 26.5141C4.88816 26.5451 3.34423 26.9562 3.24341 27.2491C3.11379 27.6405 3.36727 28.9386 3.58331 29.0005Z" fill="url(#paint50_linear_471_925)"/>
<path d="M3.58326 29.0005C3.58326 29.0005 4.8161 28.3698 4.9342 28.2036C5.0523 28.0375 5.22225 26.4832 5.05518 26.5141C4.88811 26.5451 3.32689 26.99 3.24336 27.2491C3.12814 27.6433 3.36722 28.9386 3.58326 29.0005Z" fill="url(#paint51_linear_471_925)"/>
<path opacity="0.52" d="M5.05524 26.5197C4.98973 26.5372 4.92608 26.5608 4.86513 26.5901C4.89578 27.126 4.83742 27.6633 4.6923 28.181C4.34474 28.4969 3.9443 28.7522 3.50842 28.9357C3.51546 28.9511 3.52579 28.9648 3.5387 28.976C3.55162 28.9872 3.56683 28.9955 3.58331 29.0004L3.64957 28.9667C4.09971 28.7494 4.52958 28.494 4.93426 28.2036C5.05524 28.0374 5.22807 26.4831 5.05524 26.5197Z" fill="white"/>
<path style="mix-blend-mode:soft-light" d="M4.09312 27.9305C4.32724 27.466 4.68429 27.0712 5.12721 26.7872C5.12721 26.6211 5.10128 26.5056 5.05519 26.5197C4.88237 26.5535 3.34419 26.9674 3.24338 27.2547C3.11375 27.6292 3.37588 28.9076 3.56887 28.992C3.83963 28.9216 4.00958 28.1557 4.09312 27.9305Z" fill="url(#paint52_linear_471_925)"/>
<path style="mix-blend-mode:soft-light" d="M4.21407 27.9698C4.21407 28.181 4.17663 28.4063 4.11614 28.4091C4.05565 28.4119 3.99516 28.1894 3.98652 27.9754C3.97787 27.7614 4.02396 27.539 4.08733 27.5362C4.1507 27.5333 4.20543 27.753 4.21407 27.9698Z" fill="url(#paint53_linear_471_925)"/>
<path style="mix-blend-mode:soft-light" d="M4.0874 27.5335C4.15077 27.5335 4.2055 27.7531 4.21414 27.9671C4.22279 28.1811 4.1767 28.4036 4.11621 28.4064L5.00915 27.9699L5.09845 27.2378L4.0874 27.5335Z" fill="url(#paint54_linear_471_925)"/>
<path style="mix-blend-mode:soft-light" d="M3.92325 27.891C3.92325 28.2148 3.89156 28.4767 3.82819 28.4767C3.76482 28.4767 3.70721 28.2204 3.69569 27.8994C3.68417 27.5784 3.72449 27.3166 3.78786 27.3137C3.85123 27.3109 3.91172 27.57 3.92325 27.891Z" fill="url(#paint55_linear_471_925)"/>
<path style="mix-blend-mode:soft-light" d="M5.07537 26.5621C5.07537 26.6353 3.70139 27.0267 3.5084 27.2492C3.31541 27.4716 3.54584 28.9387 3.5084 28.9021C3.47095 28.8655 3.22035 27.4435 3.3903 27.2126C3.56025 26.9817 5.06673 26.5001 5.07537 26.5621Z" fill="url(#paint56_linear_471_925)"/>
<path d="M15.687 3.10316C15.687 2.95828 15.6282 2.81933 15.5234 2.71688C15.4186 2.61444 15.2764 2.55688 15.1282 2.55688H5.00912C4.36966 2.55688 2.12865 2.62728 1.05423 3.66915C-0.175731 4.87997 0.112316 8.45892 0.112316 8.45892H0.777706C0.777706 8.45892 0.230415 4.70257 1.91261 3.95355C2.79692 3.56496 4.46183 3.62128 5.01488 3.63254H15.1397C15.288 3.63254 15.4301 3.57499 15.5349 3.47254C15.6397 3.37009 15.6986 3.23115 15.6986 3.08627L15.687 3.10316Z" fill="#181B1D"/>
<path d="M1.34231 11.3704H0.460884C0.338388 11.3696 0.221169 11.3215 0.134819 11.2366C0.0484703 11.1517 5.91546e-06 11.0368 8.2784e-06 10.917V7.06211C-0.000371388 6.99753 0.0123117 6.93352 0.0373295 6.87375C0.0623472 6.81398 0.0992058 6.75963 0.145785 6.71384C0.192363 6.66804 0.247744 6.6317 0.308741 6.6069C0.369738 6.5821 0.435148 6.56933 0.50121 6.56934H1.36535C1.41525 6.56982 1.46375 6.58556 1.50404 6.61434C1.54433 6.64312 1.5744 6.68351 1.59003 6.72984C1.76975 7.31688 1.85431 7.92782 1.84063 8.54044C1.82286 9.42921 1.72648 10.3148 1.55258 11.1873C1.54227 11.2359 1.51626 11.2799 1.47839 11.3128C1.44052 11.3458 1.39281 11.366 1.34231 11.3704Z" fill="#282B2D"/>
<path d="M1.33942 11.3563H0.489684C0.3626 11.3477 0.24372 11.2918 0.15747 11.2002C0.0712196 11.1085 0.0241489 10.9881 0.0259275 10.8636V7.08469C0.0259275 6.95474 0.0787321 6.83012 0.172726 6.73823C0.266719 6.64635 0.394202 6.59473 0.527129 6.59473H1.35094C1.40049 6.59501 1.44873 6.61034 1.48898 6.63859C1.52923 6.66684 1.55951 6.70661 1.57562 6.75241C1.75635 7.33748 1.84379 7.94628 1.83486 8.55738C1.81996 9.43604 1.73036 10.312 1.56698 11.1761C1.55532 11.2268 1.52651 11.2722 1.48522 11.3049C1.44393 11.3376 1.39256 11.3557 1.33942 11.3563Z" fill="#26292B"/>
<path d="M1.33369 11.3198H0.515633C0.384875 11.3013 0.265554 11.2367 0.180138 11.1381C0.0947226 11.0396 0.049106 10.9139 0.051877 10.7848V7.10727C0.051877 6.97807 0.104379 6.85417 0.197832 6.76281C0.291286 6.67145 0.418036 6.62013 0.550199 6.62013H1.34521C1.39458 6.61971 1.44279 6.63481 1.48272 6.6632C1.52265 6.69159 1.55219 6.73177 1.56701 6.77782C1.74276 7.35611 1.82822 7.95703 1.82049 8.56026C1.80691 9.42941 1.71923 10.2959 1.55836 11.1508C1.54599 11.1997 1.51703 11.243 1.47622 11.2737C1.43541 11.3044 1.38517 11.3206 1.33369 11.3198Z" fill="#24282A"/>
<path d="M1.33077 11.2973H0.541524C0.285161 11.2973 0.0777672 10.9707 0.0777672 10.7341V7.13266C0.077385 7.06858 0.0900137 7.00507 0.114921 6.9458C0.139829 6.88652 0.17652 6.83267 0.22287 6.78736C0.26922 6.74205 0.324307 6.70618 0.384938 6.68184C0.44557 6.65749 0.510542 6.64514 0.576089 6.64552H1.34229C1.39054 6.64523 1.4376 6.66014 1.47651 6.68803C1.51541 6.71592 1.5441 6.75532 1.55833 6.80039C1.72896 7.37386 1.81243 7.96873 1.80605 8.56593C1.79139 9.4253 1.70662 10.2822 1.55257 11.1284C1.53985 11.1765 1.51121 11.2192 1.47109 11.2497C1.43097 11.2803 1.38163 11.297 1.33077 11.2973Z" fill="#232628"/>
<path d="M1.32791 11.2719H0.570348C0.311105 11.2719 0.10083 10.9058 0.10083 10.6524V7.15511C0.101586 7.02614 0.15433 6.90266 0.247621 6.81146C0.340911 6.72027 0.467222 6.66871 0.599152 6.66797H1.33655C1.38431 6.66829 1.43072 6.68347 1.46905 6.71132C1.50737 6.73917 1.53563 6.77823 1.54971 6.82284C1.71697 7.39111 1.79848 7.9802 1.79167 8.57149C1.77833 9.42135 1.69549 10.2688 1.54395 11.1058C1.53183 11.1529 1.50405 11.1948 1.46495 11.2249C1.42585 11.255 1.37766 11.2715 1.32791 11.2719Z" fill="#212426"/>
<path d="M1.32211 11.2465H0.596226C0.336984 11.2465 0.126709 10.841 0.126709 10.5876V7.1776C0.126709 7.04915 0.178907 6.92595 0.27182 6.83512C0.364734 6.74429 0.490752 6.69327 0.622151 6.69327H1.33075C1.38045 6.69144 1.42934 6.70599 1.46956 6.73459C1.50979 6.76318 1.53901 6.80417 1.55254 6.85096C1.71216 7.41386 1.79069 7.99578 1.78586 8.57989C1.77405 9.41615 1.69604 10.2503 1.55254 11.0747C1.54105 11.1254 1.51161 11.1704 1.46944 11.2018C1.42726 11.2332 1.37508 11.2491 1.32211 11.2465Z" fill="#1F2224"/>
<path d="M1.3193 11.2211H0.622227C0.362985 11.2211 0.15271 10.7734 0.15271 10.5199V7.20004C0.153471 7.07208 0.206005 6.94961 0.298836 6.85939C0.391667 6.76917 0.51725 6.71852 0.648152 6.71852H1.32506C1.3723 6.71791 1.41844 6.73245 1.45641 6.75991C1.49439 6.78737 1.52211 6.82625 1.53534 6.87058C1.69005 7.42756 1.76565 8.00269 1.76001 8.57981C1.74755 9.41124 1.67051 10.2405 1.52958 11.0606C1.51797 11.1065 1.49094 11.1472 1.45281 11.1764C1.41469 11.2055 1.36767 11.2212 1.3193 11.2211Z" fill="#1D2123"/>
<path d="M1.3135 11.1986H0.650986C0.388863 11.1986 0.178589 10.7086 0.178589 10.4552V7.22541C0.178589 7.09771 0.230483 6.97523 0.322856 6.88493C0.41523 6.79463 0.540514 6.7439 0.67115 6.7439H1.32214C1.36851 6.74405 1.41356 6.75898 1.45047 6.78642C1.48737 6.81386 1.51412 6.85231 1.52665 6.89596C1.67662 7.44701 1.75025 8.01526 1.74557 8.58547C1.73333 9.40722 1.6592 10.227 1.52377 11.0381C1.51171 11.0837 1.48456 11.1242 1.44653 11.1533C1.40851 11.1823 1.36174 11.1982 1.3135 11.1986Z" fill="#1B1F21"/>
<path d="M1.31064 11.1734H0.688462C0.429219 11.1734 0.216064 10.644 0.216064 10.3878V7.24812C0.216665 7.12396 0.266017 7.00477 0.353928 6.91516C0.441839 6.82556 0.561594 6.77237 0.688462 6.7666H1.30776C1.35413 6.76675 1.39918 6.78168 1.43609 6.80912C1.473 6.83656 1.49975 6.87502 1.51228 6.91866C1.65436 7.46528 1.72501 8.02729 1.72255 8.59128C1.71165 9.40352 1.63944 10.2139 1.50652 11.0157C1.49589 11.0593 1.47101 11.0983 1.43565 11.1267C1.4003 11.1552 1.35641 11.1716 1.31064 11.1734Z" fill="#1A1D1F"/>
<path d="M1.30489 11.1479H0.702866C0.443624 11.1479 0.230469 10.5847 0.230469 10.3228V7.27045C0.230469 7.14349 0.28206 7.02173 0.373892 6.93196C0.465725 6.84219 0.590278 6.79175 0.720149 6.79175H1.29624C1.34236 6.79157 1.38723 6.80643 1.42374 6.83396C1.46026 6.8615 1.48635 6.90015 1.49788 6.94381C1.63696 7.48416 1.70568 8.03953 1.70239 8.59672C1.69048 9.3983 1.62118 10.1981 1.495 10.9902C1.48466 11.0329 1.46063 11.0712 1.42643 11.0996C1.39222 11.1279 1.34964 11.1449 1.30489 11.1479Z" fill="#181B1D"/>
<path d="M1.30198 11.1226H0.725889C0.463766 11.1226 0.25061 10.5115 0.25061 10.2553V7.29583C0.25061 7.16888 0.302201 7.04712 0.394034 6.95734C0.485867 6.86757 0.61042 6.81714 0.740291 6.81714H1.30198C1.34686 6.81756 1.39035 6.8324 1.42574 6.85937C1.46114 6.88634 1.48648 6.92394 1.49786 6.96638C1.63188 7.50084 1.69862 8.0493 1.69661 8.59958C1.6861 9.39259 1.61872 10.1839 1.49497 10.9677C1.48528 11.011 1.46096 11.0498 1.42595 11.0779C1.39094 11.106 1.34727 11.1217 1.30198 11.1226Z" fill="#161A1C"/>
<path d="M1.29615 11.0974H0.757505C0.495382 11.0974 0.282227 10.4469 0.282227 10.1907V7.31851C0.284492 7.19377 0.336778 7.07488 0.427826 6.98746C0.518874 6.90003 0.641402 6.85106 0.769026 6.85108H1.30191C1.34654 6.85086 1.38997 6.86511 1.42541 6.89161C1.46086 6.9181 1.48631 6.95535 1.49779 6.9975C1.62541 7.52718 1.68922 8.06963 1.6879 8.6138C1.67619 9.39709 1.61172 10.1788 1.49491 10.9538C1.48234 10.9956 1.45611 11.0323 1.42023 11.0583C1.38435 11.0842 1.34077 11.0979 1.29615 11.0974Z" fill="#14181A"/>
<path d="M1.29335 11.0748H0.783506C0.521383 11.0748 0.308228 10.3793 0.308228 10.1231V7.34099C0.308989 7.21526 0.360612 7.09494 0.451823 7.00631C0.543033 6.91767 0.666417 6.86792 0.795027 6.86792H1.29623C1.34048 6.86784 1.3835 6.8822 1.41846 6.90873C1.45341 6.93525 1.47832 6.97242 1.48922 7.01435C1.61241 7.53799 1.67425 8.07363 1.67357 8.61094C1.66306 9.38472 1.60052 10.157 1.48634 10.9228C1.47655 10.9657 1.45213 11.0042 1.41706 11.0318C1.382 11.0594 1.33838 11.0746 1.29335 11.0748Z" fill="#121618"/>
<path d="M1.28754 11.0494H0.812265C0.547261 11.0494 0.334106 10.3145 0.334106 10.0582V7.36345C0.334106 7.23798 0.385091 7.11766 0.475843 7.02894C0.566596 6.94022 0.689683 6.89038 0.818026 6.89038H1.29042C1.33431 6.89044 1.37691 6.9049 1.41138 6.93145C1.44586 6.958 1.47021 6.99511 1.48053 7.03681C1.59742 7.5556 1.65634 8.08527 1.65624 8.6165C1.64774 9.38072 1.58808 10.1436 1.47765 10.9002C1.46837 10.9426 1.44439 10.9807 1.40976 11.0078C1.37513 11.035 1.33196 11.0497 1.28754 11.0494Z" fill="#101416"/>
<path d="M1.28474 11.0241H0.838266C0.573262 11.0241 0.360107 10.2498 0.360107 9.99072V7.38887C0.360107 7.2634 0.411092 7.14308 0.501844 7.05436C0.592597 6.96564 0.715684 6.9158 0.844027 6.9158H1.28762C1.33107 6.91505 1.3734 6.92933 1.40713 6.95612C1.44086 6.98291 1.46383 7.02049 1.47197 7.06223C1.58578 7.57379 1.64276 8.09587 1.64192 8.61939C1.63209 9.37297 1.57534 10.1253 1.47197 10.8721C1.46337 10.9146 1.44007 10.9529 1.40597 10.9806C1.37187 11.0083 1.32906 11.0237 1.28474 11.0241Z" fill="#0F1215"/>
<path d="M1.28181 10.9987H0.864145C0.599141 10.9987 0.385986 10.1821 0.385986 9.92585V7.4141C0.385986 7.28938 0.436667 7.16978 0.526879 7.08159C0.617092 6.9934 0.739445 6.94385 0.867025 6.94385H1.28181C1.32472 6.94351 1.36645 6.95759 1.40001 6.98374C1.43357 7.00988 1.45692 7.0465 1.46616 7.08746C1.57228 7.59435 1.62632 8.11034 1.62747 8.62774C1.61921 9.3737 1.56438 10.1185 1.46328 10.8579C1.45406 10.8981 1.43102 10.934 1.398 10.9596C1.36498 10.9853 1.32397 10.999 1.28181 10.9987Z" fill="#0D1113"/>
<path d="M1.26449 10.9763H0.892904C0.6279 10.9763 0.411865 10.1174 0.411865 9.84992V7.42547C0.411864 7.36384 0.424326 7.30283 0.448536 7.24594C0.472746 7.18904 0.508224 7.13739 0.552931 7.09395C0.597638 7.0505 0.65069 7.01613 0.709036 6.99281C0.767382 6.96948 0.829869 6.95767 0.892904 6.95804H1.26449C1.30718 6.95727 1.34879 6.97126 1.38198 6.99752C1.41518 7.02379 1.43783 7.06066 1.44596 7.10164C1.54896 7.60225 1.60106 8.11158 1.6015 8.62221C1.59369 9.35761 1.54175 10.0919 1.44596 10.8214C1.43974 10.8642 1.41799 10.9034 1.38468 10.9318C1.35136 10.9602 1.30871 10.976 1.26449 10.9763Z" fill="#0B0F11"/>
<g style="mix-blend-mode:soft-light" opacity="0.05">
<path d="M0.907322 8.27301C0.936127 8.12377 0.535741 11.0354 0.16704 10.9453C-0.0374733 10.8974 0.115192 6.90169 0.270737 6.76935C0.426283 6.637 1.05711 6.55816 1.18961 6.71585C1.32211 6.87353 0.866995 8.46731 0.907322 8.27301Z" fill="white"/>
</g>
<g style="mix-blend-mode:soft-light" opacity="0.1">
<path d="M0.892888 8.21096C0.921692 8.07298 0.53859 10.841 0.184291 10.7452C-0.0144612 10.7002 0.126682 6.90159 0.276467 6.76924C0.426251 6.6369 1.02539 6.56368 1.15789 6.71292C1.29039 6.86216 0.855442 8.39117 0.892888 8.21096Z" fill="white"/>
</g>
<g style="mix-blend-mode:soft-light" opacity="0.14">
<path d="M0.88138 8.14916C0.910185 8.02244 0.541485 10.6468 0.201589 10.568C0.0114781 10.5229 0.141099 6.92426 0.282242 6.79473C0.423386 6.6652 0.996599 6.59199 1.12334 6.7356C1.25008 6.8792 0.846815 8.31811 0.88138 8.14916Z" fill="white"/>
</g>
<g style="mix-blend-mode:soft-light" opacity="0.19">
<path d="M0.869843 8.0871C0.895768 7.97165 0.54723 10.4524 0.218856 10.3792C0.0345055 10.337 0.155485 6.9326 0.290868 6.8087C0.42625 6.68481 0.964899 6.60877 1.09164 6.74394C1.21838 6.8791 0.835278 8.24197 0.869843 8.0871Z" fill="white"/>
</g>
<g style="mix-blend-mode:soft-light" opacity="0.24">
<path d="M0.855481 8.02517C0.881405 7.92099 0.55015 10.261 0.239059 10.1906C0.0604696 10.1511 0.169928 6.94389 0.296669 6.81154C0.423409 6.6792 0.936134 6.61725 1.05711 6.74114C1.17809 6.86504 0.823796 8.16597 0.855481 8.02517Z" fill="white"/>
</g>
<g style="mix-blend-mode:soft-light" opacity="0.29">
<path d="M0.843951 7.97727C0.866995 7.88435 0.555904 10.0807 0.267857 10.016C0.0950281 9.97935 0.195845 6.96919 0.313944 6.85093C0.418836 6.78117 0.539806 6.73796 0.665997 6.72518C0.792188 6.7124 0.91965 6.73045 1.03694 6.77772C1.14352 6.8819 0.812266 8.09272 0.843951 7.97727Z" fill="white"/>
</g>
<g style="mix-blend-mode:soft-light" opacity="0.33">
<path d="M0.832422 7.90123C0.852586 7.81957 0.544375 9.87233 0.273611 9.8132C0.109424 9.77941 0.195838 6.96637 0.308176 6.8481C0.406798 6.78153 0.520693 6.73976 0.639772 6.7265C0.75885 6.71324 0.879436 6.72889 0.990848 6.77207C1.10607 6.88189 0.803618 8.01668 0.832422 7.90123Z" fill="white"/>
</g>
<g style="mix-blend-mode:soft-light" opacity="0.38">
<path d="M0.820932 7.8394C0.838215 7.769 0.558809 9.68097 0.290925 9.62465C0.132499 9.59086 0.210272 6.97493 0.313969 6.86229C0.406185 6.79751 0.51342 6.75613 0.626041 6.74188C0.738662 6.72762 0.853141 6.74094 0.959195 6.78064C1.07153 6.88482 0.792127 7.94077 0.820932 7.8394Z" fill="white"/>
</g>
<g style="mix-blend-mode:soft-light" opacity="0.43">
<path d="M0.806483 7.78017C0.823766 7.71822 0.561643 9.48658 0.311041 9.43589C0.158376 9.40492 0.224627 6.9861 0.311041 6.87628C0.396291 6.81325 0.496523 6.77244 0.60233 6.75766C0.708138 6.74289 0.816051 6.75463 0.915942 6.7918C1.03404 6.88472 0.780559 7.86464 0.806483 7.78017Z" fill="white"/>
</g>
<g style="mix-blend-mode:soft-light" opacity="0.48">
<path d="M0.795017 7.71827C0.809419 7.66759 0.564579 9.29233 0.32838 9.24728C0.181476 9.21912 0.239086 6.99459 0.32838 6.89041C0.407508 6.82662 0.502621 6.78463 0.603897 6.76879C0.705173 6.75295 0.808938 6.76383 0.904475 6.8003C0.999531 6.88759 0.771973 7.79148 0.795017 7.71827Z" fill="white"/>
</g>
<g style="mix-blend-mode:soft-light" opacity="0.52">
<path d="M0.783433 7.65636C0.797836 7.61694 0.567398 9.1009 0.345601 9.06429C0.207339 9.03895 0.253425 7.01153 0.331198 6.90734C0.403686 6.84924 0.490159 6.8102 0.582413 6.79394C0.674667 6.77767 0.769641 6.78473 0.858325 6.81442C0.976425 6.88763 0.76039 7.7155 0.783433 7.65636Z" fill="white"/>
</g>
<g style="mix-blend-mode:soft-light" opacity="0.57">
<path d="M0.769075 7.59436C0.769075 7.5662 0.570322 8.90655 0.362928 8.86994C0.230426 8.84742 0.267872 7.01711 0.337004 6.91574C0.402353 6.85932 0.481776 6.82076 0.567249 6.80395C0.652722 6.78714 0.74122 6.79267 0.823804 6.82C0.924621 6.8904 0.748911 7.63941 0.769075 7.59436Z" fill="white"/>
</g>
<g style="mix-blend-mode:soft-light" opacity="0.62">
<path d="M0.75757 7.53253C0.75757 7.51564 0.573219 8.7152 0.383107 8.68141C0.256367 8.65888 0.279411 7.0285 0.342781 6.92994C0.401655 6.87545 0.474351 6.83732 0.553351 6.8195C0.632351 6.80168 0.714788 6.80481 0.792135 6.82857C0.890071 6.89333 0.737407 7.56351 0.75757 7.53253Z" fill="white"/>
</g>
<g style="mix-blend-mode:soft-light" opacity="0.67">
<path d="M0.746097 7.47039C0.746097 7.47039 0.579029 8.5207 0.40044 8.49255C0.27946 8.47283 0.293862 7.03956 0.348591 6.94382C0.400041 6.89089 0.465613 6.85308 0.537895 6.83467C0.610176 6.81626 0.686286 6.81798 0.757619 6.83964C0.852674 6.89314 0.731694 7.4901 0.746097 7.47039Z" fill="white"/>
</g>
<g style="mix-blend-mode:soft-light" opacity="0.71">
<path d="M0.73452 7.41409C0.73452 7.41409 0.581855 8.33206 0.417668 8.30954C0.30533 8.29264 0.30821 7.05366 0.354298 6.96356C0.399245 6.91274 0.458028 6.87544 0.523807 6.856C0.589587 6.83656 0.659661 6.83578 0.725879 6.85374C0.818054 6.89598 0.720118 7.41409 0.73452 7.41409Z" fill="white"/>
</g>
<g style="mix-blend-mode:soft-light" opacity="0.76">
<path d="M0.720176 7.34666C0.720176 7.36638 0.584794 8.13511 0.432128 8.1154C0.325551 8.10132 0.31979 7.05945 0.360117 6.96934C0.396921 6.92028 0.447689 6.8829 0.506086 6.86187C0.564484 6.84084 0.627924 6.83708 0.68849 6.85107C0.780666 6.89613 0.711534 7.34103 0.720176 7.34666Z" fill="white"/>
</g>
<g style="mix-blend-mode:soft-light" opacity="0.81">
<path d="M0.708633 7.28467C0.708633 7.31283 0.587653 7.94077 0.452271 7.92669C0.316888 7.91261 0.337052 7.08193 0.368737 6.98337C0.40039 6.93918 0.444365 6.9048 0.495431 6.88433C0.546497 6.86386 0.602503 6.85817 0.656784 6.86792C0.743198 6.8989 0.702872 7.26496 0.708633 7.28467Z" fill="white"/>
</g>
<g style="mix-blend-mode:soft-light" opacity="0.86">
<path d="M0.688485 7.22273C0.688485 7.26497 0.581908 7.74929 0.463808 7.73803C0.345709 7.72677 0.339948 7.07912 0.365872 6.99746C0.388667 6.95353 0.425397 6.918 0.470569 6.89617C0.515742 6.87435 0.566929 6.8674 0.616473 6.87638C0.708648 6.89891 0.688485 7.18894 0.688485 7.22273Z" fill="white"/>
</g>
<g style="mix-blend-mode:soft-light" opacity="0.9">
<path d="M0.688398 7.16063C0.688398 7.21413 0.599104 7.55766 0.495407 7.54921C0.39171 7.54076 0.368666 7.09023 0.385948 7.01139C0.400785 6.96987 0.429785 6.93462 0.468077 6.91154C0.506369 6.88846 0.551619 6.87897 0.596223 6.88467C0.671115 6.90156 0.688398 7.11557 0.688398 7.16063Z" fill="white"/>
</g>
<g style="mix-blend-mode:soft-light" opacity="0.95">
<path d="M0.671198 7.09885C0.671198 7.16361 0.596305 7.36353 0.507011 7.36072C0.417716 7.3579 0.37739 7.10166 0.386031 7.02563C0.393077 6.98684 0.414723 6.95203 0.44671 6.92805C0.478697 6.90408 0.518706 6.89268 0.558859 6.8961C0.636632 6.90174 0.668317 7.03971 0.671198 7.09885Z" fill="white"/>
</g>
<g style="mix-blend-mode:soft-light">
<path d="M0.659681 7.03689C0.659681 7.06306 0.65174 7.08865 0.636864 7.11041C0.621988 7.13218 0.600844 7.14914 0.576106 7.15916C0.551368 7.16917 0.524147 7.1718 0.497886 7.16669C0.471624 7.16158 0.447502 7.14898 0.428568 7.13047C0.409635 7.11196 0.396741 7.08838 0.391517 7.06271C0.386294 7.03703 0.388974 7.01042 0.399221 6.98624C0.409468 6.96205 0.42682 6.94139 0.449083 6.92684C0.471347 6.9123 0.497522 6.90454 0.524298 6.90454C0.560204 6.90454 0.594639 6.91849 0.620028 6.94331C0.645417 6.96813 0.659681 7.00179 0.659681 7.03689Z" fill="white"/>
</g>
<path d="M20.1605 23.7292H20.2699C20.2986 23.7292 20.3218 23.7065 20.3218 23.6786V23.3829C20.3218 23.3549 20.2986 23.3322 20.2699 23.3322H20.1605C20.1318 23.3322 20.1086 23.3549 20.1086 23.3829V23.6786C20.1086 23.7065 20.1318 23.7292 20.1605 23.7292Z" fill="url(#paint57_linear_471_925)"/>
<path d="M25.4173 36.5555C28.3508 36.5555 30.7289 34.2308 30.7289 31.3631C30.7289 28.4954 28.3508 26.1707 25.4173 26.1707C22.4838 26.1707 20.1057 28.4954 20.1057 31.3631C20.1057 34.2308 22.4838 36.5555 25.4173 36.5555Z" fill="url(#paint58_radial_471_925)"/>
<path d="M20.725 30.8619L20.0193 30.783L20.1431 30.1016L20.8345 30.2621C20.8517 30.2002 20.8661 30.1354 20.8863 30.0734L20.2065 29.8763L20.4485 29.2259L21.0995 29.5074C21.1254 29.4455 21.1571 29.3892 21.1859 29.33L20.5493 29.0203L20.9007 28.4205L21.4941 28.8007C21.5315 28.7472 21.5719 28.6965 21.6122 28.643L21.0361 28.2291L21.4912 27.6997L22.0068 28.1756L22.1508 28.0376L21.6612 27.5335L22.2027 27.0886L22.6261 27.6518C22.6808 27.6124 22.7327 27.5701 22.7903 27.5335L22.3986 26.9704L23.0121 26.624L23.329 27.2463L23.5104 27.159L23.2224 26.5255L23.8878 26.2889L24.0894 26.9535L24.2853 26.9028L24.1182 26.227L24.8153 26.1087L24.8959 26.7958C24.9622 26.7958 25.0284 26.7958 25.0947 26.7817L25.0544 26.0862H25.7601L25.7169 26.7817C25.7831 26.7817 25.8522 26.7817 25.9185 26.7958L25.9992 26.1087L26.6962 26.227L26.5292 26.9028L26.725 26.9535L26.9267 26.2889L27.592 26.5255L27.304 27.159L27.4826 27.2463L27.8023 26.624L28.4159 26.9704L28.0241 27.5335C28.0817 27.5701 28.1336 27.6124 28.1883 27.6518L28.6117 27.0886L29.1533 27.5335L28.6636 28.0376L28.8076 28.1756L29.3232 27.6997L29.7812 28.2234L29.2051 28.6373C29.2454 28.6908 29.2858 28.7415 29.3232 28.795L29.9166 28.4149L30.268 29.0147L29.6314 29.3244C29.6602 29.3836 29.6919 29.4399 29.7178 29.5018L30.3688 29.2202L30.6108 29.8707L29.931 30.0678C29.9512 30.1298 29.9656 30.1945 29.9828 30.2565L30.6742 30.096L30.798 30.7774L30.0923 30.8562C30.0923 30.921 30.0923 30.9858 30.1067 31.0505L30.8182 31.0111V31.701L30.1067 31.6588C30.1067 31.7235 30.1067 31.7911 30.0923 31.8559L30.798 31.9347L30.6742 32.6162L29.9828 32.4528C29.9656 32.5176 29.9512 32.5796 29.931 32.6443L30.6108 32.8414L30.3688 33.4919L29.7207 33.2103L29.6343 33.3877L30.268 33.6974L29.9166 34.2972L29.3261 33.9143C29.2886 33.9706 29.2454 34.0213 29.208 34.0748L29.7841 34.4887L29.329 35.0181L28.8134 34.5394C28.7673 34.5873 28.7212 34.6351 28.6722 34.6802L29.159 35.1842L28.629 35.6404L28.2056 35.0772C28.1509 35.1166 28.099 35.1589 28.0443 35.1927L28.4332 35.7727L27.8196 36.1163L27.5028 35.494L27.3213 35.5813L27.6093 36.2176L26.9439 36.4542L26.7423 35.7868C26.6789 35.8065 26.6156 35.8206 26.5493 35.8375L26.7135 36.5133L26.0164 36.6344L25.9358 35.9445C25.8695 35.9445 25.8004 35.9445 25.7341 35.9586L25.7774 36.6541H25.0716L25.112 35.9586C25.0457 35.9586 24.9795 35.9586 24.9132 35.9445L24.8326 36.6344L24.1355 36.5133L24.2997 35.8375C24.2334 35.8206 24.1701 35.8065 24.1067 35.7868L23.905 36.4542L23.2397 36.2176L23.5277 35.5813L23.3462 35.494L23.0294 36.1163L22.4158 35.7727L22.8047 35.1927C22.75 35.1589 22.6981 35.1166 22.6434 35.0772L22.22 35.6404L21.6784 35.1955L22.1652 34.6914C22.1163 34.6464 22.0702 34.5985 22.0241 34.5506L21.5085 35.0293L21.0534 34.5L21.6295 34.086C21.592 34.0325 21.5488 33.9818 21.5114 33.9255L20.9353 34.3085L20.5637 33.7087L21.1974 33.399L21.111 33.2216L20.4629 33.5031L20.2209 32.8527L20.9007 32.6556C20.8805 32.5908 20.8661 32.5289 20.8489 32.4641L20.1575 32.6274L20.0337 31.946L20.7394 31.8671C20.7394 31.8024 20.7394 31.7348 20.7394 31.67L20.0279 31.7123V31.0224L20.7394 31.0618C20.7164 30.9914 20.7164 30.9266 20.725 30.8619Z" fill="url(#paint59_radial_471_925)"/>
<path d="M25.4172 27.6882C26.1618 27.6882 26.8897 27.9041 27.5088 28.3085C28.128 28.7129 28.6105 29.2877 28.8954 29.9602C29.1804 30.6327 29.255 31.3726 29.1097 32.0866C28.9644 32.8005 28.6059 33.4562 28.0793 33.9709C27.5528 34.4856 26.882 34.8362 26.1517 34.9782C25.4214 35.1202 24.6644 35.0473 23.9765 34.7687C23.2886 34.4902 22.7006 34.0185 22.2869 33.4132C21.8733 32.808 21.6525 32.0965 21.6525 31.3686C21.6525 30.3925 22.0491 29.4564 22.7551 28.7662C23.4612 28.076 24.4188 27.6882 25.4172 27.6882Z" fill="url(#paint60_radial_471_925)"/>
</g>
<defs>
<radialGradient id="paint0_radial_471_925" cx="0" cy="0" r="1" gradientUnits="userSpaceOnUse" gradientTransform="translate(56.5672 35.4508) rotate(180) scale(52.194 2.58952)">
<stop stop-color="#BABBB9"/>
<stop offset="0.22" stop-color="#BFC0BE"/>
<stop offset="0.48" stop-color="#CDCECC"/>
<stop offset="0.75" stop-color="#E4E5E4"/>
<stop offset="1" stop-color="white"/>
</radialGradient>
<radialGradient id="paint1_radial_471_925" cx="0" cy="0" r="1" gradientUnits="userSpaceOnUse" gradientTransform="translate(26.486 36.8678) rotate(180) scale(6.36297 1.61726)">
<stop stop-color="#121411"/>
<stop offset="0.08" stop-color="#313230"/>
<stop offset="0.25" stop-color="#6E706E"/>
<stop offset="0.42" stop-color="#A2A3A2"/>
<stop offset="0.57" stop-color="#CACBCA"/>
<stop offset="0.71" stop-color="#E7E7E7"/>
<stop offset="0.83" stop-color="#F9F9F9"/>
<stop offset="0.92" stop-color="white"/>
</radialGradient>
<radialGradient id="paint2_radial_471_925" cx="0" cy="0" r="1" gradientUnits="userSpaceOnUse" gradientTransform="translate(29.1792 35.0953) rotate(180) scale(5.77823 1.46864)">
<stop stop-color="#121411"/>
<stop offset="0.08" stop-color="#313230"/>
<stop offset="0.25" stop-color="#6E706E"/>
<stop offset="0.42" stop-color="#A2A3A2"/>
<stop offset="0.57" stop-color="#CACBCA"/>
<stop offset="0.71" stop-color="#E7E7E7"/>
<stop offset="0.83" stop-color="#F9F9F9"/>
<stop offset="0.92" stop-color="white"/>
</radialGradient>
<radialGradient id="paint3_radial_471_925" cx="0" cy="0" r="1" gradientUnits="userSpaceOnUse" gradientTransform="translate(21.5235 29.8544) rotate(-180) scale(5.32754 5.20803)">
<stop offset="0.96" stop-color="#050503"/>
<stop offset="0.99" stop-color="#030302"/>
<stop offset="1"/>
</radialGradient>
<radialGradient id="paint4_radial_471_925" cx="0" cy="0" r="1" gradientUnits="userSpaceOnUse" gradientTransform="translate(27.9406 29.5272) rotate(180) scale(5.40953 5.28818)">
<stop/>
<stop offset="0.66"/>
<stop offset="0.7"/>
<stop offset="0.79" stop-color="#020200"/>
<stop offset="0.87" stop-color="#050503"/>
<stop offset="0.96" stop-color="#10100F"/>
<stop offset="1" stop-color="#161615"/>
</radialGradient>
<radialGradient id="paint5_radial_471_925" cx="0" cy="0" r="1" gradientUnits="userSpaceOnUse" gradientTransform="translate(27.9406 29.5271) rotate(180) scale(3.75902 3.6747)">
<stop offset="0.01" stop-color="#D9D9D8"/>
<stop offset="0.14" stop-color="#D6D6D4"/>
<stop offset="0.25" stop-color="#CBCBCA"/>
<stop offset="0.36" stop-color="#B9B9B8"/>
<stop offset="0.47" stop-color="#A0A09E"/>
<stop offset="0.56" stop-color="#828280"/>
<stop offset="0.59" stop-color="#80807E"/>
<stop offset="0.61" stop-color="#787876"/>
<stop offset="0.62" stop-color="#595957"/>
<stop offset="0.63" stop-color="#4F4F4D"/>
<stop offset="0.65" stop-color="#545452"/>
<stop offset="0.71" stop-color="#60605F"/>
<stop offset="0.78" stop-color="#646463"/>
<stop offset="0.8" stop-color="#111111"/>
<stop offset="0.92" stop-color="#0C0C0A"/>
<stop offset="0.93" stop-color="#131311"/>
<stop offset="0.94" stop-color="#3C3C3B"/>
<stop offset="0.96" stop-color="#303030"/>
<stop offset="0.99" stop-color="#121212"/>
<stop offset="1"/>
</radialGradient>
<linearGradient id="paint6_linear_471_925" x1="36.5244" y1="1.08981" x2="36.5244" y2="1.6558" gradientUnits="userSpaceOnUse">
<stop offset="0.01" stop-color="#6B6B6B"/>
<stop offset="0.08" stop-color="white"/>
<stop offset="0.18" stop-color="#D0D0CF"/>
<stop offset="0.9" stop-color="#A9A9A7"/>
<stop offset="0.96" stop-color="#C8C8C7"/>
<stop offset="0.99" stop-color="#7C7E7F"/>
</linearGradient>
<linearGradient id="paint7_linear_471_925" x1="31.6824" y1="33.5229" x2="32.3449" y2="33.5229" gradientUnits="userSpaceOnUse">
<stop/>
<stop offset="0.39" stop-color="#020202"/>
<stop offset="0.53" stop-color="#090908"/>
<stop offset="0.63" stop-color="#141414"/>
<stop offset="0.66" stop-color="#191918"/>
<stop offset="1"/>
</linearGradient>
<linearGradient id="paint8_linear_471_925" x1="55.8236" y1="33.1764" x2="55.8236" y2="1.45293" gradientUnits="userSpaceOnUse">
<stop stop-color="#323229"/>
<stop offset="0.01" stop-color="#56574F"/>
<stop offset="0.03" stop-color="#BABEBA"/>
<stop offset="0.04" stop-color="#B7BBB7"/>
<stop offset="0.05" stop-color="#BABEBA"/>
<stop offset="0.08" stop-color="#CDCFCC"/>
<stop offset="0.12" stop-color="#D8D9D7"/>
<stop offset="0.16" stop-color="#DCDCDB"/>
<stop offset="0.17" stop-color="#DEDEDD"/>
<stop offset="0.26" stop-color="#F0F0F0"/>
<stop offset="0.33" stop-color="#F6F7F7"/>
<stop offset="0.61" stop-color="#F4F5F5"/>
<stop offset="0.73" stop-color="#EEEEEE"/>
<stop offset="0.81" stop-color="#E3E3E2"/>
<stop offset="0.82" stop-color="#E0E0DF"/>
<stop offset="0.88" stop-color="#E2E2E1"/>
<stop offset="0.91" stop-color="#E7E9E8"/>
<stop offset="0.92" stop-color="#ECEFEE"/>
<stop offset="0.96" stop-color="#EAEDEC"/>
<stop offset="0.98" stop-color="#E4E6E5"/>
<stop offset="0.99" stop-color="#CACAC9"/>
</linearGradient>
<linearGradient id="paint9_linear_471_925" x1="3.34715" y1="18.2243" x2="7.01836" y2="17.8826" gradientUnits="userSpaceOnUse">
<stop stop-color="#D4D7D7"/>
<stop offset="0.1" stop-color="#DCDFDF"/>
<stop offset="0.39" stop-color="#F0F1F1"/>
<stop offset="0.69" stop-color="#FBFBFB"/>
<stop offset="1" stop-color="white"/>
</linearGradient>
<linearGradient id="paint10_linear_471_925" x1="6.87574" y1="25.1681" x2="6.87574" y2="4.92487" gradientUnits="userSpaceOnUse">
<stop stop-color="#808080"/>
<stop offset="0.53" stop-color="#E6E6E6"/>
<stop offset="0.6" stop-color="#D4D4D4"/>
<stop offset="0.87" stop-color="#989898"/>
<stop offset="1" stop-color="#808080"/>
</linearGradient>
<linearGradient id="paint11_linear_471_925" x1="5.89349" y1="24.3543" x2="5.89349" y2="3.7281" gradientUnits="userSpaceOnUse">
<stop offset="0.01"/>
<stop offset="1" stop-color="#272725"/>
</linearGradient>
<linearGradient id="paint12_linear_471_925" x1="106.578" y1="8.43625" x2="18.3774" y2="8.43625" gradientUnits="userSpaceOnUse">
<stop offset="0.01"/>
<stop offset="1" stop-color="#272725"/>
</linearGradient>
<linearGradient id="paint13_linear_471_925" x1="62.4775" y1="11.5732" x2="62.4775" y2="2.48083" gradientUnits="userSpaceOnUse">
<stop stop-color="white"/>
<stop offset="0.14" stop-color="#F6F6F6"/>
<stop offset="0.37" stop-color="#DFDFDF"/>
<stop offset="0.65" stop-color="#B8B8B8"/>
<stop offset="0.98" stop-color="#838383"/>
<stop offset="1" stop-color="#808080"/>
</linearGradient>
<linearGradient id="paint14_linear_471_925" x1="47.7871" y1="8.43637" x2="48.0003" y2="8.43637" gradientUnits="userSpaceOnUse">
<stop stop-color="#808080"/>
<stop offset="0.29" stop-color="#838383"/>
<stop offset="0.51" stop-color="#8C8C8C"/>
<stop offset="0.7" stop-color="#9C9C9C"/>
<stop offset="0.87" stop-color="#B3B3B2"/>
<stop offset="1" stop-color="#C8C8C7"/>
</linearGradient>
<linearGradient id="paint15_linear_471_925" x1="48.0059" y1="8.43624" x2="48.2162" y2="8.43624" gradientUnits="userSpaceOnUse">
<stop stop-color="#4B5757"/>
<stop offset="0.37" stop-color="#949B9B"/>
<stop offset="0.4" stop-color="#A3A9A9"/>
<stop offset="0.52" stop-color="#E5E7E7"/>
<stop offset="0.58" stop-color="white"/>
<stop offset="1" stop-color="#808080"/>
</linearGradient>
<linearGradient id="paint16_linear_471_925" x1="33.6612" y1="8.43624" x2="33.8715" y2="8.43624" gradientUnits="userSpaceOnUse">
<stop stop-color="#808080"/>
<stop offset="0.29" stop-color="#838383"/>
<stop offset="0.51" stop-color="#8C8C8C"/>
<stop offset="0.7" stop-color="#9C9C9C"/>
<stop offset="0.87" stop-color="#B3B3B2"/>
<stop offset="1" stop-color="#C8C8C7"/>
</linearGradient>
<linearGradient id="paint17_linear_471_925" x1="33.8772" y1="8.43637" x2="34.0904" y2="8.43637" gradientUnits="userSpaceOnUse">
<stop stop-color="#4B5757"/>
<stop offset="0.37" stop-color="#949B9B"/>
<stop offset="0.4" stop-color="#A3A9A9"/>
<stop offset="0.52" stop-color="#E5E7E7"/>
<stop offset="0.58" stop-color="white"/>
<stop offset="1" stop-color="#808080"/>
</linearGradient>
<linearGradient id="paint18_linear_471_925" x1="4.96001" y1="26.5961" x2="4.92928" y2="26.5022" gradientUnits="userSpaceOnUse">
<stop stop-color="#838688"/>
<stop offset="0.39" stop-color="#9B9D9E"/>
<stop offset="1" stop-color="#C8C8C7"/>
</linearGradient>
<linearGradient id="paint19_linear_471_925" x1="4.93888" y1="26.4991" x2="4.91167" y2="26.4159" gradientUnits="userSpaceOnUse">
<stop stop-color="#4B5757"/>
<stop offset="0.15" stop-color="#949B9B"/>
<stop offset="0.2" stop-color="#9FA5A5"/>
<stop offset="0.35" stop-color="#C1C5C5"/>
<stop offset="0.51" stop-color="#DCDFDF"/>
<stop offset="0.67" stop-color="#F0F1F1"/>
<stop offset="0.83" stop-color="#FBFBFB"/>
<stop offset="1" stop-color="white"/>
</linearGradient>
<linearGradient id="paint20_linear_471_925" x1="13.1004" y1="25.9818" x2="13.1004" y2="2.57639" gradientUnits="userSpaceOnUse">
<stop offset="0.01"/>
<stop offset="1" stop-color="#272725"/>
</linearGradient>
<linearGradient id="paint21_linear_471_925" x1="16.7817" y1="17.9876" x2="6.1729" y2="17.9876" gradientUnits="userSpaceOnUse">
<stop offset="0.01"/>
<stop offset="1" stop-color="#272725"/>
</linearGradient>
<linearGradient id="paint22_linear_471_925" x1="13.086" y1="13.164" x2="13.086" y2="2.69749" gradientUnits="userSpaceOnUse">
<stop stop-color="white"/>
<stop offset="0.15" stop-color="#F4F4F4"/>
<stop offset="0.42" stop-color="#D5D5D5"/>
<stop offset="0.77" stop-color="#A4A4A4"/>
<stop offset="1" stop-color="#808080"/>
</linearGradient>
<linearGradient id="paint23_linear_471_925" x1="15.0216" y1="23.7857" x2="15.5372" y2="23.7857" gradientUnits="userSpaceOnUse">
<stop/>
<stop offset="0.25" stop-color="#323232"/>
<stop offset="0.35" stop-color="#474747"/>
<stop offset="0.46" stop-color="#434343"/>
<stop offset="0.57" stop-color="#373737"/>
<stop offset="0.69" stop-color="#222222"/>
<stop offset="0.8" stop-color="#050505"/>
<stop offset="0.82"/>
<stop offset="0.87" stop-color="#030303"/>
<stop offset="0.92" stop-color="#0D0D0D"/>
<stop offset="0.96" stop-color="#1F1F1E"/>
<stop offset="0.99" stop-color="#373736"/>
<stop offset="1" stop-color="#3C3C3B"/>
</linearGradient>
<linearGradient id="paint24_linear_471_925" x1="15.278" y1="23.1915" x2="15.278" y2="24.3742" gradientUnits="userSpaceOnUse">
<stop/>
<stop offset="0.03" stop-color="#333333"/>
<stop offset="0.1" stop-color="#B2B2B2"/>
<stop offset="0.14" stop-color="white"/>
<stop offset="0.88" stop-color="white"/>
<stop offset="0.89" stop-color="#F2F2F2"/>
<stop offset="0.91" stop-color="#D0D0D0"/>
<stop offset="0.94" stop-color="#999999"/>
<stop offset="0.97" stop-color="#4E4E4E"/>
<stop offset="1"/>
</linearGradient>
<linearGradient id="paint25_linear_471_925" x1="15.2781" y1="23.1378" x2="15.2781" y2="24.4331" gradientUnits="userSpaceOnUse">
<stop offset="0.01" stop-color="#151512"/>
<stop offset="0.12" stop-color="#434644"/>
<stop offset="0.2" stop-color="#606563"/>
<stop offset="0.25" stop-color="#6B706F"/>
<stop offset="0.43" stop-color="#6F6F6E"/>
<stop offset="0.49" stop-color="#686A69"/>
<stop offset="0.58" stop-color="#555B5A"/>
<stop offset="0.66" stop-color="#3E4847"/>
<stop offset="0.79" stop-color="#2A3030"/>
<stop offset="1"/>
</linearGradient>
<radialGradient id="paint26_radial_471_925" cx="0" cy="0" r="1" gradientTransform="matrix(0.0038887 -0.61076 -0.0155548 0 11.8008 62.2501)" gradientUnits="userSpaceOnUse">
<stop stop-color="white"/>
<stop offset="1" stop-color="#7F7F7E"/>
</radialGradient>
<radialGradient id="paint27_radial_471_925" cx="0" cy="0" r="1" gradientTransform="matrix(0.00388863 -0.42449 -0.0155545 0 12.0446 55.1932)" gradientUnits="userSpaceOnUse">
<stop stop-color="white"/>
<stop offset="1" stop-color="#7F7F7E"/>
</radialGradient>
<radialGradient id="paint28_radial_471_925" cx="0" cy="0" r="1" gradientTransform="matrix(0.00388863 -0.552471 -0.0155545 0 11.6131 60.8601)" gradientUnits="userSpaceOnUse">
<stop stop-color="white"/>
<stop offset="1" stop-color="#7F7F7E"/>
</radialGradient>
<radialGradient id="paint29_radial_471_925" cx="0" cy="0" r="1" gradientTransform="matrix(0.00388863 -0.424488 -0.0155545 0 11.5123 55.2025)" gradientUnits="userSpaceOnUse">
<stop stop-color="white"/>
<stop offset="1" stop-color="#7F7F7E"/>
</radialGradient>
<linearGradient id="paint30_linear_471_925" x1="15.1829" y1="26.9811" x2="15.1829" y2="25.9683" gradientUnits="userSpaceOnUse">
<stop stop-color="#7F7F7E"/>
<stop offset="0.09" stop-color="#A0A09F"/>
<stop offset="0.22" stop-color="#C9C9C9"/>
<stop offset="0.34" stop-color="#E7E7E6"/>
<stop offset="0.44" stop-color="#F9F9F9"/>
<stop offset="0.51" stop-color="white"/>
<stop offset="0.58" stop-color="#FAFAF9"/>
<stop offset="0.67" stop-color="#EAEAEA"/>
<stop offset="0.78" stop-color="#D0D0D0"/>
<stop offset="0.89" stop-color="#ACACAB"/>
<stop offset="1" stop-color="#7F7F7E"/>
</linearGradient>
<linearGradient id="paint31_linear_471_925" x1="11.9684" y1="33.0977" x2="11.9684" y2="33.6524" gradientUnits="userSpaceOnUse">
<stop offset="0.01" stop-color="#6B6B6B"/>
<stop offset="0.05" stop-color="white"/>
<stop offset="0.09" stop-color="#D0D0CF"/>
<stop offset="0.9" stop-color="#A9A9A7"/>
<stop offset="0.96" stop-color="#C8C8C7"/>
<stop offset="0.99" stop-color="#7C7E7F"/>
</linearGradient>
<linearGradient id="paint32_linear_471_925" x1="53.3377" y1="31.1236" x2="53.3377" y2="31.9402" gradientUnits="userSpaceOnUse">
<stop/>
<stop offset="0.25" stop-color="#323232"/>
<stop offset="0.35" stop-color="#474747"/>
<stop offset="0.46" stop-color="#434343"/>
<stop offset="0.57" stop-color="#373737"/>
<stop offset="0.69" stop-color="#222222"/>
<stop offset="0.8" stop-color="#050505"/>
<stop offset="0.82"/>
<stop offset="0.87" stop-color="#030303"/>
<stop offset="0.92" stop-color="#0D0D0D"/>
<stop offset="0.96" stop-color="#1F1F1E"/>
<stop offset="0.99" stop-color="#373736"/>
<stop offset="1" stop-color="#3C3C3B"/>
</linearGradient>
<linearGradient id="paint33_linear_471_925" x1="54.3257" y1="31.5319" x2="52.3612" y2="31.5319" gradientUnits="userSpaceOnUse">
<stop/>
<stop offset="0.03" stop-color="#333333"/>
<stop offset="0.1" stop-color="#B2B2B2"/>
<stop offset="0.14" stop-color="white"/>
<stop offset="0.88" stop-color="white"/>
<stop offset="0.89" stop-color="#F2F2F2"/>
<stop offset="0.91" stop-color="#D0D0D0"/>
<stop offset="0.94" stop-color="#999999"/>
<stop offset="0.97" stop-color="#4E4E4E"/>
<stop offset="1"/>
</linearGradient>
<linearGradient id="paint34_linear_471_925" x1="54.4063" y1="31.5292" x2="52.2633" y2="31.5292" gradientUnits="userSpaceOnUse">
<stop offset="0.01" stop-color="#151512"/>
<stop offset="0.12" stop-color="#434644"/>
<stop offset="0.2" stop-color="#606563"/>
<stop offset="0.25" stop-color="#6B706F"/>
<stop offset="0.43" stop-color="#6F6F6E"/>
<stop offset="0.49" stop-color="#686A69"/>
<stop offset="0.58" stop-color="#555B5A"/>
<stop offset="0.66" stop-color="#3E4847"/>
<stop offset="0.79" stop-color="#2A3030"/>
<stop offset="1"/>
</linearGradient>
<radialGradient id="paint35_radial_471_925" cx="0" cy="0" r="1" gradientTransform="matrix(0.99964 0.00608285 0 -0.0243314 54.9388 32.0553)" gradientUnits="userSpaceOnUse">
<stop stop-color="white"/>
<stop offset="1" stop-color="#7F7F7E"/>
</radialGradient>
<radialGradient id="paint36_radial_471_925" cx="0" cy="0" r="1" gradientTransform="matrix(0.70442 0.00616649 0 -0.024666 48.3516 32.5529)" gradientUnits="userSpaceOnUse">
<stop stop-color="white"/>
<stop offset="1" stop-color="#7F7F7E"/>
</radialGradient>
<radialGradient id="paint37_radial_471_925" cx="0" cy="0" r="1" gradientTransform="matrix(0.90424 0.00608287 0 -0.0243315 51.4954 31.7849)" gradientUnits="userSpaceOnUse">
<stop stop-color="white"/>
<stop offset="1" stop-color="#7F7F7E"/>
</radialGradient>
<radialGradient id="paint38_radial_471_925" cx="0" cy="0" r="1" gradientTransform="matrix(0.694771 0.00608216 0 -0.0243287 48.342 31.709)" gradientUnits="userSpaceOnUse">
<stop stop-color="white"/>
<stop offset="1" stop-color="#7F7F7E"/>
</radialGradient>
<linearGradient id="paint39_linear_471_925" x1="46.9142" y1="31.3772" x2="48.5955" y2="31.3772" gradientUnits="userSpaceOnUse">
<stop stop-color="#7F7F7E"/>
<stop offset="0.09" stop-color="#A0A09F"/>
<stop offset="0.22" stop-color="#C9C9C9"/>
<stop offset="0.34" stop-color="#E7E7E6"/>
<stop offset="0.44" stop-color="#F9F9F9"/>
<stop offset="0.51" stop-color="white"/>
<stop offset="0.58" stop-color="#FAFAF9"/>
<stop offset="0.67" stop-color="#EAEAEA"/>
<stop offset="0.78" stop-color="#D0D0D0"/>
<stop offset="0.89" stop-color="#ACACAB"/>
<stop offset="1" stop-color="#7F7F7E"/>
</linearGradient>
<linearGradient id="paint40_linear_471_925" x1="46.0156" y1="27.5418" x2="45.8687" y2="27.5418" gradientUnits="userSpaceOnUse">
<stop stop-color="#828281"/>
<stop offset="0.19" stop-color="#B3AEB5"/>
<stop offset="0.2" stop-color="#9B969C"/>
<stop offset="0.22" stop-color="#726F73"/>
<stop offset="0.25" stop-color="#4F4C4F"/>
<stop offset="0.28" stop-color="#323133"/>
<stop offset="0.3" stop-color="#1C1B1C"/>
<stop offset="0.34" stop-color="#0C0C0C"/>
<stop offset="0.37" stop-color="#030303"/>
<stop offset="0.42"/>
<stop offset="0.45" stop-color="#050505"/>
<stop offset="0.5" stop-color="#141312"/>
<stop offset="0.55" stop-color="#2C2A27"/>
<stop offset="0.6" stop-color="#4D4B46"/>
<stop offset="0.65" stop-color="#79746D"/>
<stop offset="0.71" stop-color="#ADA79C"/>
<stop offset="0.72" stop-color="#C1BAAE"/>
<stop offset="0.79" stop-color="#A8A49C"/>
<stop offset="0.86" stop-color="#93918D"/>
<stop offset="0.93" stop-color="#868684"/>
<stop offset="1" stop-color="#828281"/>
</linearGradient>
<linearGradient id="paint41_linear_471_925" x1="39.3588" y1="31.1236" x2="39.3588" y2="31.9402" gradientUnits="userSpaceOnUse">
<stop/>
<stop offset="0.25" stop-color="#323232"/>
<stop offset="0.35" stop-color="#474747"/>
<stop offset="0.46" stop-color="#434343"/>
<stop offset="0.57" stop-color="#373737"/>
<stop offset="0.69" stop-color="#222222"/>
<stop offset="0.8" stop-color="#050505"/>
<stop offset="0.82"/>
<stop offset="0.87" stop-color="#030303"/>
<stop offset="0.92" stop-color="#0D0D0D"/>
<stop offset="0.96" stop-color="#1F1F1E"/>
<stop offset="0.99" stop-color="#373736"/>
<stop offset="1" stop-color="#3C3C3B"/>
</linearGradient>
<linearGradient id="paint42_linear_471_925" x1="40.3468" y1="31.5319" x2="38.3824" y2="31.5319" gradientUnits="userSpaceOnUse">
<stop/>
<stop offset="0.03" stop-color="#333333"/>
<stop offset="0.1" stop-color="#B2B2B2"/>
<stop offset="0.14" stop-color="white"/>
<stop offset="0.88" stop-color="white"/>
<stop offset="0.89" stop-color="#F2F2F2"/>
<stop offset="0.91" stop-color="#D0D0D0"/>
<stop offset="0.94" stop-color="#999999"/>
<stop offset="0.97" stop-color="#4E4E4E"/>
<stop offset="1"/>
</linearGradient>
<linearGradient id="paint43_linear_471_925" x1="40.4274" y1="31.5292" x2="38.2844" y2="31.5292" gradientUnits="userSpaceOnUse">
<stop offset="0.01" stop-color="#151512"/>
<stop offset="0.12" stop-color="#434644"/>
<stop offset="0.2" stop-color="#606563"/>
<stop offset="0.25" stop-color="#6B706F"/>
<stop offset="0.43" stop-color="#6F6F6E"/>
<stop offset="0.49" stop-color="#686A69"/>
<stop offset="0.58" stop-color="#555B5A"/>
<stop offset="0.66" stop-color="#3E4847"/>
<stop offset="0.79" stop-color="#2A3030"/>
<stop offset="1"/>
</linearGradient>
<radialGradient id="paint44_radial_471_925" cx="0" cy="0" r="1" gradientTransform="matrix(0.99964 0.00608285 0 -0.0243314 40.9854 32.058)" gradientUnits="userSpaceOnUse">
<stop stop-color="white"/>
<stop offset="1" stop-color="#7F7F7E"/>
</radialGradient>
<radialGradient id="paint45_radial_471_925" cx="0" cy="0" r="1" gradientTransform="matrix(0.70442 0.00616649 0 -0.024666 34.3598 32.5567)" gradientUnits="userSpaceOnUse">
<stop stop-color="white"/>
<stop offset="1" stop-color="#7F7F7E"/>
</radialGradient>
<radialGradient id="paint46_radial_471_925" cx="0" cy="0" r="1" gradientTransform="matrix(0.90424 0.00608287 0 -0.0243315 37.5175 31.7878)" gradientUnits="userSpaceOnUse">
<stop stop-color="white"/>
<stop offset="1" stop-color="#7F7F7E"/>
</radialGradient>
<radialGradient id="paint47_radial_471_925" cx="0" cy="0" r="1" gradientTransform="matrix(0.694771 0.00608216 0 -0.0243287 34.35 31.7128)" gradientUnits="userSpaceOnUse">
<stop stop-color="white"/>
<stop offset="1" stop-color="#7F7F7E"/>
</radialGradient>
<linearGradient id="paint48_linear_471_925" x1="32.9035" y1="31.3772" x2="34.5848" y2="31.3772" gradientUnits="userSpaceOnUse">
<stop stop-color="#7F7F7E"/>
<stop offset="0.09" stop-color="#A0A09F"/>
<stop offset="0.22" stop-color="#C9C9C9"/>
<stop offset="0.34" stop-color="#E7E7E6"/>
<stop offset="0.44" stop-color="#F9F9F9"/>
<stop offset="0.51" stop-color="white"/>
<stop offset="0.58" stop-color="#FAFAF9"/>
<stop offset="0.67" stop-color="#EAEAEA"/>
<stop offset="0.78" stop-color="#D0D0D0"/>
<stop offset="0.89" stop-color="#ACACAB"/>
<stop offset="1" stop-color="#7F7F7E"/>
</linearGradient>
<linearGradient id="paint49_linear_471_925" x1="3.1913" y1="26.4922" x2="5.34905" y2="25.7899" gradientUnits="userSpaceOnUse">
<stop offset="0.01" stop-color="#D9D9D8"/>
<stop offset="0.24" stop-color="#D6D6D4"/>
<stop offset="0.44" stop-color="#CBCBCA"/>
<stop offset="0.64" stop-color="#B9B9B8"/>
<stop offset="0.83" stop-color="#A0A09E"/>
<stop offset="1" stop-color="#828280"/>
</linearGradient>
<linearGradient id="paint50_linear_471_925" x1="3.1913" y1="26.4922" x2="5.34905" y2="25.7899" gradientUnits="userSpaceOnUse">
<stop offset="0.01" stop-color="#D9D9D8"/>
<stop offset="0.24" stop-color="#D6D6D4"/>
<stop offset="0.44" stop-color="#CBCBCA"/>
<stop offset="0.64" stop-color="#B9B9B8"/>
<stop offset="0.83" stop-color="#A0A09E"/>
<stop offset="1" stop-color="#828280"/>
</linearGradient>
<linearGradient id="paint51_linear_471_925" x1="2.73671" y1="26.0591" x2="5.11058" y2="26.4205" gradientUnits="userSpaceOnUse">
<stop offset="0.01" stop-color="#D9D9D8"/>
<stop offset="0.2" stop-color="#D6D6D4"/>
<stop offset="0.37" stop-color="#CBCBCA"/>
<stop offset="0.54" stop-color="#B9B9B7"/>
<stop offset="0.7" stop-color="#A0A09E"/>
<stop offset="0.85" stop-color="#80807D"/>
<stop offset="1" stop-color="#5A5A57"/>
</linearGradient>
<linearGradient id="paint52_linear_471_925" x1="3.21737" y1="26.4343" x2="5.37228" y2="25.7329" gradientUnits="userSpaceOnUse">
<stop stop-color="white"/>
<stop offset="1" stop-color="#1D1D1B"/>
</linearGradient>
<linearGradient id="paint53_linear_471_925" x1="-1.24512" y1="26.6525" x2="-1.01707" y2="26.6449" gradientUnits="userSpaceOnUse">
<stop stop-color="#C30000"/>
<stop offset="1" stop-color="#FFA300"/>
</linearGradient>
<linearGradient id="paint54_linear_471_925" x1="-1.13686" y1="26.5115" x2="-0.10938" y2="26.4772" gradientUnits="userSpaceOnUse">
<stop stop-color="#C30000"/>
<stop offset="1" stop-color="#FFA300"/>
</linearGradient>
<linearGradient id="paint55_linear_471_925" x1="-1.60232" y1="26.6132" x2="-2.16957" y2="26.0484" gradientUnits="userSpaceOnUse">
<stop stop-color="#B5BFBF"/>
<stop offset="1" stop-color="white"/>
</linearGradient>
<linearGradient id="paint56_linear_471_925" x1="5.44454" y1="25.559" x2="3.35484" y2="26.2391" gradientUnits="userSpaceOnUse">
<stop stop-color="#878787"/>
<stop offset="1" stop-color="white"/>
</linearGradient>
<linearGradient id="paint57_linear_471_925" x1="20.3218" y1="23.5293" x2="20.1086" y2="23.5293" gradientUnits="userSpaceOnUse">
<stop offset="0.01"/>
<stop offset="1" stop-color="#272725"/>
</linearGradient>
<radialGradient id="paint58_radial_471_925" cx="0" cy="0" r="1" gradientUnits="userSpaceOnUse" gradientTransform="translate(25.4173 31.3631) rotate(180) scale(5.31159 5.19244)">
<stop offset="0.96" stop-color="#2B2B29"/>
<stop offset="0.98" stop-color="#292927"/>
<stop offset="0.99" stop-color="#171715"/>
<stop offset="1"/>
</radialGradient>
<radialGradient id="paint59_radial_471_925" cx="0" cy="0" r="1" gradientUnits="userSpaceOnUse" gradientTransform="translate(25.4144 31.3631) rotate(180) scale(5.41529 5.29381)">
<stop/>
<stop offset="0.66"/>
<stop offset="0.7"/>
<stop offset="0.79" stop-color="#282826"/>
<stop offset="0.87" stop-color="#2B2B29"/>
<stop offset="0.96" stop-color="#363635"/>
<stop offset="1" stop-color="#3C3C3B"/>
</radialGradient>
<radialGradient id="paint60_radial_471_925" cx="0" cy="0" r="1" gradientUnits="userSpaceOnUse" gradientTransform="translate(25.4144 31.3629) rotate(180) scale(3.76478 3.68033)">
<stop offset="0.01" stop-color="#D9D9D8"/>
<stop offset="0.14" stop-color="#D6D6D4"/>
<stop offset="0.25" stop-color="#CBCBCA"/>
<stop offset="0.36" stop-color="#B9B9B8"/>
<stop offset="0.47" stop-color="#A0A09E"/>
<stop offset="0.56" stop-color="#828280"/>
<stop offset="0.59" stop-color="#80807E"/>
<stop offset="0.61" stop-color="#787876"/>
<stop offset="0.62" stop-color="#595957"/>
<stop offset="0.63" stop-color="#4F4F4D"/>
<stop offset="0.65" stop-color="#545452"/>
<stop offset="0.71" stop-color="#60605F"/>
<stop offset="0.78" stop-color="#646463"/>
<stop offset="0.8" stop-color="#111111"/>
<stop offset="0.92" stop-color="#0C0C0A"/>
<stop offset="0.93" stop-color="#131311"/>
<stop offset="0.94" stop-color="#3C3C3B"/>
<stop offset="0.96" stop-color="#303030"/>
<stop offset="0.99" stop-color="#121212"/>
<stop offset="1"/>
</radialGradient>
<clipPath id="clip0_471_925">
<rect width="109" height="38" fill="white"/>
</clipPath>
</defs>
</svg>
