<svg width="40" height="40" viewBox="0 0 40 40" fill="none" xmlns="http://www.w3.org/2000/svg">
<rect width="40" height="40" rx="12" fill="#30438A"/>
<path d="M20 24H20.01M20 20H20.01M20 16H20.01M29 22V25C29 26.1046 28.1046 27 27 27H13C11.8954 27 11 26.1046 11 25V22C12.1046 22 13 21.1046 13 20C13 18.8954 12.1046 18 11 18V15C11 13.8954 11.8954 13 13 13H27C28.1046 13 29 13.8954 29 15V18C27.8954 18 27 18.8954 27 20C27 21.1046 27.8954 22 29 22Z" stroke="white" stroke-width="2" stroke-linecap="round" stroke-linejoin="round"/>
</svg>
