<svg width="17" height="17" viewBox="0 0 17 17" fill="none" xmlns="http://www.w3.org/2000/svg">
<g clip-path="url(#clip0_717_984)">
<path d="M14.4375 2.75H12.3062C12.1467 1.9741 11.7245 1.27693 11.1109 0.775994C10.4972 0.275062 9.72964 0.000999985 8.9375 0L7.5625 0C6.77036 0.000999985 6.00278 0.275062 5.38914 0.775994C4.7755 1.27693 4.35332 1.9741 4.19375 2.75H2.0625C1.88016 2.75 1.7053 2.82243 1.57636 2.95136C1.44743 3.0803 1.375 3.25516 1.375 3.4375C1.375 3.61984 1.44743 3.7947 1.57636 3.92364C1.7053 4.05257 1.88016 4.125 2.0625 4.125H2.75V13.0625C2.75109 13.9738 3.11361 14.8476 3.75803 15.492C4.40245 16.1364 5.27615 16.4989 6.1875 16.5H10.3125C11.2238 16.4989 12.0976 16.1364 12.742 15.492C13.3864 14.8476 13.7489 13.9738 13.75 13.0625V4.125H14.4375C14.6198 4.125 14.7947 4.05257 14.9236 3.92364C15.0526 3.7947 15.125 3.61984 15.125 3.4375C15.125 3.25516 15.0526 3.0803 14.9236 2.95136C14.7947 2.82243 14.6198 2.75 14.4375 2.75ZM7.5625 1.375H8.9375C9.36394 1.37552 9.77977 1.50795 10.128 1.75412C10.4762 2.00029 10.7397 2.34815 10.8824 2.75H5.61756C5.76028 2.34815 6.02381 2.00029 6.37202 1.75412C6.72023 1.50795 7.13606 1.37552 7.5625 1.375ZM12.375 13.0625C12.375 13.6095 12.1577 14.1341 11.7709 14.5209C11.3841 14.9077 10.8595 15.125 10.3125 15.125H6.1875C5.64049 15.125 5.11589 14.9077 4.72909 14.5209C4.3423 14.1341 4.125 13.6095 4.125 13.0625V4.125H12.375V13.0625Z" fill="white"/>
<path d="M6.875 12.3745C7.05733 12.3745 7.2322 12.3021 7.36113 12.1731C7.49006 12.0442 7.5625 11.8693 7.5625 11.687V7.56201C7.5625 7.37967 7.49006 7.20481 7.36113 7.07588C7.2322 6.94694 7.05733 6.87451 6.875 6.87451C6.69266 6.87451 6.51779 6.94694 6.38886 7.07588C6.25993 7.20481 6.1875 7.37967 6.1875 7.56201V11.687C6.1875 11.8693 6.25993 12.0442 6.38886 12.1731C6.51779 12.3021 6.69266 12.3745 6.875 12.3745Z" fill="white"/>
<path d="M9.625 12.3745C9.80734 12.3745 9.98221 12.3021 10.1111 12.1731C10.2401 12.0442 10.3125 11.8693 10.3125 11.687V7.56201C10.3125 7.37967 10.2401 7.20481 10.1111 7.07588C9.98221 6.94694 9.80734 6.87451 9.625 6.87451C9.44267 6.87451 9.2678 6.94694 9.13887 7.07588C9.00993 7.20481 8.9375 7.37967 8.9375 7.56201V11.687C8.9375 11.8693 9.00993 12.0442 9.13887 12.1731C9.2678 12.3021 9.44267 12.3745 9.625 12.3745Z" fill="white"/>
</g>
<defs>
<clipPath id="clip0_717_984">
<rect width="16.5" height="16.5" fill="white"/>
</clipPath>
</defs>
</svg>
