<svg width="16" height="13" viewBox="0 0 16 13" fill="none" xmlns="http://www.w3.org/2000/svg">
<path d="M5.96826 6.1595C5.96826 5.2027 6.74396 4.427 7.70076 4.427C8.65756 4.427 9.43326 5.2027 9.43326 6.1595C9.43326 7.1163 8.65756 7.892 7.70076 7.892C6.74396 7.892 5.96826 7.1163 5.96826 6.1595Z" fill="white"/>
<path fill-rule="evenodd" clip-rule="evenodd" d="M0 6.16C0 7.42234 0.327219 7.84746 0.981665 8.69769C2.28841 10.3953 4.47994 12.32 7.7 12.32C10.9201 12.32 13.1116 10.3953 14.4183 8.69769C15.0727 7.84746 15.4 7.42234 15.4 6.16C15.4 4.89766 15.0727 4.47257 14.4183 3.62233C13.1116 1.92466 10.9201 0 7.7 0C4.47994 0 2.28841 1.92466 0.981665 3.62233C0.327219 4.47257 0 4.89766 0 6.16ZM7.7 3.2725C6.10528 3.2725 4.8125 4.56528 4.8125 6.16C4.8125 7.75475 6.10528 9.0475 7.7 9.0475C9.29475 9.0475 10.5875 7.75475 10.5875 6.16C10.5875 4.56528 9.29475 3.2725 7.7 3.2725Z" fill="white"/>
</svg>
