<svg width="45" height="45" viewBox="0 0 45 45" fill="none" xmlns="http://www.w3.org/2000/svg">
<g filter="url(#filter0_d_257_3037)">
<rect x="2.19995" y="2.19995" width="40" height="40" rx="13" fill="white"/>
</g>
<path d="M35.9229 18.7813C33.159 18.797 28.3184 18.7778 27.6309 18.7778C26.8355 18.7778 25.6028 18.4248 25.2722 17.7013C25.0983 17.3206 24.9011 16.9917 24.708 16.7204C24.3878 16.2704 24.3586 15.641 24.8558 15.4006C25.5247 15.0772 26.3983 14.8667 27.0443 14.8667H37.2869C38.101 14.8667 38.5739 15.7875 38.0997 16.4492L36.727 18.3646C36.5409 18.6242 36.2423 18.7795 35.9229 18.7813Z" fill="white"/>
<path d="M19.0916 18.843H7.61877C6.79099 18.843 6.32164 17.8947 6.82365 17.2365L8.23154 15.3906C8.4207 15.1426 8.71475 14.9971 9.02666 14.9971H13.988C17.9446 14.9971 23.119 14.6653 24.5436 18.3566C24.909 19.3033 24.9048 20.2331 24.7627 20.8637C23.8762 24.0447 26.3489 25.4484 27.696 25.7526H37.2851C38.1117 25.7526 38.5814 26.6984 38.0818 27.3569L36.7309 29.1377C36.5418 29.3869 36.247 29.5333 35.9342 29.5333H27.696C20.1346 28.1644 19.939 22.7541 20.1998 20.8637C20.4084 19.3514 19.5479 18.8864 19.0916 18.843Z" fill="white"/>
<path d="M6.53333 29.5334H9.03107C9.58336 29.5334 10.0311 29.0856 10.0311 28.5334V26.6875C10.0311 26.1352 10.4788 25.6875 11.0311 25.6875H17.8941C18.7377 25.6875 19.5266 24.5183 19.3816 23.6873C19.334 23.4144 19.2929 23.1407 19.2586 22.8829C19.1901 22.3687 18.7588 21.9719 18.2401 21.9719H6.53333C5.98104 21.9719 5.53333 22.4196 5.53333 22.9719V28.5334C5.53333 29.0856 5.98104 29.5334 6.53333 29.5334Z" fill="white"/>
<path d="M35.9229 18.7813C33.159 18.797 28.3184 18.7778 27.6309 18.7778C26.8355 18.7778 25.6028 18.4248 25.2722 17.7013C25.0983 17.3206 24.9011 16.9917 24.708 16.7204C24.3878 16.2704 24.3586 15.641 24.8558 15.4006C25.5247 15.0772 26.3983 14.8667 27.0443 14.8667H37.2869C38.101 14.8667 38.5739 15.7875 38.0997 16.4492L36.727 18.3646C36.5409 18.6242 36.2423 18.7795 35.9229 18.7813Z" fill="black"/>
<path d="M19.0916 18.843H7.61877C6.79099 18.843 6.32164 17.8947 6.82365 17.2365L8.23154 15.3906C8.4207 15.1426 8.71475 14.9971 9.02666 14.9971H13.988C17.9446 14.9971 23.119 14.6653 24.5436 18.3566C24.909 19.3033 24.9048 20.2331 24.7627 20.8637C23.8762 24.0447 26.3489 25.4484 27.696 25.7526H37.2851C38.1117 25.7526 38.5814 26.6984 38.0818 27.3569L36.7309 29.1377C36.5418 29.3869 36.247 29.5333 35.9342 29.5333H27.696C20.1346 28.1644 19.939 22.7541 20.1998 20.8637C20.4084 19.3514 19.5479 18.8864 19.0916 18.843Z" fill="url(#paint0_linear_257_3037)"/>
<path d="M6.53333 29.5334H9.03107C9.58336 29.5334 10.0311 29.0856 10.0311 28.5334V26.6875C10.0311 26.1352 10.4788 25.6875 11.0311 25.6875H17.8941C18.7377 25.6875 19.5266 24.5183 19.3816 23.6873C19.334 23.4144 19.2929 23.1407 19.2586 22.8829C19.1901 22.3687 18.7588 21.9719 18.2401 21.9719H6.53333C5.98104 21.9719 5.53333 22.4196 5.53333 22.9719V28.5334C5.53333 29.0856 5.98104 29.5334 6.53333 29.5334Z" fill="black"/>
<defs>
<filter id="filter0_d_257_3037" x="-4.88758e-05" y="-4.88758e-05" width="44.4" height="44.4" filterUnits="userSpaceOnUse" color-interpolation-filters="sRGB">
<feFlood flood-opacity="0" result="BackgroundImageFix"/>
<feColorMatrix in="SourceAlpha" type="matrix" values="0 0 0 0 0 0 0 0 0 0 0 0 0 0 0 0 0 0 127 0" result="hardAlpha"/>
<feOffset/>
<feGaussianBlur stdDeviation="1.1"/>
<feComposite in2="hardAlpha" operator="out"/>
<feColorMatrix type="matrix" values="0 0 0 0 0 0 0 0 0 0 0 0 0 0 0 0 0 0 0.25 0"/>
<feBlend mode="normal" in2="BackgroundImageFix" result="effect1_dropShadow_257_3037"/>
<feBlend mode="normal" in="SourceGraphic" in2="effect1_dropShadow_257_3037" result="shape"/>
</filter>
<linearGradient id="paint0_linear_257_3037" x1="22.4486" y1="14.9971" x2="22.4486" y2="29.5333" gradientUnits="userSpaceOnUse">
<stop stop-color="#0197FD"/>
<stop offset="1" stop-color="#1E7BE0"/>
</linearGradient>
</defs>
</svg>
