<svg width="51" height="51" viewBox="0 0 51 51" fill="none" xmlns="http://www.w3.org/2000/svg">
<rect width="50.5405" height="50.5405" rx="11" fill="url(#paint0_linear_231_190)"/>
<path d="M32.1324 20.9461C32.0231 20.9461 31.916 20.9544 31.8115 20.9698C30.9359 21.0987 29.614 20.7012 29.28 19.8817C28.9876 19.1644 28.6224 18.5753 28.2826 18.1351C27.9452 17.6979 27.9077 17.0656 28.3917 16.7997C29.258 16.3236 30.4971 16.0044 31.3912 16.0044H44.8459C45.66 16.0044 46.1329 16.9252 45.6587 17.5869L43.5474 20.5329C43.3613 20.7926 43.0646 20.9478 42.7451 20.9497C39.2781 20.971 33.0125 20.9461 32.1324 20.9461Z" fill="white"/>
<path d="M21.3428 21.0288H6.31433C5.48655 21.0288 5.0172 20.0805 5.5192 19.4223L7.70006 16.563C7.88922 16.315 8.18327 16.1694 8.49518 16.1694H16.4625C20.4191 16.1694 25.1124 15.8724 27.4756 19.0458C28.6714 20.6514 28.7569 22.4789 28.5083 23.582C27.3882 27.6012 30.5124 29.3748 32.2146 29.7591H44.8612C45.6878 29.7591 46.1574 30.705 45.6579 31.3635L43.5512 34.1405C43.3621 34.3897 43.0673 34.5361 42.7545 34.5361H32.2146C22.6606 32.8065 22.4135 25.9705 22.743 23.582C23.0065 21.6712 21.9194 21.0837 21.3428 21.0288Z" fill="white"/>
<path d="M5.21167 34.5361H8.89463C9.44692 34.5361 9.89463 34.0884 9.89463 33.5361V30.6768C9.89463 30.1245 10.3423 29.6768 10.8946 29.6768H20.3857C21.2294 29.6768 21.9811 28.5226 21.8123 27.696C21.6894 27.0947 21.5926 26.4533 21.5228 25.8932C21.4587 25.3784 21.0272 24.9822 20.5085 24.9822H5.21167C4.65939 24.9822 4.21167 25.4299 4.21167 25.9822V33.5361C4.21167 34.0884 4.65938 34.5361 5.21167 34.5361Z" fill="white"/>
<defs>
<linearGradient id="paint0_linear_231_190" x1="6.31757" y1="4.21171" x2="43.3806" y2="47.1712" gradientUnits="userSpaceOnUse">
<stop stop-color="#064A99"/>
<stop offset="0.461538" stop-color="#1459AA"/>
<stop offset="1" stop-color="#053A78"/>
</linearGradient>
</defs>
</svg>
